<svg width="500" height="430" xmlns="http://www.w3.org/2000/svg">

 <g>
  <title>Layer 1</title>
  <g id="freepik--background-simple--inject-66">
   <path id="svg_1" fill="#407BFF" d="m324.18,19.25s-72.73,-25.87 -144.13,15.31s-107.43,122.92 -138.36,188.44s-13.13,132 41.37,162.4s91.56,-14.4 168,-16.58s97,8.75 160.47,-34.44s74.92,-145.2 24.87,-220.68s-112.22,-94.45 -112.22,-94.45z"/>
   <path id="svg_2" opacity="0.7" fill="#fff" d="m324.18,19.25s-72.73,-25.87 -144.13,15.31s-107.43,122.92 -138.36,188.44s-13.13,132 41.37,162.4s91.56,-14.4 168,-16.58s97,8.75 160.47,-34.44s74.92,-145.2 24.87,-220.68s-112.22,-94.45 -112.22,-94.45z"/>
  </g>
  <g id="freepik--Sign--inject-66">
   <polyline id="svg_3" stroke-miterlimit="10" stroke="#263238" fill="none" points="202.89999389648438,71.63999938964844 275.54998779296875,34.91999816894531 351.32000732421875,74.76000213623047 "/>
   <rect id="svg_4" fill="#263238" height="75.78" width="220.3" y="63.07" x="167.42"/>
   <path id="svg_5" fill="#fff" d="m190.45,94.18l-0.44,3.48l0,1.19a70.91,70.91 0 0 0 0.26,7.66c0.17,1.24 0.34,2.36 0.52,3.35a13.23,13.23 0 0 0 0.69,2.53a12.61,12.61 0 0 0 1,2a3.64,3.64 0 0 0 3.23,1.84a4,4 0 0 0 2.12,-0.88a3.86,3.86 0 0 1 1.92,-0.89a2.14,2.14 0 0 1 1.41,0.75q0,2.5 -2.85,3.57a8.7,8.7 0 0 1 -3.06,0.52a5.66,5.66 0 0 1 -2.82,-0.67a6.2,6.2 0 0 1 -1.94,-1.73a10.37,10.37 0 0 1 -1.36,-2.71a25.65,25.65 0 0 1 -0.93,-3.28c-0.19,-1.1 -0.35,-2.36 -0.48,-3.79c-0.2,-2.4 -0.3,-5 -0.32,-7.88l0.05,-6a24.57,24.57 0 0 1 0.34,-4.59a8.57,8.57 0 0 1 -0.15,-1.56a5.91,5.91 0 0 1 2.29,-4.87a8.77,8.77 0 0 1 5.64,-1.81a4.52,4.52 0 0 1 2.33,0.67a2,2 0 0 1 1.14,1.76a1,1 0 0 1 -0.41,0.82a2.46,2.46 0 0 1 -1.4,0.3a1.47,1.47 0 0 1 -1.35,-0.61l0,0l-0.68,0l0,-0.12q-2.9,0 -3.93,1.8q-1,1.65 -1,5.69l0.18,3.46z"/>
   <path id="svg_6" fill="#fff" d="m212.64,119.22c-0.84,0 -1.27,-0.55 -1.27,-1.66q0,-9.47 -0.43,-17.54a13.41,13.41 0 0 0 -2.51,-0.25a5.37,5.37 0 0 0 -2.09,0.39c0,1.85 0.14,4.64 0.42,8.39s0.41,6.57 0.41,8.48a1.58,1.58 0 0 1 -0.29,0.9a0.93,0.93 0 0 1 -0.78,0.41c-0.91,0 -1.57,-2.83 -2,-8.53q-0.86,-11.59 -0.85,-28c0,-0.59 0.28,-0.89 0.85,-0.89a2.3,2.3 0 0 1 1,0.25a2,2 0 0 1 0.76,0.55a37.15,37.15 0 0 0 -0.17,3.74l0.34,10.23l-0.05,1.87a7.35,7.35 0 0 0 0.1,1.29l4.83,-0.36l-0.19,-16.34l0,-1.31a2,2 0 0 1 2.26,1.7a30.18,30.18 0 0 1 0.17,4.21q0,3.38 0.47,14.33t0.48,16.39a2,2 0 0 1 -0.42,1.23a1.23,1.23 0 0 1 -1.04,0.52z"/>
   <path id="svg_7" fill="#fff" d="m228.36,118.44q-1.53,0 -1.53,-1.29l0,-6.49a7.09,7.09 0 0 0 -2.54,-0.82a27,27 0 0 0 -3.27,-0.44a8.34,8.34 0 0 0 -0.84,2.53c-0.21,1.1 -0.44,2.21 -0.68,3.33a8.47,8.47 0 0 1 -0.93,2.64q-1.95,0 -2.19,-1q0.68,-1 2.21,-9.94t2.52,-14a69.45,69.45 0 0 1 2.12,-8.52c0.77,-2.3 1.49,-3.45 2.19,-3.45a2.59,2.59 0 0 1 1.61,0.44q0,1.77 1,9.6t1,10.12c0,1.53 0.17,4.08 0.52,7.63s0.53,6.23 0.53,8a1.48,1.48 0 0 1 -1.72,1.66zm-2.09,-16.25q-0.44,-4.41 -0.79,-8.41c-0.23,-2.66 -0.35,-4.27 -0.35,-4.83s0,-0.88 0,-1q-0.77,0.8 -2.24,8.92c-1,5.41 -1.51,8.83 -1.57,10.28a13.85,13.85 0 0 0 3.46,0.56a9,9 0 0 0 2,-0.15c-0.05,-0.62 -0.22,-2.43 -0.51,-5.37z"/>
   <path id="svg_8" fill="#fff" d="m233.39,117l0.2,-29.19l0,-6.13a1.13,1.13 0 0 1 0.24,-0.82c0.16,-0.17 0.59,-0.25 1.28,-0.25a4.92,4.92 0 0 1 2.09,0.5a5.27,5.27 0 0 1 1.78,1.33a9.8,9.8 0 0 1 1.22,1.94a10.42,10.42 0 0 1 1,4.5a15.63,15.63 0 0 1 -1.21,5.56c-0.1,0.23 -0.3,0.71 -0.59,1.44l-0.51,1.28a34.7,34.7 0 0 0 1.87,9.6q0.63,2 1.8,5.46c0.78,2.31 1.27,3.77 1.46,4.39l0,0.12q0,1.68 -0.39,1.95a1.36,1.36 0 0 1 -0.83,0.28c-0.61,0 -1.21,-0.44 -1.79,-1.33l0,-0.17q-0.25,-4.53 -3.11,-13.69c-0.88,-2.78 -1.49,-4.85 -1.83,-6.19l0,19.62a2.25,2.25 0 0 1 -0.26,1.17a1.1,1.1 0 0 1 -1,0.41a1.3,1.3 0 0 1 -1.05,-0.4a1.44,1.44 0 0 1 -0.36,-1l-0.01,-0.38zm2.75,-34.1l-0.27,10.16c0,1 0,1.78 0,2.28a13.57,13.57 0 0 0 1.68,-1.92l0.78,-4.3a4.52,4.52 0 0 0 0.07,-0.78a10.61,10.61 0 0 0 -0.49,-2.89c-0.4,-1.55 -1.01,-2.4 -1.77,-2.54l0,-0.01z"/>
   <path id="svg_9" fill="#fff" d="m252.13,83.42l-0.87,0a1,1 0 0 0 -0.72,0.21a1.1,1.1 0 0 0 -0.23,0.81q0,4.86 0.61,14.56t0.6,14.56l0,1.92a7,7 0 0 1 1,-0.07c1.38,0 2.07,0.58 2.07,1.75l0,0.29l-1.24,0.85l-3.38,0.12c-2.86,0 -4.3,-0.49 -4.3,-1.48c0,-0.8 0.5,-1.19 1.51,-1.19l1,0.07c0.49,0 0.73,-0.39 0.73,-1.17q0,-3.84 -0.46,-11.5c-0.31,-5.12 -0.46,-9 -0.46,-11.51l0.1,-5.08a24.64,24.64 0 0 0 -0.13,-2.77a3.85,3.85 0 0 1 -1.16,0.22a1,1 0 0 1 -1.17,-1.19a1.27,1.27 0 0 1 0.75,-1.06a5.54,5.54 0 0 1 1.88,-0.65a20.13,20.13 0 0 1 3.1,-0.36a2.08,2.08 0 0 1 1.44,0.4a1.25,1.25 0 0 1 0.44,0.95a1.46,1.46 0 0 1 -0.33,1a1.06,1.06 0 0 1 -0.78,0.32z"/>
   <path id="svg_10" fill="#fff" d="m263.12,89.57l-0.12,6.43l0.44,11.45l0.41,8.94c0,1.62 -0.48,2.43 -1.43,2.43a1.29,1.29 0 0 1 -1.22,-0.77a3.82,3.82 0 0 1 -0.39,-1.73l0.39,-8c0,-1.71 -0.11,-4.3 -0.34,-7.75s-0.34,-6 -0.34,-7.75l0.07,-4.35a14.48,14.48 0 0 0 -0.46,-4.65l-2.7,0.27a1.84,1.84 0 0 1 -1.13,-0.37a1.19,1.19 0 0 1 -0.49,-1c0,-0.39 0.39,-0.73 1.19,-1a13.16,13.16 0 0 1 2.91,-0.63a47.63,47.63 0 0 1 5,-0.34a1.76,1.76 0 0 1 1.11,0.4a1.26,1.26 0 0 1 0.5,1a1.16,1.16 0 0 1 -0.44,1a1.62,1.62 0 0 1 -1.07,0.35l-1.77,-0.09l-0.51,0a53.67,53.67 0 0 1 0.39,6.16z"/>
   <path id="svg_11" fill="#fff" d="m272.42,117.86l0.25,-9.63a28.38,28.38 0 0 0 -0.48,-4.31a30.25,30.25 0 0 1 -0.47,-4.6a19,19 0 0 0 -0.59,-4.22a39.92,39.92 0 0 0 -1.33,-4.49a26.68,26.68 0 0 1 -1.92,-8.92a0.73,0.73 0 0 1 0.43,-0.62a1.68,1.68 0 0 1 0.88,-0.25q0.46,0 1,1.14a17.2,17.2 0 0 1 1,2.92q0.44,1.77 0.81,3.54c0.25,1.19 0.48,2.33 0.69,3.44s0.37,1.83 0.47,2.15c0.06,-0.29 0.14,-1 0.23,-2.07s0.19,-2.22 0.3,-3.37s0.29,-2.33 0.49,-3.5c0.43,-2.67 1.09,-4 2,-4s1.32,0.18 1.32,0.53a43.86,43.86 0 0 1 -1.19,8.34a44.11,44.11 0 0 0 -1.19,8.41l-0.15,1.73l0,0.75l0.27,13.2l0.17,2.47l0,1.12a1.3,1.3 0 0 1 -0.5,1.06a1.66,1.66 0 0 1 -1.08,0.4a1.37,1.37 0 0 1 -1,-0.35a1.15,1.15 0 0 1 -0.41,-0.87z"/>
   <path id="svg_12" fill="#fff" d="m286,107.19l-0.17,-19.28q0,-3.22 0.08,-6.44l1.38,-0.77q1.49,0.09 3.38,7.92q1.53,6.39 2.48,11.48t1,5.53q0.35,-1.6 1.27,-5.73t1.38,-6.42a86.38,86.38 0 0 0 1.68,-11.89l0,-0.29a1.52,1.52 0 0 1 0.61,-1a1.72,1.72 0 0 1 1.07,-0.39a1.19,1.19 0 0 1 0.91,0.4a1.32,1.32 0 0 1 0.35,0.87q0,6 0.45,17.84t0.45,17.84a3.42,3.42 0 0 1 -0.63,2.06c-0.42,0.58 -0.83,0.88 -1.22,0.88c-0.81,0 -1.21,-0.66 -1.21,-2l-0.2,-20.95l0,-2.53q-0.33,1.92 -1.53,6.72t-1.53,7.36l0,0.32c0,0.13 -0.08,0.44 -0.15,0.92s-0.13,0.89 -0.2,1.2a8.9,8.9 0 0 1 -0.33,1.06a1.59,1.59 0 0 1 -1.53,1.17c-1.18,0 -1.78,-1.55 -1.78,-4.64a53,53 0 0 0 -2.23,-12.86q-1.12,-4.14 -1.44,-5.59q-0.09,4 -0.09,6l0.41,20.47a2.66,2.66 0 0 1 -0.75,1.87a1.8,1.8 0 0 1 -1.74,-0.83a4.67,4.67 0 0 1 -0.45,-2.23l0.28,-8.07z"/>
   <path id="svg_13" fill="#fff" d="m316.78,118.44q-1.53,0 -1.53,-1.29l0,-6.49a7.09,7.09 0 0 0 -2.54,-0.82a27,27 0 0 0 -3.27,-0.44a8.34,8.34 0 0 0 -0.84,2.53c-0.22,1.1 -0.44,2.21 -0.68,3.33a8.73,8.73 0 0 1 -0.93,2.64q-2,0 -2.19,-1q0.68,-1 2.21,-9.94t2.52,-14a69.45,69.45 0 0 1 2.12,-8.52q1.14,-3.45 2.19,-3.45a2.54,2.54 0 0 1 1.6,0.44q0,1.77 1,9.6c0.64,5.22 1,8.59 1,10.12s0.17,4.08 0.52,7.63s0.52,6.23 0.52,8a1.47,1.47 0 0 1 -1.7,1.66zm-2.09,-16.25q-0.44,-4.41 -0.79,-8.41c-0.23,-2.66 -0.35,-4.27 -0.35,-4.83s0,-0.88 0,-1q-0.78,0.8 -2.25,8.92c-1,5.41 -1.5,8.83 -1.56,10.28a13.79,13.79 0 0 0 3.46,0.56a9,9 0 0 0 2,-0.15c-0.05,-0.62 -0.2,-2.43 -0.51,-5.37z"/>
   <path id="svg_14" fill="#fff" d="m321.81,117l0.19,-29.19l0,-6.13a1.13,1.13 0 0 1 0.25,-0.82c0.16,-0.17 0.58,-0.25 1.27,-0.25a4.89,4.89 0 0 1 2.09,0.5a5.31,5.31 0 0 1 1.79,1.33a10.28,10.28 0 0 1 1.22,1.94a10.57,10.57 0 0 1 1,4.5a15.67,15.67 0 0 1 -1.22,5.56c-0.1,0.23 -0.29,0.71 -0.58,1.44l-0.51,1.28a34.33,34.33 0 0 0 1.87,9.6q0.63,2 1.8,5.46c0.78,2.31 1.26,3.77 1.46,4.39l0,0.12q0,1.68 -0.39,1.95a1.38,1.38 0 0 1 -0.83,0.28c-0.61,0 -1.21,-0.44 -1.8,-1.33l0,-0.17q-0.24,-4.53 -3.11,-13.69c-0.87,-2.78 -1.48,-4.85 -1.82,-6.19l0,19.62a2.16,2.16 0 0 1 -0.27,1.17a1.08,1.08 0 0 1 -1,0.41a1.34,1.34 0 0 1 -1.06,-0.4a1.48,1.48 0 0 1 -0.35,-1l0,-0.38zm2.75,-34.1l-0.27,10.16c0,1 0,1.78 0,2.28a14.2,14.2 0 0 0 1.67,-1.92l0.78,-4.3a3.67,3.67 0 0 0 0.08,-0.78a11,11 0 0 0 -0.49,-2.89c-0.41,-1.55 -1.01,-2.4 -1.77,-2.54l0,-0.01z"/>
   <path id="svg_15" fill="#fff" d="m335.59,102.42l0.07,-9.45a53.05,53.05 0 0 0 -0.36,-5.74c-0.24,-2.17 -0.37,-3.59 -0.37,-4.26a2.24,2.24 0 0 1 0.41,-1.48a1.24,1.24 0 0 1 1,-0.48c1.24,0 1.85,1.35 1.85,4t-0.19,10.27c0.12,-0.28 0.43,-1.09 0.95,-2.43s1.05,-2.7 1.6,-4.06s1.17,-2.75 1.8,-4.21q2.15,-4.91 3.11,-4.91a1.44,1.44 0 0 1 1,0.38a1.17,1.17 0 0 1 0.42,0.9a44.19,44.19 0 0 1 -2.71,6.21a50.59,50.59 0 0 0 -3.05,7.22l0,0.87q0.74,1.84 4,12.08t3.24,10.85a1.32,1.32 0 0 1 -0.48,1a1.69,1.69 0 0 1 -1.1,0.41l-1.16,-0.19q-1.24,-7.08 -2.58,-12.34a59.59,59.59 0 0 0 -3.5,-10a15.77,15.77 0 0 0 -1.56,3.2c-0.09,1 -0.14,1.8 -0.14,2.39l0.31,9.23l0,4.12c0,1.77 -0.56,2.65 -1.7,2.65c-1,0 -1.46,-0.84 -1.46,-2.51s0.11,-4 0.33,-7s0.27,-5.23 0.27,-6.72z"/>
   <path id="svg_16" fill="#fff" d="m356.15,100.24l-1.24,-0.05a1.26,1.26 0 0 0 -1,0.36l0,15.36c1.7,-0.1 2.63,-0.14 2.77,-0.14c1.9,0 2.85,0.43 2.85,1.31l0,0.17a2.27,2.27 0 0 1 -1.17,1a4.63,4.63 0 0 1 -1.46,0.42c-0.42,0 -1,0 -1.63,0l-1.57,0c-1.23,0 -2,-0.24 -2.29,-0.72a1.82,1.82 0 0 1 -0.19,-0.9l0,-28.84a14.6,14.6 0 0 0 -0.34,-2.53a13.73,13.73 0 0 1 -0.34,-2.55l0,-0.13a9,9 0 0 1 1.24,-1.75l3.69,-0.44a3,3 0 0 1 1.52,0.45a1.34,1.34 0 0 1 0.77,1.18c0,1 -0.76,1.48 -2.26,1.48l-1.44,0l-0.53,0l0.39,8.22c0,0.66 0,1.63 -0.13,2.9s-0.12,2.2 -0.12,2.79l0.73,-0.17a6.68,6.68 0 0 1 1.59,-0.27a1.49,1.49 0 0 1 1,0.41a1.32,1.32 0 0 1 0.45,1a1.62,1.62 0 0 1 -0.36,1a1.15,1.15 0 0 1 -0.93,0.44z"/>
   <path id="svg_17" fill="#fff" d="m367.94,89.57l-0.1,6.41l0.44,11.45l0.41,8.94c0,1.62 -0.47,2.43 -1.43,2.43a1.29,1.29 0 0 1 -1.26,-0.8a3.82,3.82 0 0 1 -0.39,-1.73l0.39,-8c0,-1.71 -0.11,-4.3 -0.34,-7.75s-0.34,-6 -0.34,-7.75l0.08,-4.35a14.38,14.38 0 0 0 -0.47,-4.65l-2.69,0.27a1.8,1.8 0 0 1 -1.13,-0.37a1.17,1.17 0 0 1 -0.5,-1c0,-0.39 0.4,-0.73 1.19,-1a13.13,13.13 0 0 1 2.92,-0.63a47.29,47.29 0 0 1 5,-0.34a1.75,1.75 0 0 1 1.1,0.4a1.26,1.26 0 0 1 0.5,1a1.16,1.16 0 0 1 -0.44,1a1.62,1.62 0 0 1 -1.07,0.35l-1.77,-0.09l-0.51,0a51.48,51.48 0 0 1 0.41,6.21z"/>
  </g>
  <g id="freepik--Clothe--inject-66">
   <path id="svg_18" stroke-linejoin="round" stroke="#263238" fill="#fff" d="m429.23,234.89l-3.07,-2.12a29,29 0 0 1 -10,-12.52l-2.55,-6l-4.06,0l-2.56,6a29,29 0 0 1 -10,12.52l-3.07,2.12a6.87,6.87 0 0 0 -2.76,5.66l40.84,0a6.87,6.87 0 0 0 -2.77,-5.66zm-16.5,3.16l-17.55,0c0,-1.89 3,-3.63 4.19,-4.59l2.12,-1.71a23.08,23.08 0 0 0 6.92,-10.13l1.77,-4.82l2.82,0l1.77,4.82a23.24,23.24 0 0 0 6.92,10.13l2.12,1.71c1.19,1 4.13,2.7 4.13,4.59l-15.21,0z"/>
   <path id="svg_19" stroke-linejoin="round" stroke-linecap="round" stroke="#263238" fill="none" d="m411.56,214.19l0,-4.38s2.51,-1.88 2.51,-4.59s-2.09,-3.75 -4.38,-2.92"/>
   <path id="svg_20" stroke-linejoin="round" stroke="#263238" fill="#fff" d="m399.9,228.28s4.65,5.36 10.5,5.45c6.2,0.1 13.49,-5.33 13.49,-5.33a30.82,30.82 0 0 0 5.4,3.73c3.25,1.77 5.39,4.37 7.09,8.86c1.9,5 6.09,18.64 6.09,18.64l-12.07,0.59l1.65,27.38l-40.16,0l2.72,-27.9l-11.72,0s3.88,-18.41 5.66,-22s11.35,-9.42 11.35,-9.42z"/>
   <line id="svg_21" stroke-linejoin="round" stroke="#263238" fill="none" y2="245.07" x2="395.23" y1="259.7" x1="394.61"/>
   <line id="svg_22" stroke-linejoin="round" stroke="#263238" fill="none" y2="246" x2="429.45" y1="260.22" x1="430.4"/>
   <path id="svg_23" stroke-linejoin="round" stroke="#263238" fill="#fff" d="m423,234.89l-3.07,-2.12a29,29 0 0 1 -10,-12.52l-2.56,-6l-4.07,0l-2.55,6a29,29 0 0 1 -10,12.52l-3.07,2.12a6.87,6.87 0 0 0 -2.77,5.66l40.83,0a6.87,6.87 0 0 0 -2.74,-5.66zm-16.51,3.16l-17.56,0c0,-1.89 3,-3.63 4.19,-4.59l2.12,-1.71a23.24,23.24 0 0 0 6.92,-10.13l1.77,-4.82l2.81,0l1.77,4.82a23.24,23.24 0 0 0 6.92,10.13l2.12,1.71c1.19,1 4.13,2.7 4.13,4.59l-15.19,0z"/>
   <path id="svg_24" stroke-linejoin="round" stroke-linecap="round" stroke="#263238" fill="none" d="m405.31,214.19l0,-4.38s2.5,-1.88 2.5,-4.59s-2.08,-3.75 -4.38,-2.92"/>
   <path id="svg_25" stroke-linejoin="round" stroke-linecap="round" stroke="#263238" fill="#6b6b6b" d="m393.65,228.28s4.65,5.36 10.49,5.45c6.21,0.1 13.5,-5.33 13.5,-5.33a30.35,30.35 0 0 0 5.4,3.73c3.25,1.77 5.39,4.37 7.09,8.86c1.9,5 6.09,18.64 6.09,18.64l-12.07,0.59l1.65,27.38l-40.16,0l2.72,-27.9l-11.72,0s3.88,-18.41 5.65,-22s11.36,-9.42 11.36,-9.42z"/>
   <line id="svg_26" stroke-linejoin="round" stroke="#263238" fill="none" y2="245.07" x2="388.97" y1="259.7" x1="388.36"/>
   <line id="svg_27" stroke-linejoin="round" stroke="#263238" fill="none" y2="246" x2="423.2" y1="260.22" x1="424.15"/>
   <polygon id="svg_28" stroke-linejoin="round" stroke="#263238" fill="#fff" points="388.42999267578125,220.54998779296875 399.30999755859375,221.07000732421875 399.30999755859375,267.6700134277344 386.3900146484375,267.6700134277344 388.42999267578125,220.54998779296875 "/>
   <path id="svg_29" stroke-linejoin="round" stroke="#263238" fill="#fff" d="m412,233.93l-3.07,-2.12a28.94,28.94 0 0 1 -10,-12.51l-2.56,-6l-4.06,0l-2.56,6a29,29 0 0 1 -10,12.51l-3.06,2.12a6.87,6.87 0 0 0 -2.77,5.67l40.82,0a6.87,6.87 0 0 0 -2.74,-5.67zm-16.5,3.16l-17.5,0c0,-1.88 3,-3.62 4.18,-4.58l2.13,-1.72a23.11,23.11 0 0 0 6.91,-10.12l1.77,-4.83l2.81,0l1.77,4.83a23.21,23.21 0 0 0 6.92,10.12l2.12,1.72c1.19,1 4.13,2.7 4.13,4.58l-15.24,0z"/>
   <path id="svg_30" stroke-linejoin="round" stroke-linecap="round" stroke="#263238" fill="none" d="m394.32,213.23l0,-4.38s2.51,-1.87 2.51,-4.58s-2.09,-3.76 -4.38,-2.92"/>
   <path id="svg_31" stroke-linejoin="round" stroke="#263238" fill="#fff" d="m388.43,220.55l4.73,41.58l5.78,-42.83s9.87,10.1 13.12,11.88s6.2,4.13 7.08,8.85s5.61,52 5.61,52l-10.92,0.59l1,26.72l-44.11,0l2.65,-27.9l-10.37,0s6.5,-51.08 8.27,-54.62s17.16,-16.27 17.16,-16.27z"/>
   <path id="svg_32" stroke-linejoin="round" stroke="#263238" fill="#fff" d="m388.43,220.55l5.81,44.35l-1.39,1.84l-12.92,-38.29s4.07,-6.58 8.5,-7.9z"/>
   <path id="svg_33" stroke-linejoin="round" stroke="#263238" fill="#fff" d="m398.94,219.3l-7.94,58.52l18,-49.82s-10.12,-9.69 -10.06,-8.7z"/>
   <path id="svg_34" stroke-linejoin="round" stroke="#263238" fill="#fff" d="m371.31,236.79s-8.45,41 -10.29,50.71s-2.77,25.38 -2.77,25.38l16.15,0.46l4.6,-69.21"/>
   <path id="svg_35" stroke-linejoin="round" stroke="#263238" fill="#fff" d="m418.09,236.79s8.44,41 10.29,50.71s2.77,25.38 2.77,25.38l-16.15,0.46l-4.61,-69.21"/>
   <line id="svg_36" stroke-linejoin="round" stroke="#263238" fill="#fff" y2="319.8" x2="391.01" y1="277.82" x1="391.01"/>
   <path id="svg_37" stroke-linejoin="round" stroke="#263238" fill="#fff" d="m394.79,234.89l-3.07,-2.12a29,29 0 0 1 -10,-12.52l-2.56,-6l-4.06,0l-2.55,6a29,29 0 0 1 -10,12.52l-3.07,2.12a6.87,6.87 0 0 0 -2.77,5.66l40.82,0a6.87,6.87 0 0 0 -2.74,-5.66zm-16.51,3.16l-17.54,0c0,-1.89 3,-3.63 4.19,-4.59l2.12,-1.71a23.24,23.24 0 0 0 6.95,-10.13l1.77,-4.82l2.81,0l1.77,4.82a23.16,23.16 0 0 0 6.92,10.13l2.12,1.71c1.19,1 4.13,2.7 4.13,4.59l-15.24,0z"/>
   <path id="svg_38" stroke-linejoin="round" stroke-linecap="round" stroke="#263238" fill="none" d="m377.12,214.19l0,-4.38s2.5,-1.88 2.5,-4.59s-2.08,-3.75 -4.38,-2.92"/>
   <path id="svg_39" stroke-linejoin="round" stroke="#263238" fill="#263238" d="m371.23,221.5l4.77,13.58l5.78,-14.83s9.87,10.11 13.12,11.88s6.2,4.14 7.09,8.86s5.61,52 5.61,52l-10.93,0.59l1,26.72l-44.1,0l2.66,-27.9l-10.39,0s6.49,-51.08 8.26,-54.63s17.13,-16.27 17.13,-16.27z"/>
   <polygon id="svg_40" stroke-linejoin="round" stroke="#263238" fill="#fff" points="366.79998779296875,224.75 369.4599914550781,239.22000122070312 375.07000732421875,229.76998901367188 371.5199890136719,219.73001098632812 366.79998779296875,224.75 "/>
   <polygon id="svg_41" stroke-linejoin="round" stroke="#263238" fill="#fff" points="381.7300109863281,220.25 376.8399963378906,230.05999755859375 381.8599853515625,239.80999755859375 385.989990234375,223.57000732421875 381.7300109863281,220.25 "/>
   <line id="svg_42" stroke-linejoin="round" stroke="#263238" fill="none" y2="248.67" x2="394.26" y1="293.55" x1="396.62"/>
   <line id="svg_43" stroke-linejoin="round" stroke="#263238" fill="none" y2="248.67" x2="360.3" y1="292.37" x1="356.17"/>
   <path id="svg_44" stroke-linejoin="round" stroke="#263238" fill="#fff" d="m378.79,234.89l-3.07,-2.12a29,29 0 0 1 -10,-12.52l-2.56,-6l-4.06,0l-2.55,6a29,29 0 0 1 -10,12.52l-3.07,2.12a6.87,6.87 0 0 0 -2.77,5.66l40.82,0a6.87,6.87 0 0 0 -2.74,-5.66zm-16.51,3.16l-17.54,0c0,-1.89 3,-3.63 4.19,-4.59l2.12,-1.71a23.24,23.24 0 0 0 6.95,-10.13l1.77,-4.82l2.81,0l1.77,4.82a23.16,23.16 0 0 0 6.92,10.13l2.12,1.71c1.19,1 4.13,2.7 4.13,4.59l-15.24,0z"/>
   <path id="svg_45" stroke-linejoin="round" stroke-linecap="round" stroke="#263238" fill="none" d="m361.12,214.19l0,-4.38s2.5,-1.88 2.5,-4.59s-2.08,-3.75 -4.38,-2.92"/>
   <path id="svg_46" stroke-linejoin="round" stroke-linecap="round" stroke="#263238" fill="#6b6b6b" d="m355.23,221.5l4.77,13.58l5.78,-14.83s9.87,10.11 13.12,11.88s6.2,4.14 7.09,8.86s5.61,52 5.61,52l-10.93,0.59l1,26.72l-44.1,0l2.66,-27.9l-10.39,0s6.49,-51.08 8.26,-54.63s17.13,-16.27 17.13,-16.27z"/>
   <polygon id="svg_47" stroke-linejoin="round" stroke="#263238" fill="#fff" points="350.79998779296875,224.75 353.4599914550781,239.22000122070312 359.07000732421875,229.76998901367188 355.5199890136719,219.73001098632812 350.79998779296875,224.75 "/>
   <polygon id="svg_48" stroke-linejoin="round" stroke="#263238" fill="#fff" points="365.7300109863281,220.25 360.8399963378906,230.05999755859375 365.8599853515625,239.80999755859375 369.989990234375,223.57000732421875 365.7300109863281,220.25 "/>
   <line id="svg_49" stroke-linejoin="round" stroke="#263238" fill="none" y2="248.67" x2="378.26" y1="293.55" x1="380.62"/>
   <line id="svg_50" stroke-linejoin="round" stroke="#263238" fill="none" y2="248.67" x2="344.3" y1="292.37" x1="340.17"/>
   <path id="svg_51" stroke-linejoin="round" stroke="#263238" fill="#fff" d="m364,234.89l-3,-2.12a29,29 0 0 1 -10,-12.52l-2.56,-6l-4.06,0l-2.55,6a29,29 0 0 1 -10,12.52l-3.07,2.12a6.85,6.85 0 0 0 -2.77,5.66l40.81,0a6.87,6.87 0 0 0 -2.8,-5.66zm-16.51,3.16l-17.49,0c0,-1.89 3,-3.63 4.19,-4.59l2.12,-1.71a23.24,23.24 0 0 0 6.92,-10.13l1.77,-4.82l2.81,0l1.77,4.82a23.14,23.14 0 0 0 6.91,10.13l2.13,1.71c1.19,1 4.13,2.7 4.13,4.59l-15.26,0z"/>
   <path id="svg_52" stroke-linejoin="round" stroke-linecap="round" stroke="#263238" fill="none" d="m346.37,214.19l0,-4.38s2.5,-1.88 2.5,-4.59s-2.08,-3.75 -4.38,-2.92"/>
   <path id="svg_53" stroke-linejoin="round" stroke-linecap="round" stroke="#263238" fill="#a1a1a1" d="m334.71,228.28s4.65,5.36 10.49,5.45c6.21,0.1 13.5,-5.33 13.5,-5.33a30.35,30.35 0 0 0 5.4,3.73c3.25,1.77 5.38,4.37 7.09,8.86c1.9,5 6.09,18.64 6.09,18.64l-12.07,0.59l1.65,27.38l-40.16,0l2.72,-27.9l-11.72,0s3.88,-18.41 5.65,-22s11.36,-9.42 11.36,-9.42z"/>
   <line id="svg_54" stroke-linejoin="round" stroke="#263238" fill="none" y2="245.07" x2="330.03" y1="259.7" x1="329.42"/>
   <line id="svg_55" stroke-linejoin="round" stroke="#263238" fill="none" y2="246" x2="364.26" y1="260.22" x1="365.21"/>
   <path id="svg_56" stroke-linejoin="round" stroke="#263238" fill="#fff" d="m349.23,234.89l-3.06,-2.12a29,29 0 0 1 -10,-12.52l-2.56,-6l-4.06,0l-2.56,6a28.92,28.92 0 0 1 -10,12.52l-2.99,2.12a6.85,6.85 0 0 0 -2.77,5.66l40.77,0a6.85,6.85 0 0 0 -2.77,-5.66zm-16.5,3.16l-17.54,0c0,-1.89 3,-3.63 4.18,-4.59l2.13,-1.71a23.14,23.14 0 0 0 6.91,-10.13l1.77,-4.82l2.82,0l1.77,4.82a23.14,23.14 0 0 0 6.91,10.13l2.13,1.71c1.18,1 4.13,2.7 4.13,4.59l-15.21,0z"/>
   <path id="svg_57" stroke-linejoin="round" stroke-linecap="round" stroke="#263238" fill="none" d="m331.57,214.19l0,-4.38s2.5,-1.88 2.5,-4.59s-2.09,-3.75 -4.38,-2.92"/>
   <path id="svg_58" stroke-linejoin="round" stroke="#263238" fill="#fff" d="m319.91,228.28s4.65,5.36 10.49,5.45c6.21,0.1 13.5,-5.33 13.5,-5.33a30.35,30.35 0 0 0 5.4,3.73c3.25,1.77 5.38,4.37 7.08,8.86c1.9,5 6.1,18.64 6.1,18.64l-12.08,0.59l1.66,27.38l-40.16,0l2.72,-27.9l-11.73,0s3.89,-18.41 5.66,-22s11.36,-9.42 11.36,-9.42z"/>
   <line id="svg_59" stroke-linejoin="round" stroke="#263238" fill="none" y2="245.07" x2="315.23" y1="259.7" x1="314.62"/>
   <line id="svg_60" stroke-linejoin="round" stroke="#263238" fill="none" y2="246" x2="349.46" y1="260.22" x1="350.4"/>
   <path id="svg_61" stroke-width="4px" stroke-linejoin="round" stroke="#263238" fill="none" d="m306,427.53l0,-215.64a6.36,6.36 0 0 1 6.36,-6.36l126.15,0a6.36,6.36 0 0 1 6.36,6.36l0,216.66"/>
   <path id="svg_62" stroke-linejoin="round" stroke="#263238" fill="#fff" d="m268.29,234.89l-3.07,-2.12a29,29 0 0 1 -10,-12.52l-2.55,-6l-4.06,0l-2.56,6a29,29 0 0 1 -10,12.52l-3.05,2.12a6.87,6.87 0 0 0 -2.76,5.66l40.82,0a6.87,6.87 0 0 0 -2.77,-5.66zm-16.5,3.16l-17.55,0c0,-1.89 3,-3.63 4.19,-4.59l2.12,-1.71a23.16,23.16 0 0 0 6.92,-10.13l1.77,-4.82l2.81,0l1.77,4.82a23.24,23.24 0 0 0 6.92,10.13l2.12,1.71c1.19,1 4.13,2.7 4.13,4.59l-15.2,0z"/>
   <path id="svg_63" stroke-linejoin="round" stroke-linecap="round" stroke="#263238" fill="none" d="m250.62,214.19l0,-4.38s2.5,-1.88 2.5,-4.59s-2.08,-3.75 -4.37,-2.92"/>
   <path id="svg_64" stroke-linejoin="round" stroke="#263238" fill="#fff" d="m239,228.28s4.65,5.36 10.5,5.45c6.2,0.1 13.49,-5.33 13.49,-5.33a30.82,30.82 0 0 0 5.4,3.73c3.25,1.77 5.39,4.37 7.09,8.86c1.9,5 6.09,18.64 6.09,18.64l-12.07,0.59l1.65,27.38l-40.15,0l2.72,-27.9l-11.72,0s3.88,-18.41 5.65,-22s11.35,-9.42 11.35,-9.42z"/>
   <line id="svg_65" stroke-linejoin="round" stroke="#263238" fill="none" y2="245.07" x2="234.29" y1="259.7" x1="233.67"/>
   <line id="svg_66" stroke-linejoin="round" stroke="#263238" fill="none" y2="246" x2="268.51" y1="260.22" x1="269.46"/>
   <path id="svg_67" stroke-linejoin="round" stroke="#263238" fill="#fff" d="m262,234.89l-3,-2.12a29,29 0 0 1 -10,-12.52l-2.56,-6l-4.06,0l-2.55,6a29,29 0 0 1 -10,12.52l-3.07,2.12a6.87,6.87 0 0 0 -2.77,5.66l40.81,0a6.87,6.87 0 0 0 -2.8,-5.66zm-16.51,3.16l-17.49,0c0,-1.89 3,-3.63 4.19,-4.59l2.12,-1.71a23.24,23.24 0 0 0 6.92,-10.13l1.77,-4.82l2.81,0l1.77,4.82a23.16,23.16 0 0 0 6.92,10.13l2.12,1.71c1.19,1 4.13,2.7 4.13,4.59l-15.26,0z"/>
   <path id="svg_68" stroke-linejoin="round" stroke-linecap="round" stroke="#263238" fill="none" d="m244.37,214.19l0,-4.38s2.5,-1.88 2.5,-4.59s-2.08,-3.75 -4.38,-2.92"/>
   <path id="svg_69" stroke-linejoin="round" stroke-linecap="round" stroke="#263238" fill="#6b6b6b" d="m232.71,228.28s4.65,5.36 10.49,5.45c6.21,0.1 13.5,-5.33 13.5,-5.33a30.35,30.35 0 0 0 5.4,3.73c3.25,1.77 5.39,4.37 7.09,8.86c1.9,5 6.09,18.64 6.09,18.64l-12.07,0.59l1.65,27.38l-40.16,0l2.72,-27.9l-11.72,0s3.88,-18.41 5.65,-22s11.36,-9.42 11.36,-9.42z"/>
   <line id="svg_70" stroke-linejoin="round" stroke="#263238" fill="none" y2="245.07" x2="228.03" y1="259.7" x1="227.42"/>
   <line id="svg_71" stroke-linejoin="round" stroke="#263238" fill="none" y2="246" x2="262.26" y1="260.22" x1="263.21"/>
   <polygon id="svg_72" stroke-linejoin="round" stroke="#263238" fill="#fff" points="227.49000549316406,220.54998779296875 238.3699951171875,221.07000732421875 238.3699951171875,267.6700134277344 225.4499969482422,267.6700134277344 227.49000549316406,220.54998779296875 "/>
   <path id="svg_73" stroke-linejoin="round" stroke="#263238" fill="#fff" d="m251.05,233.93l-3.05,-2.12a29,29 0 0 1 -10,-12.51l-2.55,-6l-4.06,0l-2.56,6a29,29 0 0 1 -10,12.51l-3.07,2.12a6.88,6.88 0 0 0 -2.76,5.67l40.82,0a6.87,6.87 0 0 0 -2.77,-5.67zm-16.5,3.16l-17.55,0c0,-1.88 3,-3.62 4.19,-4.58l2.13,-1.72a23.11,23.11 0 0 0 6.91,-10.12l1.77,-4.83l2.81,0l1.77,4.83a23.21,23.21 0 0 0 6.92,10.12l2.12,1.72c1.19,1 4.13,2.7 4.13,4.58l-15.2,0z"/>
   <path id="svg_74" stroke-linejoin="round" stroke-linecap="round" stroke="#263238" fill="none" d="m233.38,213.23l0,-4.38s2.51,-1.87 2.51,-4.58s-2.09,-3.76 -4.38,-2.92"/>
   <path id="svg_75" stroke-linejoin="round" stroke="#263238" fill="#fff" d="m227.49,220.55l4.73,41.58l5.78,-42.83s9.88,10.1 13.13,11.88s6.2,4.13 7.08,8.85s5.61,52 5.61,52l-10.92,0.59l1,26.72l-44.12,0l2.65,-27.9l-10.33,0s6.49,-51.08 8.27,-54.62s17.12,-16.27 17.12,-16.27z"/>
   <path id="svg_76" stroke-linejoin="round" stroke="#263238" fill="#fff" d="m227.49,220.55l5.81,44.35l-1.39,1.84l-12.91,-38.29s4.07,-6.58 8.49,-7.9z"/>
   <path id="svg_77" stroke-linejoin="round" stroke="#263238" fill="#fff" d="m238,219.3l-7.92,58.52l18,-49.83s-10.14,-9.68 -10.08,-8.69z"/>
   <path id="svg_78" stroke-linejoin="round" stroke="#263238" fill="#fff" d="m210.37,236.79s-8.45,41 -10.29,50.71s-2.77,25.38 -2.77,25.38l16.15,0.46l4.61,-69.21"/>
   <path id="svg_79" stroke-linejoin="round" stroke="#263238" fill="#fff" d="m257.15,236.79s8.44,41 10.29,50.71s2.77,25.38 2.77,25.38l-16.15,0.46l-4.61,-69.21"/>
   <line id="svg_80" stroke-linejoin="round" stroke="#263238" fill="#fff" y2="319.8" x2="230.07" y1="277.82" x1="230.07"/>
   <path id="svg_81" stroke-linejoin="round" stroke="#263238" fill="#fff" d="m233.85,234.89l-3.07,-2.12a29,29 0 0 1 -10,-12.52l-2.56,-6l-4.06,0l-2.55,6a29,29 0 0 1 -10,12.52l-3.07,2.12a6.87,6.87 0 0 0 -2.77,5.66l40.82,0a6.87,6.87 0 0 0 -2.74,-5.66zm-16.51,3.16l-17.54,0c0,-1.89 3,-3.63 4.19,-4.59l2.12,-1.71a23.24,23.24 0 0 0 6.89,-10.13l1.77,-4.82l2.81,0l1.77,4.82a23.08,23.08 0 0 0 6.92,10.13l2.12,1.71c1.19,1 4.13,2.7 4.13,4.59l-15.18,0z"/>
   <path id="svg_82" stroke-linejoin="round" stroke-linecap="round" stroke="#263238" fill="none" d="m216.18,214.19l0,-4.38s2.5,-1.88 2.5,-4.59s-2.08,-3.75 -4.38,-2.92"/>
   <path id="svg_83" stroke-linejoin="round" stroke="#263238" fill="#263238" d="m210.29,221.5l4.71,13.58l5.78,-14.83s9.87,10.11 13.12,11.88s6.2,4.14 7.09,8.86s5.61,52 5.61,52l-10.93,0.59l1,26.72l-44.1,0l2.66,-27.9l-10.34,0s6.5,-51.08 8.27,-54.63s17.13,-16.27 17.13,-16.27z"/>
   <polygon id="svg_84" stroke-linejoin="round" stroke="#263238" fill="#fff" points="205.86000061035156,224.75 208.52000427246094,239.22000122070312 214.1300048828125,229.76998901367188 210.5800018310547,219.73001098632812 205.86000061035156,224.75 "/>
   <polygon id="svg_85" stroke-linejoin="round" stroke="#263238" fill="#fff" points="220.7899932861328,220.25 215.89999389648438,230.05999755859375 220.9199981689453,239.80999755859375 225.0500030517578,223.57000732421875 220.7899932861328,220.25 "/>
   <line id="svg_86" stroke-linejoin="round" stroke="#263238" fill="none" y2="248.67" x2="233.32" y1="293.55" x1="235.68"/>
   <line id="svg_87" stroke-linejoin="round" stroke="#263238" fill="none" y2="248.67" x2="199.36" y1="292.37" x1="195.23"/>
   <path id="svg_88" stroke-linejoin="round" stroke="#263238" fill="#fff" d="m217.85,234.89l-3.07,-2.12a29,29 0 0 1 -10,-12.52l-2.56,-6l-4.06,0l-2.55,6a29,29 0 0 1 -10,12.52l-3.07,2.12a6.87,6.87 0 0 0 -2.77,5.66l40.82,0a6.87,6.87 0 0 0 -2.74,-5.66zm-16.51,3.16l-17.54,0c0,-1.89 3,-3.63 4.19,-4.59l2.12,-1.71a23.24,23.24 0 0 0 6.89,-10.13l1.77,-4.82l2.81,0l1.77,4.82a23.08,23.08 0 0 0 6.92,10.13l2.12,1.71c1.19,1 4.13,2.7 4.13,4.59l-15.18,0z"/>
   <path id="svg_89" stroke-linejoin="round" stroke-linecap="round" stroke="#263238" fill="none" d="m200.18,214.19l0,-4.38s2.5,-1.88 2.5,-4.59s-2.08,-3.75 -4.38,-2.92"/>
   <path id="svg_90" stroke-linejoin="round" stroke-linecap="round" stroke="#263238" fill="#6b6b6b" d="m194.29,221.5l4.71,13.58l5.78,-14.83s9.87,10.11 13.12,11.88s6.2,4.14 7.09,8.86s5.61,52 5.61,52l-10.93,0.59l1,26.72l-44.1,0l2.66,-27.9l-10.34,0s6.5,-51.08 8.27,-54.63s17.13,-16.27 17.13,-16.27z"/>
   <polygon id="svg_91" stroke-linejoin="round" stroke="#263238" fill="#fff" points="189.86000061035156,224.75 192.52000427246094,239.22000122070312 198.1300048828125,229.76998901367188 194.5800018310547,219.73001098632812 189.86000061035156,224.75 "/>
   <polygon id="svg_92" stroke-linejoin="round" stroke="#263238" fill="#fff" points="204.7899932861328,220.25 199.89999389648438,230.05999755859375 204.9199981689453,239.80999755859375 209.0500030517578,223.57000732421875 204.7899932861328,220.25 "/>
   <line id="svg_93" stroke-linejoin="round" stroke="#263238" fill="none" y2="248.67" x2="217.32" y1="293.55" x1="219.68"/>
   <line id="svg_94" stroke-linejoin="round" stroke="#263238" fill="none" y2="248.67" x2="183.36" y1="292.37" x1="179.23"/>
   <path id="svg_95" stroke-linejoin="round" stroke="#263238" fill="#fff" d="m203.1,234.89l-3.1,-2.12a29,29 0 0 1 -10,-12.52l-2.56,-6l-4.06,0l-2.55,6a29,29 0 0 1 -10,12.52l-3.07,2.12a6.85,6.85 0 0 0 -2.77,5.66l40.82,0a6.87,6.87 0 0 0 -2.71,-5.66zm-16.51,3.16l-17.54,0c0,-1.89 3,-3.63 4.19,-4.59l2.12,-1.71a23.24,23.24 0 0 0 6.92,-10.13l1.77,-4.82l2.81,0l1.77,4.82a23.14,23.14 0 0 0 6.91,10.13l2.13,1.71c1.19,1 4.13,2.7 4.13,4.59l-15.21,0z"/>
   <path id="svg_96" stroke-linejoin="round" stroke-linecap="round" stroke="#263238" fill="none" d="m185.43,214.19l0,-4.38s2.5,-1.88 2.5,-4.59s-2.08,-3.75 -4.38,-2.92"/>
   <path id="svg_97" stroke-linejoin="round" stroke-linecap="round" stroke="#263238" fill="#a1a1a1" d="m173.77,228.28s4.65,5.36 10.49,5.45c6.21,0.1 13.5,-5.33 13.5,-5.33a30.35,30.35 0 0 0 5.4,3.73c3.25,1.77 5.38,4.37 7.09,8.86c1.9,5 6.09,18.64 6.09,18.64l-12.07,0.59l1.65,27.38l-40.16,0l2.72,-27.9l-11.72,0s3.88,-18.41 5.65,-22s11.36,-9.42 11.36,-9.42z"/>
   <line id="svg_98" stroke-linejoin="round" stroke="#263238" fill="none" y2="245.07" x2="169.09" y1="259.7" x1="168.48"/>
   <line id="svg_99" stroke-linejoin="round" stroke="#263238" fill="none" y2="246" x2="203.32" y1="260.22" x1="204.27"/>
   <path id="svg_100" stroke-linejoin="round" stroke="#263238" fill="#fff" d="m188.29,234.89l-3.07,-2.12a29,29 0 0 1 -10,-12.52l-2.56,-6l-4.06,0l-2.56,6a29,29 0 0 1 -10,12.52l-3.04,2.12a6.85,6.85 0 0 0 -2.77,5.66l40.82,0a6.85,6.85 0 0 0 -2.76,-5.66zm-16.5,3.16l-17.54,0c0,-1.89 3,-3.63 4.18,-4.59l2.13,-1.71a23.14,23.14 0 0 0 6.91,-10.13l1.77,-4.82l2.82,0l1.77,4.82a23.14,23.14 0 0 0 6.91,10.13l2.13,1.71c1.18,1 4.13,2.7 4.13,4.59l-15.21,0z"/>
   <path id="svg_101" stroke-linejoin="round" stroke-linecap="round" stroke="#263238" fill="none" d="m170.63,214.19l0,-4.38s2.5,-1.88 2.5,-4.59s-2.09,-3.75 -4.38,-2.92"/>
   <path id="svg_102" stroke-linejoin="round" stroke="#263238" fill="#fff" d="m159,228.28s4.65,5.36 10.49,5.45c6.21,0.1 13.5,-5.33 13.5,-5.33a30.35,30.35 0 0 0 5.4,3.73c3.25,1.77 5.38,4.37 7.08,8.86c1.9,5 6.1,18.64 6.1,18.64l-12.08,0.59l1.66,27.38l-40.15,0l2.72,-27.9l-11.72,0s3.89,-18.41 5.66,-22s11.34,-9.42 11.34,-9.42z"/>
   <line id="svg_103" stroke-linejoin="round" stroke="#263238" fill="none" y2="245.07" x2="154.29" y1="259.7" x1="153.68"/>
   <line id="svg_104" stroke-linejoin="round" stroke="#263238" fill="none" y2="246" x2="188.52" y1="260.22" x1="189.46"/>
   <path id="svg_105" stroke-width="4px" stroke-linejoin="round" stroke="#263238" fill="none" d="m145,427.53l0,-215.64a6.36,6.36 0 0 1 6.36,-6.36l126.21,0a6.36,6.36 0 0 1 6.36,6.36l0,216.66"/>
  </g>
  <g id="freepik--character-2--inject-66">
   <path id="svg_106" stroke-linejoin="round" stroke-linecap="round" stroke="#263238" fill="#fff" d="m221.92,208.39s-7.5,20.75 -7.5,25.25s-0.25,37 0,42.75s-0.25,7.25 0,10.75s5.25,10.75 5.75,11.5s5,0.25 6,-0.75s-0.25,-2.75 -0.25,-2.75s1.75,-0.75 2,-2a2.75,2.75 0 0 0 -0.75,-2.25s2,-2 0.75,-3.5a3.5,3.5 0 0 0 -3,-1.25s2,-4.75 1.5,-7.75s-1.25,-6 -1.25,-6s10.25,-53.75 10.75,-55.5l0.5,-1.75l0,-2.5l-14.5,-4.25z"/>
   <path id="svg_107" stroke-linejoin="round" stroke-linecap="round" stroke="#263238" fill="#fff" d="m218.67,279.39s-1.75,8.25 -1,9.75s4.25,6.5 6,6.75s2,-1.5 1,-3.5s-1.75,-4 -1.75,-4a9.6,9.6 0 0 0 1.25,-8.75"/>
   <polygon id="svg_108" stroke-linejoin="round" stroke-linecap="round" stroke="#263238" fill="#fff" points="275.6700134277344,344.6400146484375 288.4200134277344,412.6400146484375 303.4200134277344,412.6400146484375 305.6700134277344,343.3900146484375 275.6700134277344,344.6400146484375 "/>
   <path id="svg_109" stroke-linejoin="round" stroke-linecap="round" stroke="#263238" fill="#407BFF" d="m303.42,412.64s0.75,-6.25 -3.75,-8.75s-11,0 -11,1.75a45.11,45.11 0 0 1 -0.5,5s-3.5,6.25 -5,9.75s1.75,6.5 3.5,7s19,0 19,0s3.75,-1.5 3,-5a34.18,34.18 0 0 0 -1.25,-4.75l-4,-5z"/>
   <path id="svg_110" stroke-linejoin="round" stroke-linecap="round" stroke="#263238" fill="#fff" d="m308.4,424.89c-1.76,0.25 -6.48,0.5 -6.48,0.5s-4.5,-4.75 -6,-4.5s-5.5,5 -5.5,5l-6,0a5.5,5.5 0 0 0 2.26,1.5c1.75,0.5 19,0 19,0a5.74,5.74 0 0 0 2.72,-2.5z"/>
   <rect id="svg_111" stroke-linejoin="round" stroke-linecap="round" stroke="#263238" fill="#fff" height="5.25" width="13" y="410.39" x="289.17"/>
   <path id="svg_112" stroke-linejoin="round" stroke-linecap="round" stroke="#263238" fill="#fff" d="m237.92,342.14s2.5,30.25 5,43.25s3.5,19.5 3.5,19.5s-2.75,4.25 -3.5,5.25a10,10 0 0 1 -1.75,1.75s-11.75,6.5 -14.75,8.25s-4.5,3.75 -3.5,5.75s4.25,2 5.5,2l33.5,0a10.61,10.61 0 0 0 2.25,-6.75c-0.25,-3.75 -1,-5 -1,-5s1.75,-3 1.25,-5.25a5.2,5.2 0 0 0 -1.5,-3s2.5,-51.75 2.5,-56.75l0,-11.75l-27.75,0l0.25,2.75z"/>
   <path id="svg_113" stroke-linejoin="round" stroke-linecap="round" stroke="#263238" fill="#407BFF" d="m264.17,421.14c-0.25,-3.75 -1,-5 -1,-5s1.75,-3 1.25,-5.25a6.66,6.66 0 0 0 -1,-2.48c-4,2.29 -12.46,2.73 -12.46,2.73a11.65,11.65 0 0 0 -0.5,-5.5c-1,-3.5 -4,-0.75 -4,-0.75s-2.75,4.25 -3.5,5.25a10,10 0 0 1 -1.75,1.75s-11.75,6.5 -14.75,8.25s-4.5,3.75 -3.5,5.75s4.25,2 5.5,2l33.5,0a10.61,10.61 0 0 0 2.21,-6.75z"/>
   <path id="svg_114" stroke-linejoin="round" stroke-linecap="round" stroke="#263238" fill="#fff" d="m243.92,410.14a8.06,8.06 0 0 1 3.75,2.5a27.12,27.12 0 0 1 2,3.25l-6.75,3s-3,-4 -4.75,-4.75c0,0 3.75,-4.5 5.75,-4z"/>
   <path id="svg_115" stroke-linejoin="round" stroke-linecap="round" stroke="#263238" fill="#fff" d="m258.17,423.89c-3.25,1 -27.25,1.25 -28.75,1s-1,-2.5 -1.75,-4c-0.47,-0.93 -2.29,0.07 -3.6,1c-1.35,1.29 -1.84,2.66 -1.15,4c1,2 4.25,2 5.5,2l33.5,0a10.61,10.61 0 0 0 2.25,-6.75c-2,-0.25 -2.75,1.75 -6,2.75z"/>
   <path id="svg_116" stroke-linejoin="round" stroke-linecap="round" stroke="#263238" fill="#fff" d="m224.92,271.39s-2,25.25 -2,32.5s-0.5,37.75 -0.5,37.75a81.91,81.91 0 0 0 19.75,4c9.75,0.5 22.25,-1.75 22.25,-1.75a37.58,37.58 0 0 0 14.25,5c7.5,0.75 24,-0.75 26,-1.5s7.5,-2.75 7.5,-2.75l0.75,-69.5l-51.25,-15.25l-36.75,11.5z"/>
   <line id="svg_117" stroke-linejoin="round" stroke-linecap="round" stroke="#263238" fill="#fff" y2="300.89" x2="264.17" y1="343.89" x1="264.42"/>
   <path id="svg_118" stroke-linejoin="round" stroke-linecap="round" stroke="#263238" fill="#263238" d="m267.17,159.39s-10.75,3.5 -20.5,7.75s-14.25,6.75 -19.75,18.5s-10.75,21.25 -10.75,21.25l16.5,9.75l-10.5,55l23.75,19.5l8.25,-6.75l11,12s16.5,-6.5 22,-8.5s26.75,-10.75 26.75,-10.75l4,-66.5l-0.25,-31s-3.75,-5 -12,-11s-15,-9.75 -22.5,-11s-16,1.75 -16,1.75z"/>
   <path id="svg_119" stroke-linejoin="round" stroke-linecap="round" stroke="#fff" fill="none" d="m267.92,175.64s-13.5,85 -13.5,104.75"/>
   <line id="svg_120" stroke-linejoin="round" stroke-linecap="round" stroke="#fff" fill="none" y2="181.64" x2="241.42" y1="216.64" x1="232.67"/>
   <path id="svg_121" stroke-linejoin="round" stroke-linecap="round" stroke="#263238" fill="#fff" d="m264.38,157.31s-4.7,5.65 -6,10.29s-4.28,5.85 -1.07,6.05s14.77,-1.41 17.12,-0.2s10.27,9.28 12.2,8.27s2.35,-5 3.63,-8.88s-0.85,-11.5 -5.77,-15.33s-13.69,-5.05 -20.11,-0.2z"/>
   <path id="svg_122" stroke-linejoin="round" stroke-linecap="round" stroke="#263238" fill="#fff" d="m268.24,158.05s-1,16.12 1,16.12s14.16,-14.35 14.16,-14.35l-15.16,-1.77z"/>
   <path id="svg_123" stroke-linejoin="round" stroke-linecap="round" stroke="#263238" fill="#263238" d="m268.24,158.05s-0.13,2.19 -0.2,4.95a14.92,14.92 0 0 0 9.66,2.72l0.55,-0.06c2.79,-3.09 5.13,-5.84 5.13,-5.84l-15.14,-1.77z"/>
   <path id="svg_124" stroke-linejoin="round" stroke-linecap="round" stroke="#263238" fill="#fff" d="m268,131.11s-1.18,-5.12 -4.13,-1s1.38,10.62 1.38,10.62l2.75,-9.62z"/>
   <path id="svg_125" stroke-linejoin="round" stroke-linecap="round" stroke="#6e6e6e" fill="#d4d4d4" d="m269.81,118.91s-2.86,-0.45 -2.86,3.45a31.76,31.76 0 0 0 1.14,7.78l4.36,-10.76l-1.84,-0.23"/>
   <path id="svg_126" stroke-miterlimit="10" stroke="#263238" fill="#fff" d="m270.6,116.55s-6.69,26.55 -6.49,30.29s4.33,12.58 11,12.58s14.95,-2 17.7,-5.7s8.65,-17.3 10.23,-21.63s1.77,-9.83 -1.77,-14.55s-17.31,-5.7 -22.81,-5.11a11,11 0 0 0 -7.86,4.12z"/>
   <path id="svg_127" stroke-miterlimit="10" stroke="#6e6e6e" fill="#d4d4d4" d="m269.81,118.91l30.68,-1.57s1.18,-0.39 1.77,-2.75s-7.47,-7.87 -18.49,-9.64s-18.28,1.58 -17.5,7.48s3.54,6.48 3.54,6.48z"/>
   <path id="svg_128" stroke-linejoin="round" stroke-linecap="round" stroke="#263238" fill="#fff" d="m301.67,137.79s5.51,-2 6.29,2.36s-3.14,6.3 -5.9,6.89s-4.13,-0.4 -4.13,-0.4l3.74,-8.85z"/>
   <path id="svg_129" stroke-miterlimit="10" stroke="#6e6e6e" fill="#d4d4d4" d="m302.26,117.73s-0.26,0.17 -0.64,0.45c-1.23,0.91 -3.74,3 -3.29,4.47a56.69,56.69 0 0 1 1.77,9.44c0,1.77 -5.51,15.54 -7.48,16.52a12.4,12.4 0 0 1 -3.73,1.18a18,18 0 0 0 -3.16,-7.5a7.25,7.25 0 0 0 -2.55,-1.74s-3.32,2.87 -6.09,1.57c-2.58,-1.21 -2,-5.51 -2,-5.51s-6.68,2.76 -8.85,4.72s-3.73,4.33 -3.73,9.84s7.86,13.17 16.12,12.38s14,-3.14 16.52,-8.85s7.28,-17.5 8.65,-20.45s3.15,-6.88 2.56,-10.42s-4.1,-6.1 -4.1,-6.1z"/>
   <path id="svg_130" stroke-miterlimit="10" stroke="#263238" fill="none" d="m279.64,130.32c0,0.79 -4.52,6.29 -4.52,6.29"/>
   <line id="svg_131" stroke-miterlimit="10" stroke="#263238" fill="none" y2="134.06" x2="271.19" y1="133.47" x1="275.91"/>
   <path id="svg_132" stroke-miterlimit="10" stroke="#263238" fill="none" d="m283.77,134.45s3.15,2.75 5.51,3"/>
   <path id="svg_133" stroke-miterlimit="10" stroke="#263238" fill="none" d="m273.35,124.22s2.56,-3.54 7.08,0"/>
   <path id="svg_134" stroke-miterlimit="10" stroke="#263238" fill="none" d="m286.13,126s6.69,-0.78 7.28,6.3"/>
   <path id="svg_135" fill="#263238" d="m287.64,131.48c-0.38,1 -1.14,1.68 -1.7,1.47s-0.71,-1.2 -0.33,-2.22s1.14,-1.67 1.7,-1.47s0.69,1.2 0.33,2.22z"/>
   <path id="svg_136" fill="#263238" d="m276.33,128.73c-0.37,1 -1.13,1.68 -1.69,1.47s-0.71,-1.2 -0.34,-2.22s1.14,-1.68 1.7,-1.47s0.71,1.2 0.33,2.22z"/>
   <path id="svg_137" stroke-linejoin="round" stroke-linecap="round" stroke="#263238" fill="none" d="m271.78,143.69s2.56,3.54 10.42,3.15"/>
   <path id="svg_138" stroke-linejoin="round" stroke-linecap="round" stroke="#263238" fill="#fff" d="m278.44,262.09a61.34,61.34 0 0 0 -6.85,3.81c-1.39,1.14 -5.2,3.67 -5.58,4.82s2,1.64 3.17,1.14a35.17,35.17 0 0 0 3.3,-1.91l2.54,-0.38l5.58,-6.72s-0.13,-0.85 -2.16,-0.76z"/>
   <path id="svg_139" stroke-linejoin="round" stroke-linecap="round" stroke="#263238" fill="#fff" d="m312.21,218.94l2.75,12s-5.54,2.95 -13,11.95a138.72,138.72 0 0 1 -14.5,15s-1.57,2.19 -6.57,3.44s-8.14,8.53 -9.64,10.78s-2.27,4.32 -1.27,4.57s3.23,-1.29 3.23,-1.29s-0.75,3 1.25,2.75a3.66,3.66 0 0 0 2.75,-2.23s-0.09,4.41 2.41,2.41s1.65,-1.39 1.65,-1.39s0.41,2.76 2.16,1s6.28,-5.3 6.28,-5.3s3.5,-2 4.25,-4.5a10.29,10.29 0 0 1 2.75,-4.25s21.46,-12.3 27.19,-16.75s10.1,-12.7 10.85,-13.95s-4.75,-21.5 -4.75,-21.5l-17.79,7.26z"/>
   <path id="svg_140" stroke-linejoin="round" stroke-linecap="round" stroke="#263238" fill="none" d="m273.17,275.39s4.76,-9 7.05,-10"/>
   <path id="svg_141" stroke-linejoin="round" stroke-linecap="round" stroke="#263238" fill="none" d="m277.17,275.91s3.81,-7 6.85,-9"/>
   <path id="svg_142" stroke-linejoin="round" stroke-linecap="round" stroke="#263238" fill="none" d="m281.23,276.93s2.92,-5.71 6.22,-7.36"/>
   <path id="svg_143" stroke-linejoin="round" stroke-linecap="round" stroke="#263238" fill="#263238" d="m313.67,175.64s5.75,3.25 8.25,8s13.54,30.05 13.54,30.05l-25.25,9l-5.5,-17.75"/>
   <polyline id="svg_144" stroke-linejoin="round" stroke-linecap="round" stroke="#fff" fill="none" points="300.07000732421875,198.3699951171875 307.6199951171875,222.739990234375 312.8399963378906,221 "/>
  </g>
  <g id="freepik--Table--inject-66">
   <path id="svg_145" stroke-linejoin="round" stroke-linecap="round" stroke="#263238" fill="#fff" d="m309,243.91l-34.58,0c-7.8,0 -14.13,-1.19 -14.13,2.38s1,4.37 3.9,4.37l51.17,0s4.88,0 4.88,-3.58s-7.8,-3.17 -11.24,-3.17z"/>
   <path id="svg_146" stroke-linejoin="round" stroke-linecap="round" stroke="#263238" fill="#a1a1a1" d="m309,250.26l-34.58,0c-7.8,0 -14.13,-1.19 -14.13,2.38s1,4.37 3.9,4.37l51.17,0s4.88,0 4.88,-3.58s-7.8,-3.17 -11.24,-3.17z"/>
   <path id="svg_147" stroke-linejoin="round" stroke-linecap="round" stroke="#263238" fill="#fff" d="m309,256.61l-34.58,0c-7.8,0 -14.13,-1.19 -14.13,2.38s1,4.37 3.9,4.37l51.17,0s4.88,0 4.88,-3.57s-7.8,-3.18 -11.24,-3.18z"/>
   <path id="svg_148" stroke-linejoin="round" stroke-linecap="round" stroke="#263238" fill="#a1a1a1" d="m309,263l-34.58,0c-7.8,0 -14.13,-1.19 -14.13,2.38s1,4.37 3.9,4.37l51.17,0s4.88,0 4.88,-3.57s-7.8,-3.18 -11.24,-3.18z"/>
   <path id="svg_149" stroke-linejoin="round" stroke-linecap="round" stroke="#263238" fill="#fff" d="m245.85,242.12a12.33,12.33 0 0 1 5.71,5.7a50,50 0 0 1 3,9.79s9,0 9.24,3.4s-0.81,4.75 -2.72,6.38a10.82,10.82 0 0 1 -6.79,1.91c-0.82,-0.28 -12.5,-0.55 -12.5,-0.55l0.27,-25.55s1.62,-3.26 3.79,-1.08z"/>
   <path id="svg_150" stroke-linejoin="round" stroke-linecap="round" stroke="#263238" fill="#fff" d="m219.22,238s-4.08,1.36 -9.24,8.15s-1.91,20.93 0,22.56s37,-1.09 37,-1.09s2.45,-5.7 2.45,-15.76s-6.26,-14.68 -15.22,-16s-14.99,2.14 -14.99,2.14z"/>
   <ellipse id="svg_151" stroke-linejoin="round" stroke-linecap="round" stroke="#263238" fill="#fff" ry="16.31" rx="17.12" cy="234.64" cx="231.45"/>
   <ellipse id="svg_152" stroke-linejoin="round" stroke-linecap="round" stroke="#263238" fill="#fff" ry="6.66" rx="7.47" cy="244.83" cx="231.31"/>
   <ellipse id="svg_153" stroke-linejoin="round" stroke-linecap="round" stroke="#263238" fill="#263238" ry="2.04" rx="2.72" cy="247.82" cx="231.18"/>
   <ellipse id="svg_154" fill="#263238" ry="2.17" rx="1.36" cy="235.46" cx="224.38"/>
   <path id="svg_155" fill="#263238" d="m239.6,235.46c0,1.2 -0.61,2.17 -1.36,2.17s-1.36,-1 -1.36,-2.17s0.61,-2.18 1.36,-2.18s1.36,0.98 1.36,2.18z"/>
   <path id="svg_156" stroke-linejoin="round" stroke-linecap="round" stroke="#263238" fill="#fff" d="m215.46,233.79a35,35 0 0 1 5.63,-8.6a6.66,6.66 0 1 0 -6.36,8.64c0.27,0 0.49,-0.02 0.73,-0.04z"/>
   <circle id="svg_157" stroke-linejoin="round" stroke-linecap="round" stroke="#263238" fill="#fff" r="3.67" cy="227.17" cx="214.73"/>
   <path id="svg_158" stroke-linejoin="round" stroke-linecap="round" stroke="#263238" fill="#fff" d="m245.51,233.79a34.91,34.91 0 0 0 -5.64,-8.6a6.66,6.66 0 1 1 6.36,8.64c-0.23,0 -0.48,-0.02 -0.72,-0.04z"/>
   <path id="svg_159" stroke-linejoin="round" stroke-linecap="round" stroke="#263238" fill="#fff" d="m242.56,227.17a3.67,3.67 0 1 1 3.67,3.67a3.67,3.67 0 0 1 -3.67,-3.67z"/>
   <path id="svg_160" stroke-linejoin="round" stroke-linecap="round" stroke="#263238" fill="#fff" d="m230.9,259l21.2,0s4.08,-11.42 10.06,-8.16s2.17,18.49 2.17,18.49l-43.48,0"/>
   <path id="svg_161" stroke-linejoin="round" stroke-linecap="round" stroke="#263238" fill="#fff" d="m263.79,261c0,3.52 -1.22,6.38 -2.72,6.38s-2.72,-2.86 -2.72,-6.38s1.22,-6.39 2.72,-6.39s2.72,2.87 2.72,6.39z"/>
   <path id="svg_162" stroke-linejoin="round" stroke-linecap="round" stroke="#263238" fill="#fff" d="m220.85,259l21.2,0s4.07,-11.42 10,-8.16s2.18,18.49 2.18,18.49l-43.44,0"/>
   <path id="svg_163" stroke-linejoin="round" stroke-linecap="round" stroke="#263238" fill="#fff" d="m253.73,261c0,3.52 -1.21,6.38 -2.71,6.38s-2.72,-2.86 -2.72,-6.38s1.22,-6.39 2.72,-6.39s2.71,2.87 2.71,6.39z"/>
   <path id="svg_164" stroke-linejoin="round" stroke-linecap="round" stroke="#263238" fill="#fff" d="m213,246.47s-3.27,17.39 -1.09,19.56s15,3.81 17.94,2.72s4.62,-5.43 2.71,-8.7s-8.15,-6.79 -8.15,-6.79l-0.54,-2.45"/>
   <rect id="svg_165" stroke-linejoin="round" stroke-linecap="round" stroke="#263238" fill="#a1a1a1" height="16.31" width="34.52" y="252.72" x="170.02"/>
   <line id="svg_166" stroke-linejoin="round" stroke-linecap="round" stroke="#263238" fill="none" y2="259.24" x2="204.27" y1="259.24" x1="170.29"/>
   <path id="svg_167" stroke-linejoin="round" stroke-linecap="round" stroke="#263238" fill="#fff" d="m327.93,263.86s1.91,-21.47 5.71,-22s15.49,-2.17 18.21,0.55s6.25,20.93 6.25,20.93s-4.1,3.24 -14.1,3.51s-16.07,-2.99 -16.07,-2.99z"/>
   <path id="svg_168" stroke-linejoin="round" stroke-linecap="round" stroke="#263238" fill="#263238" d="m358.1,263.32s-0.83,-4.27 -2,-9l-27,0c-0.8,5 -1.21,9.51 -1.21,9.51s6,3.26 16,3s14.21,-3.51 14.21,-3.51z"/>
   <path id="svg_169" stroke-linejoin="round" stroke-linecap="round" stroke="#263238" fill="#fff" d="m363.54,258.7s-5.44,5.7 -17.67,5.7s-14.13,1.36 -22,-4.89s-6.8,-4.35 -5.17,0s6.53,8.7 18.21,9.79s26.09,-3.27 31.26,-9s3.83,-7.58 -4.63,-1.6z"/>
   <rect id="svg_170" stroke-linejoin="round" stroke-linecap="round" stroke="#263238" fill="#a1a1a1" height="133.33" width="5.33" y="291.89" x="165.67"/>
   <path id="svg_171" stroke-linejoin="round" stroke-linecap="round" stroke="#263238" fill="#263238" d="m163,417.89l10.67,0a0,0 0 0 1 0,0l0,7.66a2.34,2.34 0 0 1 -2.34,2.34l-6,0a2.34,2.34 0 0 1 -2.34,-2.34l0,-7.66a0,0 0 0 1 0.01,0z"/>
   <rect id="svg_172" stroke-linejoin="round" stroke-linecap="round" stroke="#263238" fill="#a1a1a1" height="133.33" width="5.33" y="291.89" x="370.83"/>
   <path id="svg_173" stroke-linejoin="round" stroke-linecap="round" stroke="#263238" fill="#263238" d="m368.17,417.89l10.67,0a0,0 0 0 1 0,0l0,7.66a2.34,2.34 0 0 1 -2.34,2.34l-6,0a2.34,2.34 0 0 1 -2.34,-2.34l0,-7.66a0,0 0 0 1 0.01,0z"/>
   <path id="svg_174" stroke-linejoin="round" stroke-linecap="round" stroke="#263238" fill="#407BFF" d="m380.61,268.87l-218,0s-3.36,0 -1.68,5.45s-4.61,39 -5.45,47.79s-1.26,16.77 -1.26,16.77s3.77,3.36 12.16,2.94s25.57,-4.61 34.8,-2.94s65.4,6.71 80.91,6.71s35.63,-0.42 48.63,-2.51s28.93,-3.36 34.8,-3.78s20.12,1.26 20.12,1.26s-2,-52.47 -3.35,-64.56c-0.42,-3.77 1.71,-5.87 -1.68,-7.13z"/>
   <line id="svg_175" stroke-linejoin="round" stroke-linecap="round" stroke="#263238" fill="none" y2="305.09" x2="167.72" y1="275.96" x1="171.18"/>
   <line id="svg_176" stroke-linejoin="round" stroke-linecap="round" stroke="#263238" fill="none" y2="299.54" x2="174.65" y1="279.08" x1="173.96"/>
   <line id="svg_177" stroke-linejoin="round" stroke-linecap="round" stroke="#263238" fill="none" y2="309.95" x2="175.35" y1="303.01" x1="175"/>
   <line id="svg_178" stroke-linejoin="round" stroke-linecap="round" stroke="#263238" fill="none" y2="300.58" x2="230.49" y1="274.22" x1="230.49"/>
   <line id="svg_179" stroke-linejoin="round" stroke-linecap="round" stroke="#263238" fill="none" y2="330.76" x2="232.92" y1="324.86" x1="232.88"/>
   <line id="svg_180" stroke-linejoin="round" stroke-linecap="round" stroke="#263238" fill="none" y2="318.62" x2="232.85" y1="275.61" x1="232.57"/>
   <line id="svg_181" stroke-linejoin="round" stroke-linecap="round" stroke="#263238" fill="none" y2="299.54" x2="376.17" y1="273.88" x1="375.82"/>
   <line id="svg_182" stroke-linejoin="round" stroke-linecap="round" stroke="#263238" fill="none" y2="288.1" x2="370.62" y1="274.22" x1="372.35"/>
   <line id="svg_183" stroke-linejoin="round" stroke-linecap="round" stroke="#263238" fill="none" y2="292.26" x2="380.67" y1="283.94" x1="379.98"/>
  </g>
  <g id="freepik--character-1--inject-66">
   <path id="svg_184" stroke-linejoin="round" stroke-linecap="round" stroke="#263238" fill="#fff" d="m107.12,150.65s7.41,3.29 11.12,6.59a27.85,27.85 0 0 1 5.35,6.17s-5.35,1.65 -7,3.29a35.75,35.75 0 0 0 -3.71,4.94l-8.64,-21l2.88,0.01z"/>
   <path id="svg_185" stroke-linejoin="round" stroke-linecap="round" stroke="#263238" fill="#fff" d="m114.39,143.53s-4.92,4.93 -6.16,8.13l-1.23,3.2l-16.5,-10.1l4.92,-12.32l4.69,-14s1.47,-4.68 8.62,-3.2s10.59,3.69 10.59,9.11s-4.93,19.18 -4.93,19.18z"/>
   <path id="svg_186" stroke-linejoin="round" stroke-linecap="round" stroke="#263238" fill="#263238" d="m111.48,146.75c1.5,-1.8 2.91,-3.22 2.91,-3.22s1.19,-3.33 2.4,-7.36l-5.55,-11.43l-4.77,-1.3l-1.31,5.86a28.59,28.59 0 0 0 2,10.86a22.46,22.46 0 0 0 4.32,6.59z"/>
   <path id="svg_187" stroke-linejoin="round" stroke-linecap="round" stroke="#263238" fill="#fff" d="m80.43,330a87.1,87.1 0 0 1 0,13.68c-0.57,8.27 -4,16.25 -4,23.38s1.71,34.21 0.57,40.2s-3.42,10.26 -2.28,12.54a6.41,6.41 0 0 0 4.56,3.14c1.14,0.28 35.35,0 35.35,0s0.86,-0.29 0.86,-2.28s-4.56,-4.28 -7.13,-5.42s-14.83,-3.42 -16.25,-5.7a11,11 0 0 1 -1.71,-6.27c0,-2 5.13,-32.79 6.84,-38.78s4.56,-34.78 4.56,-34.78l-21.37,0.29z"/>
   <polygon id="svg_188" stroke-linejoin="round" stroke-linecap="round" stroke="#263238" fill="#263238" points="89.0999984741211,423.4599914550781 73.87000274658203,422.04998779296875 73.87000274658203,425.4800109863281 92.12000274658203,426.3299865722656 92.12000274658203,423.4800109863281 89.0999984741211,423.4599914550781 "/>
   <path id="svg_189" stroke-linejoin="round" stroke-linecap="round" stroke="#263238" fill="#fff" d="m84.92,329.84a118.59,118.59 0 0 1 0.24,15.27c-0.49,6.16 -2.71,9.37 -2,18.24s5.67,36.46 5.67,42.12s-1.48,16.75 0.24,18s35.48,0 35.48,0l5.91,0s1.48,-1.24 -1.48,-3.95s-16,-5.66 -20.69,-9.36a37.34,37.34 0 0 1 -6.65,-6.4s2.71,-35 2.71,-45.33s1.23,-19.71 1.48,-24.39s0.24,-5.91 0.24,-5.91l-21.15,1.71z"/>
   <path id="svg_190" stroke-linejoin="round" stroke-linecap="round" stroke="#263238" fill="#263238" d="m68.9,273.18s1.73,18.48 2,24.88s1,31.53 1,31.53s10.1,4.69 20.94,5.18s25.37,-3.45 25.37,-3.45s1.24,-36.21 1.24,-45.33l0,-12.07a100.73,100.73 0 0 1 -50.55,-0.74z"/>
   <path id="svg_191" stroke-linejoin="round" stroke-linecap="round" stroke="#263238" fill="#fff" d="m66,265.05l-0.25,9.36a79.24,79.24 0 0 0 32.77,7.15c18.72,0 26.36,-5.42 26.36,-5.42l-2.27,-10.14s-38.43,4 -56.61,-0.95z"/>
   <path id="svg_192" stroke-miterlimit="10" stroke="#263238" fill="#fff" d="m133.25,185.14s3.14,-8.06 3.14,-12.19s1.77,-7.87 3.74,-9.24s8.46,-3.35 8.46,-3.35l1.77,17.9s-8.66,7.27 -10.23,8.85a24.92,24.92 0 0 0 -2.75,3.34l-4.13,-5.31z"/>
   <polygon id="svg_193" stroke-linejoin="round" stroke-linecap="round" stroke="#263238" fill="#263238" points="145.8300018310547,152.5 146.02999877929688,177.0800018310547 171.1999969482422,184.5500030517578 177.69000244140625,182.19000244140625 178.47999572753906,153.67999267578125 154.2899932861328,151.91000366210938 145.8300018310547,152.5 "/>
   <polygon id="svg_194" stroke-linejoin="round" stroke-linecap="round" stroke="#263238" fill="#fff" points="159.75999450683594,154.22999572753906 159.9199981689453,181.02999877929688 171.1999969482422,184.5500030517578 170.72999572753906,155.3300018310547 159.75999450683594,154.22999572753906 "/>
   <polygon id="svg_195" stroke-linejoin="round" stroke-linecap="round" stroke="#263238" fill="#fff" points="171.1999969482422,184.5500030517578 177.69000244140625,182.19000244140625 178.47999572753906,153.67999267578125 154.2899932861328,151.91000366210938 145.8300018310547,152.5 170.25999450683594,155.49000549316406 171.1999969482422,184.5500030517578 "/>
   <line id="svg_196" stroke-linejoin="round" stroke-linecap="round" stroke="#263238" fill="none" y2="153.68" x2="178.48" y1="155.33" x1="170.73"/>
   <path id="svg_197" stroke-linejoin="round" stroke-linecap="round" stroke="#263238" fill="#fff" d="m168.43,160.34a3.34,3.34 0 1 1 -3.34,-3.34a3.34,3.34 0 0 1 3.34,3.34z"/>
   <ellipse id="svg_198" stroke-linejoin="round" stroke-linecap="round" stroke="#263238" fill="#fff" ry="9.24" rx="5.51" cy="165.48" cx="152.91"/>
   <line id="svg_199" stroke-linejoin="round" stroke-linecap="round" stroke="#263238" fill="none" y2="145.22" x2="150.95" y1="153.09" x1="172.18"/>
   <rect id="svg_200" stroke-linejoin="round" stroke-linecap="round" stroke="#263238" fill="#fff" height="15.04" width="1.72" y="165.36" x="164.31"/>
   <path id="svg_201" stroke-miterlimit="10" stroke="#263238" fill="#fff" d="m136.2,175.51s0.59,-9 1.18,-10.62s8.06,-6.49 9,-7.67s2.76,1.37 1.38,3.34s-4.72,5.7 -4.72,5.7s2.16,9.44 -2,12.39"/>
   <polygon id="svg_202" stroke-miterlimit="10" stroke="#263238" fill="#fff" points="127.55000305175781,189.07000732421875 134.02999877929688,182.58999633789062 139.74000549316406,189.27000427246094 134.42999267578125,195.9600067138672 127.55000305175781,189.07000732421875 "/>
   <path id="svg_203" stroke-miterlimit="10" stroke="#263238" fill="#407BFF" d="m117.52,194.78s9,-7.67 10.62,-6.89s9.24,6.1 8.45,8.66s-15.73,17.3 -18.09,18.29s-0.98,-20.06 -0.98,-20.06z"/>
   <path id="svg_204" stroke-linejoin="round" stroke-linecap="round" stroke="#263238" fill="#407BFF" d="m88,142.66s-10.83,13.55 -13.79,28.08s-0.49,36.47 -1.48,42.87s-2.46,30.55 -3.94,34.24s-6.65,11.09 -5.17,14.29a25.41,25.41 0 0 0 3.69,5.67s5.91,3.45 22.67,3.45s25.12,0 28.57,-1.73s3.94,0.25 5.42,-3.2s2.22,-3.94 1,-9.11s-3.97,-11.09 -3.97,-16.76s0,-41.88 -2.47,-56.41s-1.72,-20 -4.19,-23.65s-12.31,-9.12 -17.49,-13.31s-8.85,-4.43 -8.85,-4.43z"/>
   <path id="svg_205" stroke-linejoin="round" stroke-linecap="round" stroke="#263238" fill="#fff" d="m91.45,139s18.73,15.27 20,16.25s3,5.18 3,5.18l-10.59,4.68s-12.32,-17 -14.78,-19.22l-2.46,-2.21s1.63,-6.44 4.83,-4.68z"/>
   <path id="svg_206" stroke-linejoin="round" stroke-linecap="round" stroke="#263238" fill="#263238" d="m108.07,407.69a72.26,72.26 0 0 0 -2,16.75l26.61,0s2.71,-2.71 -2,-6.9s-22.61,-9.85 -22.61,-9.85z"/>
   <polygon id="svg_207" stroke-linejoin="round" stroke-linecap="round" stroke="#263238" fill="#263238" points="132.7100067138672,424.44000244140625 132.7100067138672,427.8900146484375 83.19000244140625,427.8900146484375 83.19000244140625,423.70001220703125 132.7100067138672,424.44000244140625 "/>
   <path id="svg_208" stroke-miterlimit="10" stroke="#263238" fill="#fff" d="m153.7,189.47s4.13,-2.56 4.33,-5.11s0,-7.87 1.37,-10s4.33,-5.31 5.12,-6.89s2,-2.75 2.36,-0.39s0.39,3.34 -1,4.72a9.37,9.37 0 0 0 -2,2.95s9.83,-5.7 11.79,-7.28s3.94,-2.16 3.94,-0.19s-1.58,2.36 -3.15,3.93a60.23,60.23 0 0 1 -5.9,4.72c-0.59,0.39 -0.59,1.38 1.57,0.79s7.48,-4.72 8.46,-5.51s1.77,-0.59 1.57,1.18s-1.77,3.54 -3,4.72s-5.9,5.11 -5.9,5.11s0.4,1.77 1.77,0.4a65.09,65.09 0 0 1 6.1,-4.53s1.57,-0.78 1.77,0.59s-0.79,2.76 -2.36,3.94s-4.13,4.71 -5.9,6.29s-10.62,3.54 -11.4,3.93s-5.12,3.54 -5.12,3.54l-4.42,-6.91z"/>
   <polygon id="svg_209" stroke-miterlimit="10" stroke="#263238" fill="#fff" points="147.8000030517578,192.02999877929688 154.49000549316406,188.08999633789062 160.38999938964844,197.13999938964844 153.89999389648438,202.0500030517578 147.8000030517578,192.02999877929688 "/>
   <path id="svg_210" stroke-miterlimit="10" stroke="#263238" fill="#407BFF" d="m89.2,160.17s-7.87,2.36 -8.06,13.17s5.11,17.31 5.9,18.09s30.08,34 32.84,35.4a8.35,8.35 0 0 0 7.47,0.59c3,-1 26.15,-22.22 27.53,-23.6s-1.18,-5.11 -3.15,-8.45s-6.29,-4.33 -8.65,-3.15s-16.91,10 -16.91,10s-15.54,-22.61 -21.24,-30.09s-6.49,-9.24 -10.62,-9.83"/>
   <path id="svg_211" stroke-linejoin="round" stroke-linecap="round" stroke="#263238" fill="#263238" d="m89.73,114.08s-0.25,8.87 -3.45,12.57s-5.67,3.45 -5.67,3.45s-0.73,4.43 2.47,5.66s5.66,-1.48 5.66,-1.48s1,0.74 -0.24,2.71a8.36,8.36 0 0 1 -2.5,2.71a2.86,2.86 0 0 0 3.45,1.73c2.55,-0.74 5.45,-4.43 5.45,-4.43s-1.48,2 2,3.45s5.67,0.5 5.67,0.5a29.45,29.45 0 0 1 -1.23,-8.38c0,-4.68 1,-11.33 4.19,-11.58s10.59,1.48 11.57,-1.72a19.53,19.53 0 0 0 1,-5.18l-28.37,-0.01z"/>
   <path id="svg_212" stroke-linejoin="round" stroke-linecap="round" stroke="#263238" fill="#fff" d="m129.15,121.72s0.49,5.17 2,6.41s2.71,1.47 1.23,2.21a21.61,21.61 0 0 1 -4.68,1.23a22.25,22.25 0 0 1 -2.47,8.63c-2.46,5.17 -5.63,8.85 -8.09,7.13s-7.92,-5.16 -10.38,-11.57s-1.23,-8.37 -1.23,-8.37s-4,-1.73 -4,-4.93s2.64,-7.51 5.35,-5.54a6.08,6.08 0 0 1 2.78,4.31s5.67,1.23 6.16,-2.22a41.76,41.76 0 0 0 0.5,-4.19l12.31,0.74l0.52,6.16z"/>
   <path id="svg_213" fill="#263238" d="m125.77,123.47c0,1.12 -0.46,2 -1,2s-1,-0.9 -1,-2s0.46,-2 1,-2s1,0.88 1,2z"/>
   <path id="svg_214" stroke-linejoin="round" stroke-linecap="round" stroke="#263238" fill="none" d="m124.49,134.66a6.47,6.47 0 0 1 -5.23,-3.2"/>
   <path id="svg_215" stroke-linejoin="round" stroke-linecap="round" stroke="#263238" fill="#fff" d="m89.73,114.08l40.15,3.92s0.74,-12.56 -1.23,-17.73s-9.6,-11.09 -18,-10.84s-17.49,3.69 -19,8.62s-1.92,16.03 -1.92,16.03z"/>
   <path id="svg_216" stroke-linejoin="round" stroke-linecap="round" stroke="#263238" fill="#fff" d="m129.88,118l15.28,3a31.56,31.56 0 0 1 -11.09,3c-5.66,0.24 -13.55,-6.65 -13.55,-6.65l9.36,0.65z"/>
  </g>
 </g>
</svg>