<svg width="380" height="370" xmlns="http://www.w3.org/2000/svg">

 <g>
  <title>Layer 1</title>
  <g id="freepik--background-simple--inject-120">
   <g id="svg_1" opacity="0.9">
    <path id="svg_2" fill="#407BFF" d="m269.4,206.31c17.58,7.95 39.17,4.8 55.22,-6.07s26.73,-28.62 31.17,-47.46s3,-38.67 -1.6,-57.41c-5.46,-22.05 -15.52,-43.22 -31,-59.84s-36.49,-29.02 -59.19,-30.64c-58.85,-4.19 -100.52,27.46 -100.1,96.34c0.23,37.57 -76.84,-2.21 -118.36,35.57c-51.7,47 -39.15,121.47 -15.7,163.9c21.91,39.65 65.74,56.34 91.47,60.65c23.25,3.88 69.39,8.11 102.41,-29.17c24.41,-27.56 25.4,-101.05 25.31,-106.78s1.34,-11.73 5.22,-16a13.11,13.11 0 0 1 15.15,-3.09z"/>
   </g>
   <g id="svg_3" opacity="0.9">
    <path id="svg_4" fill="#fff" d="m269.4,206.31c17.58,7.95 39.17,4.8 55.22,-6.07s26.73,-28.62 31.17,-47.46s3,-38.67 -1.6,-57.41c-5.46,-22.05 -15.52,-43.22 -31,-59.84s-36.49,-29.02 -59.19,-30.64c-58.85,-4.19 -100.52,27.46 -100.1,96.34c0.23,37.57 -76.84,-2.21 -118.36,35.57c-51.7,47 -39.15,121.47 -15.7,163.9c21.91,39.65 65.74,56.34 91.47,60.65c23.25,3.88 69.39,8.11 102.41,-29.17c24.41,-27.56 25.4,-101.05 25.31,-106.78s1.34,-11.73 5.22,-16a13.11,13.11 0 0 1 15.15,-3.09z"/>
   </g>
  </g>
  <g id="freepik--character-2--inject-120">
   <path id="svg_5" fill="#407BFF" d="m220.93,143.58c-3.59,-2.32 -5,-7.76 -5.39,-13.47a68.45,68.45 0 0 1 0.53,-13c0.11,-1.1 0.27,-2.16 0.46,-3.16a28.56,28.56 0 0 1 0.64,-3l-32.61,-13.46c3.58,5.4 6.31,22.69 5.55,28.25c-0.83,6.24 -1.08,15 -4.32,17.26l35.14,0.58z"/>
   <g id="svg_6" opacity="0.7">
    <path id="svg_7" fill="#fff" d="m220.93,143.58c-3.59,-2.32 -5,-7.76 -5.39,-13.47a68.45,68.45 0 0 1 0.53,-13c0.11,-1.1 0.27,-2.16 0.46,-3.16a28.56,28.56 0 0 1 0.64,-3l-32.61,-13.46c3.58,5.4 6.31,22.69 5.55,28.25c-0.83,6.24 -1.08,15 -4.32,17.26l35.14,0.58z"/>
   </g>
   <path id="svg_8" fill="#ffb573" d="m185.79,143c-7,5 -4,12.86 1.69,19.28a72,72 0 0 0 7.05,6.91c10.9,9.33 28,5.37 33.09,-8.05c2.23,-5.95 1.46,-12.33 -6.69,-17.55l-35.14,-0.59z"/>
   <path id="svg_9" opacity="0.2" d="m215.54,130.11a68.45,68.45 0 0 1 0.53,-13c0.11,-1.1 0.27,-2.16 0.46,-3.16l-25.21,-4.84c5.29,5.24 12.68,15.96 24.22,21z"/>
   <path id="svg_10" fill="#407BFF" d="m248.8,71.64c-0.8,5.42 -8.23,14.23 -7.87,13.7a3,3 0 0 0 0.3,-1.87a20.44,20.44 0 0 0 -1.77,-7.06c-0.63,3 -1.59,9.29 -4.58,9.34c-1.19,-2.24 -2.65,-4.28 -2.44,-6.82c-0.69,2.6 -1.33,5.22 -2,7.82c-5.8,-3.57 -9.47,-11.81 -8.26,-18.69a13.13,13.13 0 0 1 1.71,-4.72a19.25,19.25 0 0 1 3.87,-4.19c3.79,-3.32 5.33,-4.86 10.31,-4.86c10.87,0 11.53,11.93 10.73,17.35z"/>
   <path id="svg_11" opacity="0.3" d="m248.8,71.64c-0.8,5.42 -8.23,14.23 -7.87,13.7a3,3 0 0 0 0.3,-1.87a20.44,20.44 0 0 0 -1.77,-7.06c-0.63,3 -1.59,9.29 -4.58,9.34c-1.19,-2.24 -2.65,-4.28 -2.44,-6.82c-0.69,2.6 -1.33,5.22 -2,7.82c-5.8,-3.57 -9.47,-11.81 -8.26,-18.69a13.13,13.13 0 0 1 1.71,-4.72a19.25,19.25 0 0 1 3.87,-4.19c3.79,-3.32 5.33,-4.86 10.31,-4.86c10.87,0 11.53,11.93 10.73,17.35z"/>
   <path id="svg_12" fill="#407BFF" d="m243.17,98.18c-4.05,22.07 -30.47,33.71 -47.91,17.9c-10.07,-9.11 -11.67,-20 -13.51,-36.92c-0.29,-2.57 -0.58,-5.27 -0.9,-8.14a30.44,30.44 0 0 1 1.34,-13.27a27.4,27.4 0 0 1 2.28,-5.11a30,30 0 0 1 35.83,-13.84c21.86,7.36 26.54,39.52 22.87,59.38z"/>
   <path id="svg_13" opacity="0.7" fill="#fff" d="m243.17,98.18c-4.05,22.07 -30.47,33.71 -47.91,17.9c-10.07,-9.11 -11.67,-20 -13.51,-36.92c-0.29,-2.57 -0.58,-5.27 -0.9,-8.14a30.44,30.44 0 0 1 1.34,-13.27a27.4,27.4 0 0 1 2.28,-5.11a30,30 0 0 1 35.83,-13.84c21.86,7.36 26.54,39.52 22.87,59.38z"/>
   <path id="svg_14" fill="#407BFF" d="m215.89,71.67c1.16,-0.08 2.17,1.32 2.26,3.09s-0.61,3.27 -1.91,3.34s-2.32,-1.31 -2.42,-3.1s0.92,-3.26 2.07,-3.33z"/>
   <path id="svg_15" opacity="0.3" d="m215.89,71.67c1.16,-0.08 2.17,1.32 2.26,3.09s-0.61,3.27 -1.91,3.34s-2.32,-1.31 -2.42,-3.1s0.92,-3.26 2.07,-3.33z"/>
   <path id="svg_16" fill="#407BFF" d="m235.69,71.49c1.16,-0.08 2.17,1.3 2.27,3.07s-0.74,3.26 -1.92,3.34s-2.19,-1.3 -2.29,-3.07s0.79,-3.27 1.94,-3.34z"/>
   <path id="svg_17" opacity="0.3" d="m235.69,71.49c1.16,-0.08 2.17,1.3 2.27,3.07s-0.74,3.26 -1.92,3.34s-2.19,-1.3 -2.29,-3.07s0.79,-3.27 1.94,-3.34z"/>
   <path id="svg_18" fill="#407BFF" d="m227.36,92.28c3,0.31 8.47,-1.51 10.64,-3.64c-4.13,-4.09 -8.74,-8.69 -11.57,-13.76l0.93,17.4z"/>
   <path id="svg_19" opacity="0.5" fill="#fff" d="m227.36,92.28c3,0.31 8.47,-1.51 10.64,-3.64c-4.13,-4.09 -8.74,-8.69 -11.57,-13.76l0.93,17.4z"/>
   <path id="svg_20" fill="#407BFF" d="m212.58,64.71a8.42,8.42 0 0 1 7.3,2.11l0,0a1,1 0 0 0 0.21,0.25a1,1 0 1 0 1.37,-1.59a10.38,10.38 0 0 0 -9.09,-2.8a1,1 0 0 0 -0.88,1.18a0.91,0.91 0 0 0 0.22,0.49a1.07,1.07 0 0 0 0.87,0.36z"/>
   <path id="svg_21" opacity="0.3" d="m212.58,64.71a8.42,8.42 0 0 1 7.3,2.11l0,0a1,1 0 0 0 0.21,0.25a1,1 0 1 0 1.37,-1.59a10.38,10.38 0 0 0 -9.09,-2.8a1,1 0 0 0 -0.88,1.18a0.91,0.91 0 0 0 0.22,0.49a1.07,1.07 0 0 0 0.87,0.36z"/>
   <path id="svg_22" fill="#407BFF" d="m242.92,62.59l0,0a1.06,1.06 0 0 0 -1.06,-1a10.21,10.21 0 0 0 -8.51,4.19l0,0a1,1 0 0 0 0.31,1.41l0.07,0a1,1 0 0 0 1.37,-0.34a8.25,8.25 0 0 1 6.78,-3.24a1,1 0 0 0 0.88,-0.45a1.34,1.34 0 0 0 0.16,-0.57z"/>
   <path id="svg_23" opacity="0.3" d="m242.92,62.59l0,0a1.06,1.06 0 0 0 -1.06,-1a10.21,10.21 0 0 0 -8.51,4.19l0,0a1,1 0 0 0 0.31,1.41l0.07,0a1,1 0 0 0 1.37,-0.34a8.25,8.25 0 0 1 6.78,-3.24a1,1 0 0 0 0.88,-0.45a1.34,1.34 0 0 0 0.16,-0.57z"/>
   <path id="svg_24" fill="#407BFF" d="m193.27,111.35a17.9,17.9 0 0 1 -7.37,-3.24c0,2.93 -2,8 -2,8c-9.32,-3.07 -17,-21.71 -18,-27.89c-5.18,9.63 -4.73,4.09 -5.13,0c-0.58,-5.89 -0.73,-12 1.28,-17.55s6.59,-10.52 12.43,-11.48a6.11,6.11 0 0 1 5.61,2.65a16.22,16.22 0 0 1 1.91,5.76c2.73,14.61 2.61,31.67 11.27,43.75z"/>
   <path id="svg_25" opacity="0.3" d="m193.27,111.35a17.9,17.9 0 0 1 -7.37,-3.24c0,2.93 -2,8 -2,8c-9.32,-3.07 -17,-21.71 -18,-27.89c-5.18,9.63 -4.73,4.09 -5.13,0c-0.58,-5.89 -0.73,-12 1.28,-17.55s6.59,-10.52 12.43,-11.48a6.11,6.11 0 0 1 5.61,2.65a16.22,16.22 0 0 1 1.91,5.76c2.73,14.61 2.61,31.67 11.27,43.75z"/>
   <path id="svg_26" fill="#407BFF" d="m180.06,77.85c7.13,0.16 11.48,9.15 12.24,15.3c0.89,6.85 -3.71,12.48 -10.32,9.45a20.41,20.41 0 0 1 -10.65,-11.7c-2.21,-6.36 1.59,-13.2 8.73,-13.05z"/>
   <path id="svg_27" opacity="0.7" fill="#fff" d="m180.06,77.85c7.13,0.16 11.48,9.15 12.24,15.3c0.89,6.85 -3.71,12.48 -10.32,9.45a20.41,20.41 0 0 1 -10.65,-11.7c-2.21,-6.36 1.59,-13.2 8.73,-13.05z"/>
   <path id="svg_28" fill="#407BFF" d="m194.34,56.88a18.42,18.42 0 0 1 4.74,15.12c-0.83,5.42 -8.5,14.22 -8.14,13.69a3,3 0 0 0 0.32,-1.87a20.1,20.1 0 0 0 -1.84,-7.06c-0.65,3 -1.64,9.29 -4.73,9.33c-1.23,-2.23 -2.74,-4.27 -2.53,-6.82c-0.71,2.61 -1.37,5.23 -2.08,7.83c-6,-3.58 -9.8,-11.82 -8.56,-18.7a12.87,12.87 0 0 1 1.77,-4.72a19.8,19.8 0 0 1 4,-4.19c3.92,-3.32 9.11,-6.63 13.84,-4.64c0.68,0.32 3.39,1.31 3.21,2.03z"/>
   <path id="svg_29" opacity="0.3" d="m194.34,56.88a18.42,18.42 0 0 1 4.74,15.12c-0.83,5.42 -8.5,14.22 -8.14,13.69a3,3 0 0 0 0.32,-1.87a20.1,20.1 0 0 0 -1.84,-7.06c-0.65,3 -1.64,9.29 -4.73,9.33c-1.23,-2.23 -2.74,-4.27 -2.53,-6.82c-0.71,2.61 -1.37,5.23 -2.08,7.83c-6,-3.58 -9.8,-11.82 -8.56,-18.7a12.87,12.87 0 0 1 1.77,-4.72a19.8,19.8 0 0 1 4,-4.19c3.92,-3.32 9.11,-6.63 13.84,-4.64c0.68,0.32 3.39,1.31 3.21,2.03z"/>
   <path id="svg_30" fill="#263238" d="m233,98.34s-6.11,-2.48 -24.12,-4.63c1,6.54 5,9.3 14.21,10.3s9.91,-5.67 9.91,-5.67z"/>
   <path id="svg_31" fill="#fff" d="m232.18,98.11a4.43,4.43 0 0 1 -3.39,2.78a81.38,81.38 0 0 1 -15.65,-3.48a4.67,4.67 0 0 1 -3.52,-3.54a125.51,125.51 0 0 1 22.56,4.24z"/>
   <path id="svg_32" fill="#fff" d="m228.43,100.35a47.41,47.41 0 0 0 -14.22,-3.35a7.6,7.6 0 0 0 -3.77,1.5c2,3.24 6,4.85 12.57,5.59a10.48,10.48 0 0 0 7.18,-1.31a11.2,11.2 0 0 0 -1.76,-2.43z"/>
   <path id="svg_33" fill="#ffb573" d="m244.75,141.49a40.57,40.57 0 0 1 -7.85,20c-0.32,0.43 -0.65,0.86 -1,1.28c-9.72,12.31 -27.19,16.13 -41.72,9.66a85.64,85.64 0 0 1 -13.18,-7.14c-8.24,-5.54 -15.35,-13.24 -18.7,-22.28l25.55,-3.29l17.47,-2.25l11.94,1.22l27.49,2.8z"/>
   <path id="svg_34" fill="#407BFF" d="m118.42,157.87c-1,75 -56.35,140 -62.06,214.83l274.71,0a566.8,566.8 0 0 1 -50.6,-185.5l-4.25,-44.2l-140.59,0s-17.11,7.53 -17.21,14.87z"/>
   <path id="svg_35" opacity="0.6" fill="#fff" d="m118.42,157.87c-1,75 -56.35,140 -62.06,214.83l274.71,0a566.8,566.8 0 0 1 -50.6,-185.5l-4.25,-44.2l-140.59,0s-17.11,7.53 -17.21,14.87z"/>
   <path id="svg_36" opacity="0.2" fill="#fff" d="m90.54,372.6s-1.6,-77.23 24,-157.13s-6.54,23.96 -1.54,116.53c1.42,26.69 8.41,41 8.41,41l-30.87,-0.4z"/>
   <path id="svg_37" opacity="0.2" fill="#fff" d="m305.86,373s-33.56,-77.83 -39.59,-180.56c0,0 -8.22,90.91 20.14,180.26l19.45,0.3z"/>
   <path id="svg_38" fill="#407BFF" d="m296.89,130.18a3.07,3.07 0 0 1 0.42,-0.17l-0.16,0.07l-0.26,0.1z"/>
   <path id="svg_39" fill="#407BFF" d="m299.1,129.36l-0.71,0.26l-0.58,0.21l-0.09,0l-0.41,0.15c0.57,-0.2 1.17,-0.41 1.79,-0.62z"/>
   <path id="svg_40" fill="#407BFF" d="m370.82,133.34c0,27.44 -49.24,44.71 -71.21,51c-20.84,7 -33.34,8.05 -33.34,8.05c-0.77,-7.25 -16.49,-49.8 -16.49,-49.8s9.4,-4 16.14,-3.4l0.17,0a38.74,38.74 0 0 0 22.61,-5.18a57.63,57.63 0 0 1 7.74,-3.73l0.45,-0.17l0.26,-0.1l0.57,-0.22l0.09,0l0.58,-0.21l0.71,-0.26l0.83,-0.27l0.25,-0.08l0.26,-0.08l0.19,-0.05l0.07,0a54.53,54.53 0 0 1 5.91,-1.36a28.84,28.84 0 0 1 17.34,2a6.91,6.91 0 0 0 6.58,-0.27c1,-0.64 1.43,-1.33 0.47,-1.87l-46.74,-53.46l14.25,-7.83s72.31,38.21 72.31,67.29z"/>
   <path id="svg_41" fill="#407BFF" d="m370.82,133.34c0,27.44 -49.24,44.71 -71.21,51c-20.84,7 -33.34,8.05 -33.34,8.05c-0.77,-7.25 -16.49,-49.8 -16.49,-49.8s9.4,-4 16.14,-3.4l0.17,0a38.74,38.74 0 0 0 22.61,-5.18a57.63,57.63 0 0 1 7.74,-3.73l0.45,-0.17l0.26,-0.1l0.57,-0.22l0.09,0l0.58,-0.21l0.71,-0.26l0.83,-0.27l0.25,-0.08l0.26,-0.08l0.19,-0.05l0.07,0a54.53,54.53 0 0 1 5.91,-1.36a28.84,28.84 0 0 1 17.34,2a6.91,6.91 0 0 0 6.58,-0.27c1,-0.64 1.43,-1.33 0.47,-1.87l-46.74,-53.46l14.25,-7.83s72.31,38.21 72.31,67.29z"/>
   <g id="svg_42" opacity="0.3">
    <path id="svg_43" fill="#fff" d="m370.82,133.34c0,27.44 -49.24,44.71 -71.21,51c-20.84,7 -33.34,8.05 -33.34,8.05c-0.77,-7.25 -16.49,-49.8 -16.49,-49.8s9.4,-4 16.14,-3.4l0.17,0a38.74,38.74 0 0 0 22.61,-5.18a57.63,57.63 0 0 1 7.74,-3.73l0.45,-0.17l0.26,-0.1l0.57,-0.22l0.09,0l0.58,-0.21l0.71,-0.26l0.83,-0.27l0.25,-0.08l0.26,-0.08l0.19,-0.05l0.07,0a54.53,54.53 0 0 1 5.91,-1.36a28.84,28.84 0 0 1 17.34,2a6.91,6.91 0 0 0 6.58,-0.27c1,-0.64 1.43,-1.33 0.47,-1.87l-46.74,-53.46l14.25,-7.83s72.31,38.21 72.31,67.29z"/>
   </g>
   <path id="svg_44" fill="#407BFF" d="m288.11,75.27l-19.92,-7.89l-12,-16l17.24,-3.83l16.3,8.45l9.78,10.64a4,4 0 0 1 -1.72,6.51l-7,2.23a4,4 0 0 1 -2.68,-0.11z"/>
   <path id="svg_45" opacity="0.7" fill="#fff" d="m288.11,75.27l-19.92,-7.89l-12,-16l17.24,-3.83l16.3,8.45l9.78,10.64a4,4 0 0 1 -1.72,6.51l-7,2.23a4,4 0 0 1 -2.68,-0.11z"/>
   <path id="svg_46" opacity="0.2" d="m275.07,170.57l2,20.23s29.49,-6.84 46.16,-14.47l-13.39,0.73a65.1,65.1 0 0 1 -32.21,-6.06l-2.56,-0.43z"/>
   <path id="svg_47" fill="#407BFF" d="m278.6,190.33c-0.29,64.39 -12.12,70.47 -11.56,125.89c0,0 -111.49,0.45 -115.27,0.55c-9,-74.58 -18.17,-78 -15.75,-135.27c-1.17,-18.81 9.5,-35.35 20.23,-37.5l49.09,-6.53l47.22,5c12,1.72 22.85,11.18 26.04,47.86z"/>
   <path id="svg_48" opacity="0.3" fill="#fff" d="m278.6,190.33c-0.29,64.39 -12.12,70.47 -11.56,125.89c0,0 -111.49,0.45 -115.27,0.55c-9,-74.58 -18.17,-78 -15.75,-135.27c-1.17,-18.81 9.5,-35.35 20.23,-37.5l49.09,-6.53l47.22,5c12,1.72 22.85,11.18 26.04,47.86z"/>
   <path id="svg_49" fill="#407BFF" d="m198.08,64.58c-3,-6.6 -7,-9.79 -4.67,-9.43c6.26,1 10.09,-4.51 14.69,-1.41c2.24,2.56 -0.34,7.32 -0.45,7.06c2.3,1.09 5.17,0.23 7.06,-1.45s2.55,-4.62 3.48,-7a13.68,13.68 0 0 1 -0.18,7.79c1.65,1.31 5.05,-1.15 6.6,-2.58a15,15 0 0 0 3.39,-5.76c0.59,2.3 1.05,4.64 -0.6,7.41c2.34,0.13 5.41,-0.59 6.95,-2.34a8.35,8.35 0 0 0 2,-6.75c0.53,1.18 0.61,6 -0.44,6.81c4,-1.31 7.71,-6.31 7.5,-10.48a13.07,13.07 0 0 0 -6.53,-10.15c-1.79,-1.07 -3.78,-1.77 -5.66,-2.69c-2.89,-1.42 -21.25,-15.12 -48.21,0.5c-16.73,9.7 -13.46,29 -11.47,31.1c2.47,2.59 6.36,3.46 9.95,3.1s17.37,-1.98 16.59,-3.73z"/>
   <path id="svg_50" opacity="0.3" d="m198.08,64.58c-3,-6.6 -7,-9.79 -4.67,-9.43c6.26,1 10.09,-4.51 14.69,-1.41c2.24,2.56 -0.34,7.32 -0.45,7.06c2.3,1.09 5.17,0.23 7.06,-1.45s2.55,-4.62 3.48,-7a13.68,13.68 0 0 1 -0.18,7.79c1.65,1.31 5.05,-1.15 6.6,-2.58a15,15 0 0 0 3.39,-5.76c0.59,2.3 1.05,4.64 -0.6,7.41c2.34,0.13 5.41,-0.59 6.95,-2.34a8.35,8.35 0 0 0 2,-6.75c0.53,1.18 0.61,6 -0.44,6.81c4,-1.31 7.71,-6.31 7.5,-10.48a13.07,13.07 0 0 0 -6.53,-10.15c-1.79,-1.07 -3.78,-1.77 -5.66,-2.69c-2.89,-1.42 -21.25,-15.12 -48.21,0.5c-16.73,9.7 -13.46,29 -11.47,31.1c2.47,2.59 6.36,3.46 9.95,3.1s17.37,-1.98 16.59,-3.73z"/>
   <path id="svg_51" fill="#407BFF" d="m233,98.34s-6.11,-2.48 -24.12,-4.63c1,6.54 5,9.3 14.21,10.3s9.91,-5.67 9.91,-5.67z"/>
   <path id="svg_52" opacity="0.3" d="m233,98.34s-6.11,-2.48 -24.12,-4.63c1,6.54 5,9.3 14.21,10.3s9.91,-5.67 9.91,-5.67z"/>
   <path id="svg_53" fill="#fff" d="m232.18,98.11a4.43,4.43 0 0 1 -3.39,2.78a81.38,81.38 0 0 1 -15.65,-3.48a4.67,4.67 0 0 1 -3.52,-3.54a125.51,125.51 0 0 1 22.56,4.24z"/>
   <path id="svg_54" fill="#fff" d="m228.43,100.35a47.41,47.41 0 0 0 -14.22,-3.35a7.6,7.6 0 0 0 -3.77,1.5c2,3.24 6,4.85 12.57,5.59a10.48,10.48 0 0 0 7.18,-1.31a11.2,11.2 0 0 0 -1.76,-2.43z"/>
   <path id="svg_55" fill="#407BFF" d="m146,288.37s23.58,-12.5 23.45,-11.13s0.49,27.82 0.49,27.82l-25.71,-0.59l1.77,-16.1z"/>
   <path id="svg_56" fill="#407BFF" d="m169.43,277.24s21.71,0.71 21.59,3.12s-2.46,22.64 -2.46,22.64l-18.64,2.07l-0.49,-27.83z"/>
   <g id="svg_57" opacity="0.7">
    <path id="svg_58" fill="#fff" d="m191,280.36c-0.12,2.42 -2.45,22.63 -2.45,22.63l-18.64,2.07l-25.71,-0.59l1.77,-16.1s23.58,-12.5 23.45,-11.13c0.01,0 21.72,0.76 21.58,3.12z"/>
   </g>
   <path id="svg_59" fill="#407BFF" d="m244.75,141.49a40.57,40.57 0 0 1 -7.85,20c-0.32,0.43 -0.65,0.86 -1,1.28c-9.72,12.31 -27.19,16.13 -41.72,9.66a85.64,85.64 0 0 1 -13.18,-7.14c-8.24,-5.54 -15.35,-13.24 -18.7,-22.28l25.55,-3.29l17.47,-2.25l11.94,1.22l27.49,2.8z"/>
   <path id="svg_60" opacity="0.7" fill="#fff" d="m244.75,141.49a40.57,40.57 0 0 1 -7.85,20c-0.32,0.43 -0.65,0.86 -1,1.28c-9.72,12.31 -27.19,16.13 -41.72,9.66a85.64,85.64 0 0 1 -13.18,-7.14c-8.24,-5.54 -15.35,-13.24 -18.7,-22.28l25.55,-3.29l17.47,-2.25l11.94,1.22l27.49,2.8z"/>
   <path id="svg_61" opacity="0.2" d="m136.18,206.43a196,196 0 0 0 3,33.54l8.35,-52.12l-11.35,18.58z"/>
   <path id="svg_62" fill="#407BFF" d="m90.92,244.14l55.85,39.46l-2.56,23.21s-83.82,-19.27 -96.51,-45.42c-5.93,-12.2 0.75,-27.12 11.07,-40.92a0.09,0.09 0 0 0 0,-0.05c12.27,-20.07 23.42,-32 31.83,-39.05a103.47,103.47 0 0 0 21.24,-23.55c14.48,-22.73 47,-13.52 47,-13.52c-7.41,17.34 -7.49,50.32 -7.49,50.32s-7.27,5.48 -15.21,11.81c-0.08,5.35 -3.33,11.9 -9.61,19.3c-8.25,9.76 -32.79,15.32 -35.61,18.41z"/>
   <path id="svg_63" opacity="0.3" fill="#fff" d="m90.92,244.14l55.85,39.46l-2.56,23.21s-83.82,-19.27 -96.51,-45.42c-5.93,-12.2 0.75,-27.12 11.07,-40.92a0.09,0.09 0 0 0 0,-0.05c12.27,-20.07 23.42,-32 31.83,-39.05a103.47,103.47 0 0 0 21.24,-23.55c14.48,-22.73 47,-13.52 47,-13.52c-7.41,17.34 -7.49,50.32 -7.49,50.32s-7.27,5.48 -15.21,11.81c-0.08,5.35 -3.33,11.9 -9.61,19.3c-8.25,9.76 -32.79,15.32 -35.61,18.41z"/>
   <path id="svg_64" fill="#407BFF" d="m133.11,137.58a199.3,199.3 0 0 0 59.3,34.06c0,-6.77 -2.16,-20.45 -6,-28.93c-1.09,-2.38 -2.47,-4.77 -4.7,-6.14s-5.5,-1.36 -7.16,0.67c-6.34,-4.48 -16.77,-4.69 -22.92,0c-4.76,-1.65 -11.52,-4.27 -16.48,-3.38s-11.08,7.5 -10.34,12.49a38.76,38.76 0 0 1 14.6,-3.74c-1.36,-1.61 -0.03,0.05 -6.3,-5.03z"/>
   <path id="svg_65" opacity="0.6" fill="#fff" d="m133.11,137.58a199.3,199.3 0 0 0 59.3,34.06c0,-6.77 -2.16,-20.45 -6,-28.93c-1.09,-2.38 -2.47,-4.77 -4.7,-6.14s-5.5,-1.36 -7.16,0.67c-6.34,-4.48 -16.77,-4.69 -22.92,0c-4.76,-1.65 -11.52,-4.27 -16.48,-3.38s-11.08,7.5 -10.34,12.49a38.76,38.76 0 0 1 14.6,-3.74c-1.36,-1.61 -0.03,0.05 -6.3,-5.03z"/>
   <path id="svg_66" fill="#407BFF" d="m261.43,139.29a22.13,22.13 0 0 0 -18.25,0c-3.92,-2.87 -9.95,-3.48 -14,-0.73a7.16,7.16 0 0 0 -5.17,-2.56c-2,-0.07 -3.28,1.31 -4.65,2.74c2.88,1.45 4.35,4.68 5.37,7.74a64.66,64.66 0 0 1 3.27,24.09c13.8,-6.74 25.51,-18.05 33.43,-31.28z"/>
   <path id="svg_67" opacity="0.6" fill="#fff" d="m261.43,139.29a22.13,22.13 0 0 0 -18.25,0c-3.92,-2.87 -9.95,-3.48 -14,-0.73a7.16,7.16 0 0 0 -5.17,-2.56c-2,-0.07 -3.28,1.31 -4.65,2.74c2.88,1.45 4.35,4.68 5.37,7.74a64.66,64.66 0 0 1 3.27,24.09c13.8,-6.74 25.51,-18.05 33.43,-31.28z"/>
   <path id="svg_68" opacity="0.5" fill="#fff" d="m258.73,217.22c0,15.19 -21.62,42.34 -48.29,42.34s-48.29,-27.15 -48.29,-42.34s21.62,-27.51 48.29,-27.51s48.29,12.29 48.29,27.51z"/>
   <path id="svg_69" fill="#407BFF" d="m252.24,218.53c0,12.51 -17.81,34.88 -39.78,34.88s-39.77,-22.41 -39.77,-34.88s17.8,-22.67 39.77,-22.67s39.78,10.14 39.78,22.67z"/>
   <path id="svg_70" opacity="0.5" fill="#fff" d="m252.24,218.53c0,12.51 -17.81,34.88 -39.78,34.88s-39.77,-22.41 -39.77,-34.88s17.8,-22.67 39.77,-22.67s39.78,10.14 39.78,22.67z"/>
   <rect id="svg_71" fill="#fff" height="18.81" width="115.29" y="316.77" x="151.77"/>
   <polygon id="svg_72" fill="#407BFF" points="151.77000427246094,335.5799865722656 140.74000549316406,372.70001220703125 270.7900085449219,372.70001220703125 267.07000732421875,335.5799865722656 151.77000427246094,335.5799865722656 "/>
   <polygon id="svg_73" opacity="0.2" fill="#fff" points="151.77000427246094,335.5799865722656 140.74000549316406,372.70001220703125 270.7900085449219,372.70001220703125 267.07000732421875,335.5799865722656 151.77000427246094,335.5799865722656 "/>
   <rect id="svg_74" fill="#263238" height="20.61" width="34.47" y="315.57" x="202.75"/>
   <rect id="svg_75" opacity="0.7" fill="#fff" height="20.61" width="34.47" y="315.57" x="202.75"/>
   <polygon id="svg_76" opacity="0.7" fill="#fff" points="217.17999267578125,315.57000732421875 207.02999877929688,336.17999267578125 214.54998779296875,336.17999267578125 225.01998901367188,315.57000732421875 217.17999267578125,315.57000732421875 "/>
   <polygon id="svg_77" opacity="0.7" fill="#fff" points="228.239990234375,315.57000732421875 218.08999633789062,336.17999267578125 223.45999145507812,336.17999267578125 233.92999267578125,315.57000732421875 228.239990234375,315.57000732421875 "/>
   <path id="svg_78" opacity="0.2" fill="#fff" d="m248.8,71.59c-0.42,2.83 -2.63,6.57 -4.61,9.43a75,75 0 0 1 -1,17.11a30.68,30.68 0 0 1 -27.66,25.13a61.82,61.82 0 0 0 0,6.8a29.3,29.3 0 0 0 1.72,8.58l0,0l27.47,2.8a40.57,40.57 0 0 1 -7.85,20c-0.32,0.43 -0.65,0.86 -1,1.28c-9.72,12.31 -27.19,16.13 -41.72,9.66a85.64,85.64 0 0 1 -13.15,-7.14c-8.24,-5.54 -15.35,-13.24 -18.7,-22.28l25.55,-3.29l0,0c1.32,-3.74 1.62,-9.5 2.22,-14c0.42,-3.07 -0.22,-9.71 -1.48,-15.94a17.7,17.7 0 0 1 -2.73,-1.68c0,2.93 -2,8 -2,8c-9.32,-3.07 -17,-21.71 -18,-27.89c-5.19,9.63 -4.73,4.09 -5.13,0c-0.58,-5.89 -0.73,-12 1.28,-17.55a18.77,18.77 0 0 1 8,-9.89c-1,-6.78 0.38,-19.39 12.88,-26.64c27,-15.62 45.32,-1.92 48.21,-0.5c1.88,0.92 3.86,1.62 5.66,2.69a13.07,13.07 0 0 1 6.53,10.15c0.13,2.72 -1.39,5.78 -3.57,7.95c9.28,1.19 9.84,12.11 9.08,17.22z"/>
   <path id="svg_79" opacity="0.2" fill="#fff" d="m229.61,52.93l-0.34,-0.57a6.72,6.72 0 0 0 0,-2.24a8.9,8.9 0 0 1 0.34,2.81z"/>
  </g>
  <g id="freepik--character-1--inject-120">
   <path id="svg_80" fill="#ffb573" d="m154.14,342.82a66.9,66.9 0 0 1 -8.59,2.18l0,0c-0.45,0.08 -0.89,0.16 -1.32,0.22c-1.41,0.21 -2.73,0.34 -4,0.4c-19.35,1 -19.85,-15.16 -20.33,-23.39a242.52,242.52 0 0 1 0.82,-33c1.34,-15.27 3.88,-31.13 7.57,-43c5.34,-17.12 14,-19 21.35,-19.13l0,0c1.42,0 2.81,0 4.11,0c0,0 -0.94,4.85 -1.39,9.53l-2.92,20.74l-4.06,28.78l0,0l-0.63,4.49l0,0.25l-2.2,15.58l-0.51,3.59c-0.23,2.39 -0.4,5.76 2.21,7.68a5.34,5.34 0 0 0 1.2,0.7c1.7,0.76 4.21,1.07 7.86,0.64l0.37,10.22l0.07,1.84l0.12,3.18l0.2,5.78l0.07,2.72z"/>
   <path id="svg_81" fill="#407BFF" d="m110.15,283.4c5.54,6.33 10,5.56 17.66,6.76s14.26,0.78 22,0.07c1.57,-21.53 4.22,-43 4,-64.51c-6.28,0.47 -13,0.21 -18.15,3.33c-6.86,4.17 -7.32,14.88 -11.94,22.43c-5.46,8.92 -12.46,16.23 -19.39,23.45c2.52,4.4 2.67,4.82 5.82,8.47z"/>
   <g id="svg_82" opacity="0.6">
    <path id="svg_83" d="m110.15,283.4c5.54,6.33 10,5.56 17.66,6.76s14.26,0.78 22,0.07c1.57,-21.53 4.22,-43 4,-64.51c-6.28,0.47 -13,0.21 -18.15,3.33c-6.86,4.17 -7.32,14.88 -11.94,22.43c-5.46,8.92 -12.46,16.23 -19.39,23.45c2.52,4.4 2.67,4.82 5.82,8.47z"/>
   </g>
   <polygon id="svg_84" opacity="0.2" points="149.44000244140625,257.3599853515625 138.75999450683594,290.9200134277344 152.24000549316406,290.9200134277344 149.44000244140625,257.3599853515625 "/>
   <path id="svg_85" fill="#407BFF" d="m252.62,295.62c-1.23,5.5 -2.7,10.89 -4.2,17.76l0,0c-0.32,1.47 -0.65,3 -1,4.64c-0.45,2.28 -0.9,4.7 -1.33,7.34l0,0c-0.48,3 -0.95,6.2 -1.4,9.76c-0.4,3.08 -0.77,6.4 -1.12,10l0,0c-0.15,1.57 -0.31,3.19 -0.45,4.89c-0.28,3.31 -0.55,6.84 -0.79,10.61s-0.46,7.95 -0.66,12.33c-3.26,-0.08 -99.61,0 -99.61,0c0.54,-6.41 1,-12.44 1.44,-18.26c0.23,-3.23 0.46,-6.39 0.65,-9.51l0,-0.07c0.07,-1 0.13,-1.9 0.18,-2.84c0.15,-2.38 0.28,-4.73 0.4,-7.07c0.29,-5.6 0.51,-11.14 0.65,-16.79c0,-0.24 0,-0.48 0,-0.72c0.08,-3.48 0.13,-7 0.15,-10.62c0,-5.2 0,-10.57 -0.11,-16.21c0,-0.1 0,-0.2 0,-0.3c0,-1.46 -0.05,-2.94 -0.09,-4.44l0,0c-0.12,-4.6 -0.28,-9.4 -0.5,-14.45l0,0c-0.27,-6.3 -0.62,-13 -1.06,-20.14c-0.52,-8.45 0.08,-19.68 5.81,-24.45l0,0a9.55,9.55 0 0 1 1.85,-1.22a10.32,10.32 0 0 1 3.13,-1l30.25,-4.71l10.55,-1.64l15.54,3l34.1,6.7a11.88,11.88 0 0 1 1.21,0.3a10.5,10.5 0 0 1 5.5,3.84c3.52,4.71 4.25,13 3.55,24.16c0.87,19.29 -0.48,29.37 -2.64,39.11z"/>
   <path id="svg_86" opacity="0.6" d="m252.62,295.62c-1.23,5.5 -2.7,10.89 -4.2,17.76l0,0c-0.32,1.47 -0.65,3 -1,4.64c-0.45,2.28 -0.9,4.7 -1.33,7.34l0,0c-0.48,3 -0.95,6.2 -1.4,9.76c-0.4,3.08 -0.77,6.4 -1.12,10l0,0c-0.15,1.57 -0.31,3.19 -0.45,4.89c-0.28,3.31 -0.55,6.84 -0.79,10.61s-0.46,7.95 -0.66,12.33c-3.26,-0.08 -99.61,0 -99.61,0c0.54,-6.41 1,-12.44 1.44,-18.26c0.23,-3.23 0.46,-6.39 0.65,-9.51l0,-0.07c0.07,-1 0.13,-1.9 0.18,-2.84c0.15,-2.38 0.28,-4.73 0.4,-7.07c0.29,-5.6 0.51,-11.14 0.65,-16.79c0,-0.24 0,-0.48 0,-0.72c0.08,-3.48 0.13,-7 0.15,-10.62c0,-5.2 0,-10.57 -0.11,-16.21c0,-0.1 0,-0.2 0,-0.3c0,-1.46 -0.05,-2.94 -0.09,-4.44l0,0c-0.12,-4.6 -0.28,-9.4 -0.5,-14.45l0,0c-0.27,-6.3 -0.62,-13 -1.06,-20.14c-0.52,-8.45 0.08,-19.68 5.81,-24.45l0,0a9.55,9.55 0 0 1 1.85,-1.22a10.32,10.32 0 0 1 3.13,-1l30.25,-4.71l10.55,-1.64l15.54,3l34.1,6.7a11.88,11.88 0 0 1 1.21,0.3a10.5,10.5 0 0 1 5.5,3.84c3.52,4.71 4.25,13 3.55,24.16c0.87,19.29 -0.48,29.37 -2.64,39.11z"/>
   <path id="svg_87" fill="#ffb573" d="m212.31,223.31c6.06,4.32 3.49,11.11 -1.45,16.66c-10.29,11.55 -21,15.14 -21,15.14c-0.16,-0.07 -26.73,-19.27 -8,-31.28c3.1,-2 4.31,-6.71 4.65,-11.64a59.79,59.79 0 0 0 -0.45,-11.28c-0.09,-0.94 -0.24,-1.86 -0.4,-2.73s-0.34,-1.75 -0.55,-2.56l28.27,-11.62c-3.1,4.66 -5.46,19.6 -4.8,24.41c0.72,5.38 0.93,12.91 3.73,14.9z"/>
   <path id="svg_88" opacity="0.2" d="m186.6,212.19a59.79,59.79 0 0 0 -0.45,-11.28c-0.09,-0.94 -0.24,-1.86 -0.4,-2.73l21.79,-4.18c-4.54,4.57 -10.98,13.83 -20.94,18.19z"/>
   <path id="svg_89" fill="#263238" d="m157.07,162.84c0.71,4.68 7.34,12.29 7,11.83a2.53,2.53 0 0 1 -0.27,-1.61a17.32,17.32 0 0 1 1.59,-6.11c0.55,2.62 1.41,8 4.08,8.07c1.06,-1.93 2.37,-3.69 2.19,-5.89c0.62,2.25 1.18,4.51 1.79,6.76a16.56,16.56 0 0 0 7.4,-16.15a11.24,11.24 0 0 0 -1.52,-4.09a16.91,16.91 0 0 0 -3.43,-3.65c-3.38,-2.87 -7.69,-5.22 -12,-4c-8.14,2.32 -7.54,10.16 -6.83,14.84z"/>
   <path id="svg_90" fill="#ffb573" d="m162.73,184.59c3.5,19.07 26.33,29.13 41.4,15.47c8.7,-7.87 10.09,-17.26 11.67,-31.9c0.25,-2.22 0.5,-4.55 0.79,-7a26.31,26.31 0 0 0 -1.17,-11.46a22.87,22.87 0 0 0 -2,-4.42a25.94,25.94 0 0 0 -31,-12c-18.82,6.36 -22.86,34.15 -19.69,51.31z"/>
   <path id="svg_91" fill="#263238" d="m181.25,157.54a0.75,0.75 0 0 1 -0.35,-0.26a0.89,0.89 0 0 1 0.18,-1.24l0,0a8.71,8.71 0 0 1 8,-1.36a0.88,0.88 0 0 1 0.48,1.15l0,0a0.91,0.91 0 0 1 -1.17,0.5a6.87,6.87 0 0 0 -6.34,1.09a0.82,0.82 0 0 1 -0.8,0.12z"/>
   <path id="svg_92" fill="#263238" d="m171.59,158.88a0.94,0.94 0 0 0 -0.78,-0.33a7.44,7.44 0 0 1 -6.27,-2.2a0.92,0.92 0 0 0 -1.28,-0.12l0,0a0.93,0.93 0 0 0 -0.14,1.26l0,0a9.09,9.09 0 0 0 7.85,2.81a0.9,0.9 0 0 0 0.83,-1a1,1 0 0 0 -0.21,-0.42z"/>
   <path id="svg_93" fill="#ed893e" d="m175,179.05a12,12 0 0 1 -7.56,-2.59c2.93,-2.91 6.21,-6.18 8.22,-9.79l-0.66,12.38z"/>
   <path id="svg_94" fill="#263238" d="m168.18,167.76a5.67,5.67 0 0 1 -3.89,-2a0.5,0.5 0 1 1 0.73,-0.69c1.11,1.17 2.85,2.33 4.81,1.18a0.51,0.51 0 0 1 0.69,0.17a0.51,0.51 0 0 1 -0.18,0.69a4.26,4.26 0 0 1 -2.16,0.65z"/>
   <path id="svg_95" fill="#263238" d="m185.58,183.67a13.3,13.3 0 0 1 -10,2.61a0.47,0.47 0 0 1 -0.42,-0.49a0.43,0.43 0 0 1 0.45,-0.41l0,0a12.63,12.63 0 0 0 10.6,-3.48a0.44,0.44 0 0 1 0.61,0l0,0a0.48,0.48 0 0 1 0,0.64q-0.56,0.61 -1.24,1.13z"/>
   <path id="svg_96" fill="#263238" d="m205.85,196a15.39,15.39 0 0 0 6.37,-2.79c0,2.53 1.7,6.87 1.7,6.87c8.05,-2.65 14.68,-18.76 15.57,-24.1c4.48,8.32 4.09,3.54 4.44,0c0.5,-5.09 0.62,-10.36 -1.11,-15.16s-5.7,-9.09 -10.74,-9.92a5.27,5.27 0 0 0 -4.85,2.28a14.11,14.11 0 0 0 -1.66,5c-2.34,12.61 -2.24,27.36 -9.72,37.82z"/>
   <path id="svg_97" fill="#ffb573" d="m217.27,167c-6.16,0.13 -9.93,7.9 -10.58,13.22c-0.77,5.91 3.21,10.78 8.92,8.16a17.64,17.64 0 0 0 9.2,-10.11c1.9,-5.47 -1.38,-11.38 -7.54,-11.27z"/>
   <path id="svg_98" opacity="0.2" d="m234.36,265.13s-7.48,33.85 -2.29,54.28s15.55,30.73 15.55,30.73l1.85,-85l-15.11,-0.01z"/>
   <path id="svg_99" opacity="0.2" d="m247.62,350.14l0,0a8.78,8.78 0 0 1 -4.46,-0.1c-0.28,3.31 -0.55,6.84 -0.79,10.61c-5.95,3.19 -32.48,-6.18 -55.75,-15.53c-5.13,-2.06 -10.1,-4.13 -14.65,-6.06c-1.62,-0.67 -3.17,-1.34 -4.66,-2c-3.09,-1.32 -5.91,-2.55 -8.37,-3.63c-2,-0.87 -3.76,-1.65 -5.22,-2.31c-3.05,-1.35 -4.8,-2.15 -4.8,-2.15l4.73,0.31l37.35,2.42l9.65,0.63l1.94,0.11l11.95,0.77l8.16,0.52l0.42,0l7.92,0.51l6.45,0.41l7.2,0.46l2.89,0.19s0.16,2 0.21,5.35l0,0.12c0.07,2.49 0.04,5.68 -0.17,9.37z"/>
   <path id="svg_100" fill="#ffb573" d="m263,295.75c-1.48,15.64 -3.66,31.09 -5.46,41.23c-1.25,7.06 -5.24,12 -9.92,13.18a8.78,8.78 0 0 1 -4.46,-0.1c-0.22,-0.06 -0.43,-0.13 -0.65,-0.21l-35.8,-9.23l-0.31,-0.09l-3.83,-1l0.06,-7.1l0,-0.57l0,-2.81l0.08,-8.87l4.84,0.26l23.65,1.26a3.19,3.19 0 0 0 1.47,0.06c2.05,-0.39 3.75,-2.79 4,-5.95l0.46,-6.86l1,-15.13l1.93,-28.71l1.77,-26.58a48.35,48.35 0 0 1 1.35,-8.5l0,0l0,0a19.43,19.43 0 0 1 8.58,2.41c5.57,3 11.62,9.37 12.6,22.43c0.82,10.84 0.06,25.94 -1.36,40.88z"/>
   <path id="svg_101" fill="#ffb573" d="m220.05,343.19l-52.54,-10.14a9.36,9.36 0 0 0 -4.43,-0.29l-14.8,2.54a9.43,9.43 0 0 1 -8.69,-3.06l-7,-7.94a9.47,9.47 0 0 1 1.09,-13.6l2.51,-2.06a9.45,9.45 0 0 1 11.64,-0.28l0,0a9.43,9.43 0 0 0 5.93,1.86l0.87,0a9.45,9.45 0 0 1 9.15,6.15l0.82,2.19l42.83,1.64l12.62,22.99z"/>
   <path id="svg_102" opacity="0.1" d="m157.07,319.81c2.51,-0.49 5,-0.89 7.52,-1.3l-0.81,-2.16a9.45,9.45 0 0 0 -9.15,-6.15l-0.87,0a9.43,9.43 0 0 1 -5.93,-1.86a9.45,9.45 0 0 0 -11.64,0.28l-2.51,2.06a9.48,9.48 0 0 0 -2.58,11.32c4.79,0.45 21.98,-1.41 25.97,-2.19z"/>
   <path id="svg_103" opacity="0.2" d="m236.52,332.42l0,0a39.28,39.28 0 0 1 -5.43,1.85l0,0c-3.49,1 -8.3,2.26 -13.91,3.66c-3.34,0.83 -7,1.7 -10.76,2.6l0,0c-6.28,1.5 -13,3.07 -19.74,4.6c-17.59,4 -35,7.83 -43.08,9.6c0.23,-3.23 0.46,-6.39 0.65,-9.51c-1.41,0.21 -2.73,0.34 -4,0.4l0,-0.24l0.31,-2.21l3.8,-0.86l9.67,-2.2l13.27,-3l9.72,-2.21l14,-3.19l11.62,-2.64l8.57,-1.95l6.44,-1.46s11.73,1.22 17.37,3.19c2.98,1 4.23,2.21 1.5,3.57z"/>
   <path id="svg_104" fill="#ffb573" d="m126.16,318.1l80.63,-1.49a9.55,9.55 0 0 0 4.21,-1.39l12.78,-7.91a9.43,9.43 0 0 1 9.2,-0.42l9.46,4.73a9.49,9.49 0 0 1 4.09,13l-1.53,2.88a9.46,9.46 0 0 1 -10.69,4.62l0,0c-2.06,-0.54 -15,1.57 -17.78,-1.42l-1.6,-1.7l-64.15,15.1a49.88,49.88 0 0 1 -13.89,1.27l0,0l-10.73,-27.27z"/>
   <path id="svg_105" fill="#407BFF" d="m284.4,291.18a17.56,17.56 0 0 1 -7.39,3.07c-17.38,2.88 -28.39,1.42 -42.4,-1c-2.47,-23.25 -1.85,-41.25 2.61,-54.25c1.49,-4.32 5.75,-10.61 10.31,-10.42c19.37,0.81 22.67,20.29 24.88,29.28a159.24,159.24 0 0 0 11.99,33.32z"/>
   <path id="svg_106" opacity="0.6" d="m284.4,291.18a17.56,17.56 0 0 1 -7.39,3.07c-17.38,2.88 -28.39,1.42 -42.4,-1c-2.47,-23.25 -1.85,-41.25 2.61,-54.25c1.49,-4.32 5.75,-10.61 10.31,-10.42c19.37,0.81 22.67,20.29 24.88,29.28a159.24,159.24 0 0 0 11.99,33.32z"/>
   <path id="svg_107" fill="#263238" d="m201.61,157.78c2.39,-6.16 5.89,-9.25 3.82,-8.83c-5.6,1.15 -9.28,-3.7 -13.29,-0.67c-1.91,2.43 0.61,6.68 0.7,6.44c-2,1.09 -4.65,0.43 -6.42,-1s-2.49,-4.12 -3.43,-6.22a12.81,12.81 0 0 0 0.49,7.12c-1.43,1.27 -4.59,-0.85 -6,-2.09a13.84,13.84 0 0 1 -3.26,-5.16c-0.42,2.12 -0.75,4.29 0.86,6.75c-2.11,0.21 -4.9,-0.32 -6.36,-1.86a7.69,7.69 0 0 1 -2.08,-6.08c-0.43,1.1 -0.3,5.55 0.68,6.21c-3.68,-1 -7.21,-5.46 -7.2,-9.28a12,12 0 0 1 5.47,-9.56c1.56,-1 3.32,-1.78 5,-2.7c2.54,-1.41 18.51,-14.72 43.44,-1.53c15.48,8.18 13.35,26 11.64,28c-2.12,2.47 -5.59,3.43 -8.84,3.25s-15.83,-1.16 -15.22,-2.79z"/>
   <path id="svg_108" fill="#263238" d="m204.93,148.9a15.92,15.92 0 0 0 -4.1,13.1c0.71,4.68 7.35,12.3 7,11.83a2.53,2.53 0 0 1 -0.27,-1.61a17.32,17.32 0 0 1 1.59,-6.11c0.56,2.62 1.41,8 4.09,8.07c1.06,-1.93 2.36,-3.69 2.18,-5.89c0.62,2.25 1.18,4.51 1.8,6.76a16.58,16.58 0 0 0 7.4,-16.15a11.26,11.26 0 0 0 -1.53,-4.09a16.67,16.67 0 0 0 -3.46,-3.61c-3.38,-2.87 -7.86,-5.73 -12,-4c-0.52,0.23 -2.86,1.08 -2.7,1.7z"/>
   <path id="svg_109" fill="#263238" d="m188.27,164.1c0,1.56 -0.83,2.81 -1.83,2.84s-1.82,-1.21 -1.9,-2.81s0.83,-2.81 1.84,-2.83s1.9,1.26 1.89,2.8z"/>
  </g>
  <g id="freepik--Sparkles--inject-120">
   <path id="svg_110" fill="#407BFF" d="m34.31,308.41a52,52 0 0 0 1,-6.84c1,-7.73 5.54,-13.71 11.31,-14.88l4.17,-0.86s-6.54,0 -9.27,-1.91c-5.78,-4 -7.11,-16 -7.11,-16s-1.62,12 -7.41,16c-2.73,1.91 -9.27,1.91 -9.27,1.91l4.17,0.86c5.78,1.17 10.36,7.15 11.32,14.88a53.06,53.06 0 0 0 1.09,6.84z"/>
   <g id="svg_111" opacity="0.7">
    <path id="svg_112" fill="#fff" d="m34.31,308.41a52,52 0 0 0 1,-6.84c1,-7.73 5.54,-13.71 11.31,-14.88l4.17,-0.86s-6.54,0 -9.27,-1.91c-5.78,-4 -7.11,-16 -7.11,-16s-1.62,12 -7.41,16c-2.73,1.91 -9.27,1.91 -9.27,1.91l4.17,0.86c5.78,1.17 10.36,7.15 11.32,14.88a53.06,53.06 0 0 0 1.09,6.84z"/>
   </g>
   <path id="svg_113" fill="#407BFF" d="m320,221.71a44.33,44.33 0 0 0 0.9,-5.9c0.83,-6.66 4.78,-11.81 9.76,-12.83l3.59,-0.73s-5.64,0 -8,-1.65c-5,-3.49 -6.13,-13.8 -6.13,-13.8s-1.4,10.31 -6.38,13.8c-2.35,1.65 -8,1.65 -8,1.65l3.6,0.73c5,1 8.93,6.17 9.75,12.83a46.35,46.35 0 0 0 0.91,5.9z"/>
   <g id="svg_114" opacity="0.7">
    <path id="svg_115" fill="#fff" d="m320,221.71a44.33,44.33 0 0 0 0.9,-5.9c0.83,-6.66 4.78,-11.81 9.76,-12.83l3.59,-0.73s-5.64,0 -8,-1.65c-5,-3.49 -6.13,-13.8 -6.13,-13.8s-1.4,10.31 -6.38,13.8c-2.35,1.65 -8,1.65 -8,1.65l3.6,0.73c5,1 8.93,6.17 9.75,12.83a46.35,46.35 0 0 0 0.91,5.9z"/>
   </g>
   <path id="svg_116" fill="#407BFF" d="m119.64,115.66c0.2,-0.08 0.74,-4 1.32,-8.66c1.21,-9.79 7,-17.36 14.33,-18.85l5.28,-1.08s-8.29,0 -11.74,-2.42c-7.33,-5.12 -9,-20.26 -9,-20.26s-2,15.14 -9.37,20.26c-3.46,2.42 -11.74,2.42 -11.74,2.42l5.28,1.08c7.31,1.49 13.11,9.06 14.32,18.85c0.58,4.7 1.11,8.58 1.32,8.66z"/>
   <g id="svg_117" opacity="0.7">
    <path id="svg_118" fill="#fff" d="m119.64,115.66c0.2,-0.08 0.74,-4 1.32,-8.66c1.21,-9.79 7,-17.36 14.33,-18.85l5.28,-1.08s-8.29,0 -11.74,-2.42c-7.33,-5.12 -9,-20.26 -9,-20.26s-2,15.14 -9.37,20.26c-3.46,2.42 -11.74,2.42 -11.74,2.42l5.28,1.08c7.31,1.49 13.11,9.06 14.32,18.85c0.58,4.7 1.11,8.58 1.32,8.66z"/>
   </g>
   <path id="svg_119" fill="#407BFF" d="m349.34,332.32c0.21,-0.08 0.75,-4 1.33,-8.66c1.21,-9.79 7,-17.36 14.33,-18.85l5.28,-1.08s-8.29,0 -11.75,-2.42c-7.32,-5.13 -9,-20.27 -9,-20.27s-2,15.14 -9.38,20.27c-3.45,2.42 -11.74,2.42 -11.74,2.42l5.28,1.08c7.32,1.49 13.12,9.06 14.33,18.85c0.58,4.7 1.12,8.58 1.32,8.66z"/>
   <g id="svg_120" opacity="0.7">
    <path id="svg_121" fill="#fff" d="m349.34,332.32c0.21,-0.08 0.75,-4 1.33,-8.66c1.21,-9.79 7,-17.36 14.33,-18.85l5.28,-1.08s-8.29,0 -11.75,-2.42c-7.32,-5.13 -9,-20.27 -9,-20.27s-2,15.14 -9.38,20.27c-3.45,2.42 -11.74,2.42 -11.74,2.42l5.28,1.08c7.32,1.49 13.12,9.06 14.33,18.85c0.58,4.7 1.12,8.58 1.32,8.66z"/>
   </g>
   <path id="svg_122" fill="#407BFF" d="m265.16,118a33.27,33.27 0 0 0 0.67,-4.38c0.61,-4.94 3.54,-8.77 7.24,-9.53l2.67,-0.54s-4.19,0 -5.93,-1.22c-3.71,-2.59 -4.56,-10.25 -4.56,-10.25s-1,7.66 -4.73,10.25c-1.75,1.22 -5.94,1.22 -5.94,1.22l2.67,0.54c3.7,0.76 6.63,4.59 7.24,9.53a35.36,35.36 0 0 0 0.67,4.38z"/>
   <g id="svg_123" opacity="0.7">
    <path id="svg_124" fill="#fff" d="m265.16,118a33.27,33.27 0 0 0 0.67,-4.38c0.61,-4.94 3.54,-8.77 7.24,-9.53l2.67,-0.54s-4.19,0 -5.93,-1.22c-3.71,-2.59 -4.56,-10.25 -4.56,-10.25s-1,7.66 -4.73,10.25c-1.75,1.22 -5.94,1.22 -5.94,1.22l2.67,0.54c3.7,0.76 6.63,4.59 7.24,9.53a35.36,35.36 0 0 0 0.67,4.38z"/>
   </g>
   <path id="svg_125" fill="#407BFF" d="m36.16,179.53a31.41,31.41 0 0 0 0.67,-4.38c0.61,-4.94 3.55,-8.77 7.24,-9.53l2.67,-0.54s-4.19,0 -5.93,-1.22c-3.7,-2.59 -4.55,-10.24 -4.55,-10.24s-1,7.65 -4.74,10.24c-1.75,1.22 -5.94,1.22 -5.94,1.22l2.67,0.54c3.7,0.76 6.63,4.59 7.24,9.53a35.36,35.36 0 0 0 0.67,4.38z"/>
   <g id="svg_126" opacity="0.7">
    <path id="svg_127" fill="#fff" d="m36.16,179.53a31.41,31.41 0 0 0 0.67,-4.38c0.61,-4.94 3.55,-8.77 7.24,-9.53l2.67,-0.54s-4.19,0 -5.93,-1.22c-3.7,-2.59 -4.55,-10.24 -4.55,-10.24s-1,7.65 -4.74,10.24c-1.75,1.22 -5.94,1.22 -5.94,1.22l2.67,0.54c3.7,0.76 6.63,4.59 7.24,9.53a35.36,35.36 0 0 0 0.67,4.38z"/>
   </g>
  </g>
 </g>
</svg>