<svg width="470" height="320" xmlns="http://www.w3.org/2000/svg">
 <defs>
  <clipPath id="freepik--clip-path--inject-615">
   <path id="svg_1" fill="none" d="m51.64,105.33a2.55,2.55 0 1 1 -4.38,0l-2.95,0a2.58,2.58 0 0 1 0.36,1.29a2.55,2.55 0 1 1 -4.74,-1.29l-3,0a2.48,2.48 0 0 1 0.36,1.29a2.55,2.55 0 1 1 -4.74,-1.29l-2.95,0a2.48,2.48 0 0 1 0.36,1.29a2.55,2.55 0 1 1 -5.09,0a2.48,2.48 0 0 1 0.36,-1.29l-2.95,0a2.55,2.55 0 1 1 -4.74,1.29a2.48,2.48 0 0 1 0.36,-1.29l-2.9,0a2.55,2.55 0 1 1 -4.38,0l-1.85,0l0,52.67l43.84,0l0,-52.67l-0.97,0z"/>
  </clipPath>
 </defs>
 <g>
  <title>Layer 1</title>
  <g opacity="0" id="freepik--background-simple--inject-615">
   <path id="svg_2" fill="#e0e0e0" d="m472.54,6l-2.72,-5.18c-21.5,-41 -63.91,-67.16 -110.17,-66.75a120,120 0 0 0 -15.83,1.18c-42,5.94 -80.14,34.41 -97.76,73c-10.37,22.69 -14.64,49.34 -32.57,66.7c-23.32,22.58 -60.21,20.84 -92.52,17.64s-69.22,-4.85 -92.45,17.84c-14.52,14.18 -31.52,52.25 -31.8,72.57c-0.75,53.84 36.4,105.83 86.5,125.54c52.64,20.7 114,24.07 167.43,17.17c74.8,-9.68 141.79,-47.15 188.21,-106.6s62.86,-143.6 33.68,-213.11z"/>
  </g>
  <g id="freepik--Chair--inject-615">
   <path id="svg_3" fill="#455a64" d="m305.13,192.84a16.4,16.4 0 0 1 16,-13.77c34.54,-0.46 122.48,-1.25 127.2,2.49c5.88,4.67 9,7.06 8.49,14.47c-0.43,6.8 -7.84,124.29 -7.84,124.29l-164.61,0l20.76,-127.48z"/>
   <path id="svg_4" fill="#263238" d="m430.2,320.38a2.49,2.49 0 0 1 -0.05,-0.35c0,-0.25 0,-0.59 -0.08,-1c-0.07,-0.92 -0.17,-2.24 -0.29,-3.91s-0.26,-3.79 -0.34,-6.21s-0.24,-5.18 -0.24,-8.23c0,-1.53 0,-3.13 -0.05,-4.79s0,-3.4 0.06,-5.19c0,-3.59 0.21,-7.42 0.38,-11.45c0.46,-8.06 1.22,-16.9 2.45,-26.13s2.91,-18 4.62,-25.85c0.91,-3.93 1.75,-7.67 2.69,-11.14c0.46,-1.73 0.87,-3.41 1.33,-5s0.91,-3.13 1.33,-4.6c0.82,-2.94 1.71,-5.55 2.43,-7.87s1.41,-4.28 2,-5.89s1,-2.82 1.32,-3.7l0.36,-1c0.08,-0.21 0.13,-0.32 0.13,-0.32a1.58,1.58 0 0 1 -0.08,0.34l-0.31,1c-0.29,0.89 -0.7,2.14 -1.23,3.74s-1.21,3.59 -1.9,5.91s-1.56,4.94 -2.35,7.88c-0.42,1.47 -0.85,3 -1.3,4.61s-0.85,3.29 -1.3,5c-0.92,3.46 -1.74,7.21 -2.64,11.13c-1.69,7.88 -3.29,16.6 -4.57,25.82s-2,18 -2.49,26.08c-0.18,4 -0.4,7.85 -0.43,11.44c0,1.79 -0.09,3.52 -0.09,5.18s0,3.26 0,4.78c0,3.05 0.11,5.81 0.17,8.23s0.15,4.5 0.24,6.2s0.15,3 0.19,3.93c0,0.42 0,0.76 0,1a1.88,1.88 0 0 1 0.04,0.36z"/>
   <path id="svg_5" fill="#263238" d="m337.65,238.21s0.08,0 0.25,-0.1a2.42,2.42 0 0 1 0.76,0a3.43,3.43 0 0 1 2.41,1.42a3.93,3.93 0 0 1 0.24,4.1a5.25,5.25 0 0 1 -1.6,1.93a5,5 0 0 1 -2.55,0.89a4.14,4.14 0 0 1 -2.63,-0.69a3.28,3.28 0 0 1 -1.36,-2.14a4.47,4.47 0 0 1 1.26,-3.94c1.85,-1.58 3.48,-1.63 3.45,-1.48s-0.09,0 -0.25,0a4.16,4.16 0 0 0 -0.7,0.24a7.23,7.23 0 0 0 -2.24,1.45a4.16,4.16 0 0 0 -1.05,3.59a2.79,2.79 0 0 0 1.18,1.81a3.62,3.62 0 0 0 2.3,0.59a4.49,4.49 0 0 0 2.29,-0.79a4.55,4.55 0 0 0 1.47,-1.72a3.58,3.58 0 0 0 -0.11,-3.68a3.41,3.41 0 0 0 -2.13,-1.43a8,8 0 0 0 -0.99,-0.05z"/>
   <path id="svg_6" fill="#263238" d="m363.46,223.28c0,0.11 -1.7,-0.2 -4.42,0.05a20.26,20.26 0 0 0 -16.6,11.67c-1.17,2.47 -1.45,4.16 -1.56,4.14a4.72,4.72 0 0 1 0.19,-1.19a17,17 0 0 1 1,-3.1a19.7,19.7 0 0 1 16.93,-11.85a17.75,17.75 0 0 1 3.27,0.09a4.59,4.59 0 0 1 1.19,0.19z"/>
   <path id="svg_7" fill="#263238" d="m315.72,253.85a3.46,3.46 0 0 1 0.39,-0.85a12.77,12.77 0 0 1 1.45,-2.08a15.43,15.43 0 0 1 15.18,-5.18a13.65,13.65 0 0 1 2.42,0.77a3.62,3.62 0 0 1 0.83,0.43c0,0.1 -1.24,-0.47 -3.32,-0.84a16.08,16.08 0 0 0 -14.84,5.06c-1.41,1.56 -2.02,2.74 -2.11,2.69z"/>
   <path id="svg_8" fill="#263238" d="m347.57,257.94a6.38,6.38 0 0 1 -1.69,-1.22a18.87,18.87 0 0 1 -3.27,-3.85a18.44,18.44 0 0 1 -2.13,-4.57a6,6 0 0 1 -0.41,-2.05a36.91,36.91 0 0 0 3,6.34a38.71,38.71 0 0 0 4.5,5.35z"/>
   <path id="svg_9" fill="#263238" d="m393.23,239.6s0.08,-0.05 0.25,-0.1a2.42,2.42 0 0 1 0.76,0a3.47,3.47 0 0 1 2.41,1.42a4,4 0 0 1 0.25,4.1a5.28,5.28 0 0 1 -1.61,1.93a5,5 0 0 1 -2.55,0.89a4.14,4.14 0 0 1 -2.63,-0.69a3.32,3.32 0 0 1 -1.36,-2.14a4.47,4.47 0 0 1 1.25,-4.01c1.85,-1.57 3.48,-1.63 3.45,-1.48s-0.09,0 -0.25,0.05a4.16,4.16 0 0 0 -0.7,0.24a7.23,7.23 0 0 0 -2.24,1.45a4.16,4.16 0 0 0 -1,3.59a2.83,2.83 0 0 0 1.18,1.81a3.62,3.62 0 0 0 2.3,0.59a4.49,4.49 0 0 0 2.29,-0.79a4.55,4.55 0 0 0 1.47,-1.72a3.58,3.58 0 0 0 -0.11,-3.68a3.41,3.41 0 0 0 -2.13,-1.43a8,8 0 0 0 -1.03,-0.03z"/>
   <path id="svg_10" fill="#263238" d="m419,224.67c0,0.11 -1.7,-0.2 -4.42,0.05a20.26,20.26 0 0 0 -16.58,11.63c-1.17,2.47 -1.45,4.16 -1.56,4.14a4.72,4.72 0 0 1 0.19,-1.19a17,17 0 0 1 1,-3.1a19.7,19.7 0 0 1 16.91,-11.85a17.75,17.75 0 0 1 3.27,0.09a4.59,4.59 0 0 1 1.19,0.23z"/>
   <path id="svg_11" fill="#263238" d="m371.3,255.24a3.46,3.46 0 0 1 0.39,-0.85a13.45,13.45 0 0 1 1.45,-2.08a15.48,15.48 0 0 1 15.18,-5.18a14.09,14.09 0 0 1 2.43,0.77a3,3 0 0 1 0.82,0.44c0,0.09 -1.24,-0.48 -3.32,-0.85a16.06,16.06 0 0 0 -14.83,5.06c-1.42,1.56 -2.03,2.74 -2.12,2.69z"/>
   <path id="svg_12" fill="#263238" d="m403.15,259.33a6.38,6.38 0 0 1 -1.69,-1.22a19.19,19.19 0 0 1 -3.27,-3.85a18.44,18.44 0 0 1 -2.13,-4.57a6,6 0 0 1 -0.41,-2a37,37 0 0 0 3,6.33a38.71,38.71 0 0 0 4.5,5.31z"/>
  </g>
  <g id="freepik--Cushion--inject-615">
   <path id="svg_13" fill="#FF725E" d="m462.61,156.43c-44.3,-43.77 -99.46,-54.22 -99.46,-54.22c-32.8,19.56 -54.93,52.39 -71.78,91.79c28.26,26.15 64.6,51.22 95.7,53.52c49.18,-12.43 75.54,-91.09 75.54,-91.09z"/>
   <g id="svg_14" opacity="0.4">
    <path id="svg_15" d="m462.61,156.43c-44.3,-43.77 -99.46,-54.22 -99.46,-54.22c-32.8,19.56 -54.93,52.39 -71.78,91.79c28.26,26.15 64.6,51.22 95.7,53.52c49.18,-12.43 75.54,-91.09 75.54,-91.09z"/>
   </g>
   <path id="svg_16" fill="#FF725E" d="m446.82,191.18a1.58,1.58 0 0 1 -0.11,-0.3l-0.28,-0.9c-0.25,-0.82 -0.6,-2 -1.06,-3.52l-3.89,-13.23l0.19,0.11l-21.73,7l0.14,-0.13a0.64,0.64 0 0 1 -0.06,0.11c-0.06,0.08 -0.21,0.12 -0.26,0.08a0.28,0.28 0 0 1 -0.14,-0.14a0.9,0.9 0 0 1 0,-0.16l0,-0.24l0,-0.44l0,-0.89l0,-1.78c0,-1.2 0,-2.41 0,-3.65c0,-2.47 0,-5 0,-7.62s-0.11,-5.28 -0.26,-8a71.72,71.72 0 0 0 -0.86,-8.29l0.31,0.2l-19.87,4.61l-12,2.79l-0.26,0.06l0,-0.26c-1.78,-9.34 -3.48,-18.21 -5,-26.39l0.3,0.19a178.15,178.15 0 0 1 -31.56,5.51l-0.16,0l0,-0.16c-0.83,-6.8 -1.49,-12.2 -1.94,-15.93c-0.22,-1.83 -0.38,-3.26 -0.5,-4.24c-0.05,-0.47 -0.08,-0.83 -0.11,-1.1a3.52,3.52 0 0 1 0,-0.37a1.31,1.31 0 0 1 0.07,0.36c0,0.27 0.1,0.63 0.17,1.09c0.13,1 0.33,2.41 0.58,4.24c0.49,3.72 1.2,9.12 2.09,15.91l-0.18,-0.15a181.32,181.32 0 0 0 31.28,-5.55l0.25,-0.07l0,0.25c1.57,8.18 3.28,17.05 5.07,26.38l-0.31,-0.2l12,-2.8l19.76,-4.58l0.26,-0.06l0,0.26a69.3,69.3 0 0 1 0.85,8.35c0.15,2.73 0.21,5.41 0.25,8s0,5.16 0,7.63c0,1.24 0,2.46 0,3.65c0,0.6 0,1.19 0,1.78l0,0.88l0,0.42l0,0.2l0,0.05s0.05,0 0,0s-0.1,0 -0.13,0.05s0,0 0,0l-0.13,-0.08l-0.11,-0.05l0.25,-0.08l21.85,-6.98l0.15,-0.05l0,0.16l3.75,13.27l1,3.54l0.24,0.91a1.12,1.12 0 0 1 0.1,0.35z"/>
   <path id="svg_17" fill="#fafafa" d="m438.35,205.11a1.17,1.17 0 0 1 -0.1,-0.23c-0.07,-0.18 -0.16,-0.41 -0.27,-0.71l-1,-2.76c-0.86,-2.44 -2.1,-6 -3.68,-10.51l0.17,0.09l-25.9,6.92l-0.24,0.06l0,-0.24c-0.62,-4.77 -1.31,-9.88 -2.07,-15.27s-1.57,-11.07 -2.61,-16.9l0.31,0.2l-19,4.41l-12.84,3l-0.26,0.06l0,-0.27c-1.78,-9.33 -3.47,-18.2 -5,-26.38l0.3,0.18a178.28,178.28 0 0 1 -31.56,5.52l-0.16,0l0,-0.15c-0.83,-6.8 -1.49,-12.21 -1.94,-15.93c-0.21,-1.84 -0.38,-3.26 -0.49,-4.25c-0.05,-0.46 -0.09,-0.83 -0.12,-1.09a2.16,2.16 0 0 1 0,-0.38a2.41,2.41 0 0 1 0.07,0.37c0,0.27 0.09,0.63 0.16,1.09c0.13,1 0.33,2.4 0.58,4.23c0.49,3.73 1.2,9.12 2.09,15.91l-0.18,-0.14a181.32,181.32 0 0 0 31.39,-5.65l0.25,-0.07l0,0.25c1.57,8.18 3.28,17 5.08,26.38l-0.31,-0.21l12.83,-3l19,-4.39l0.26,-0.06l0,0.26c1,5.85 1.83,11.53 2.59,16.92s1.42,10.51 2,15.28l-0.27,-0.18l25.94,-6.77l0.12,0l0.05,0.12c1.52,4.53 2.72,8.1 3.55,10.55c0.39,1.21 0.7,2.14 0.92,2.79c0.09,0.3 0.17,0.53 0.22,0.71l0.12,0.24z"/>
   <path id="svg_18" fill="#FF725E" d="m421,226.67s0,-0.29 0,-0.83s0.11,-1.37 0.2,-2.41c0.19,-2.14 0.46,-5.25 0.81,-9.23l0.17,0.14l-26.86,8.92l-0.23,0.08l0,-0.24c-2.12,-11 -4.62,-24 -7.34,-38.09l0.31,0.2l-16.43,3.79l-15.37,3.56l-0.26,0.06l-0.05,-0.26c-1.78,-9.34 -3.47,-18.21 -5,-26.38l0.29,0.18a178.59,178.59 0 0 1 -31.56,5.52l-0.16,0l0,-0.16c-0.83,-6.8 -1.49,-12.21 -1.94,-15.93c-0.21,-1.84 -0.38,-3.26 -0.49,-4.24c-0.05,-0.47 -0.09,-0.83 -0.12,-1.09a2.17,2.17 0 0 1 0,-0.38s0,0.13 0.07,0.37s0.09,0.62 0.16,1.09c0.13,1 0.33,2.4 0.58,4.23c0.49,3.72 1.19,9.11 2.09,15.91l-0.18,-0.14a181.49,181.49 0 0 0 31.46,-5.64l0.25,-0.07l0.05,0.25c1.57,8.17 3.28,17 5.08,26.37l-0.31,-0.2l15.37,-3.57l16.41,-3.77l0.26,-0.06l0,0.27c2.68,14.09 5.16,27.1 7.25,38.1l-0.27,-0.16l26.91,-8.77l0.18,-0.06l0,0.2c-0.4,4 -0.71,7.07 -0.93,9.21c-0.11,1 -0.2,1.84 -0.26,2.41s-0.14,0.82 -0.14,0.82z"/>
   <path id="svg_19" fill="#fafafa" d="m385.25,247.36l-0.06,-0.19l-0.16,-0.57c-0.13,-0.53 -0.32,-1.27 -0.57,-2.21c-0.48,-2 -1.18,-4.82 -2.07,-8.42s-1.91,-8 -3.1,-13s-2.48,-10.69 -3.68,-16.91l0.28,0.19l-31.79,7.4l-0.27,0.07l-0.05,-0.27c-0.16,-0.87 -0.34,-1.81 -0.52,-2.75c-1.58,-8.25 -3.1,-16.2 -4.52,-23.63l0.31,0.19a177.22,177.22 0 0 1 -31.56,5.52l-0.18,0l0,-0.18c-0.81,-6.69 -1.47,-12.1 -1.92,-15.85c-0.22,-1.85 -0.38,-3.29 -0.5,-4.29c-0.05,-0.47 -0.09,-0.84 -0.11,-1.12a1.81,1.81 0 0 1 0,-0.38a1.74,1.74 0 0 1 0.08,0.38l0.16,1.1c0.14,1 0.34,2.44 0.59,4.28c0.5,3.75 1.21,9.15 2.09,15.84l-0.19,-0.16a181.19,181.19 0 0 0 31.46,-5.64l0.25,-0.07l0.06,0.26c1.42,7.44 2.95,15.38 4.54,23.63c0.18,0.94 0.36,1.88 0.52,2.75l-0.31,-0.2l31.81,-7.36l0.23,-0.05l0.05,0.24c1.17,6.2 2.48,11.86 3.6,16.9s2.15,9.43 3,13.07s1.49,6.46 1.94,8.44c0.22,1 0.38,1.7 0.5,2.24l0.12,0.57c-0.03,0.11 -0.02,0.18 -0.03,0.18z"/>
   <path id="svg_20" fill="#FF725E" d="m368.36,243.78a8.43,8.43 0 0 1 -0.37,-1.38l-0.86,-3.86c-0.7,-3.27 -1.66,-7.85 -2.71,-13l0.31,0.2l-3,0.7c-5.85,1.36 -11.16,2.56 -15,3.4l-4.56,1a11.55,11.55 0 0 1 -1.69,0.29a9.87,9.87 0 0 1 1.64,-0.49l4.53,-1.13c3.82,-0.94 9.12,-2.2 15,-3.56l3,-0.69l0.26,-0.06l0,0.26c1,5.19 1.92,9.78 2.54,13.07c0.28,1.59 0.52,2.89 0.7,3.89a9.09,9.09 0 0 1 0.21,1.36z"/>
   <path id="svg_21" fill="#FF725E" d="m331.48,225.56a8.75,8.75 0 0 1 -0.37,-1.41c-0.22,-1 -0.5,-2.32 -0.83,-3.89c-0.68,-3.28 -1.58,-7.83 -2.55,-12.86c-0.05,-0.31 -0.11,-0.61 -0.17,-0.9l0.33,0.2c-4.76,1.29 -9.08,2.21 -12.21,2.77c-1.56,0.29 -2.83,0.49 -3.71,0.61a6.9,6.9 0 0 1 -1.37,0.14a7.86,7.86 0 0 1 1.34,-0.33l3.67,-0.77c3.11,-0.66 7.4,-1.63 12.14,-2.92l0.27,-0.07l0.05,0.27l0.18,0.9c1,5 1.8,9.59 2.39,12.89c0.27,1.58 0.49,2.9 0.67,3.92a7.73,7.73 0 0 1 0.17,1.45z"/>
   <path id="svg_22" fill="#FF725E" d="m294.37,196.75a19.64,19.64 0 0 1 -0.8,-6.34a10.08,10.08 0 0 1 0.66,3.14a9.77,9.77 0 0 1 0.14,3.2z"/>
   <path id="svg_23" fill="#fafafa" d="m454.29,176.57a0.83,0.83 0 0 1 -0.06,-0.25c0,-0.18 -0.09,-0.42 -0.15,-0.73c-0.12,-0.67 -0.29,-1.62 -0.52,-2.85c-0.45,-2.52 -1.09,-6.18 -1.91,-10.8l0.17,0.12l-15.11,2.42l-0.2,0l0,-0.19c-1.52,-9.09 -3.34,-20 -5.35,-32l0.3,0.2l-20.62,4.8l-10.51,2.43l-0.25,0.06l-0.06,-0.25c-2.23,-9.08 -4.31,-17.68 -5.87,-25.61l0.26,0.19l-30.69,4.71l-0.15,0l0,-0.16c-0.59,-4.92 -1.06,-8.81 -1.39,-11.5c-0.14,-1.32 -0.26,-2.34 -0.34,-3.06c0,-0.32 -0.06,-0.58 -0.08,-0.78a0.79,0.79 0 0 1 0,-0.27s0,0.09 0,0.26l0.12,0.78l0.42,3.05c0.36,2.69 0.88,6.57 1.53,11.48l-0.17,-0.13l30.66,-4.88l0.22,0l0.05,0.22c1.58,7.91 3.67,16.51 5.91,25.58l-0.31,-0.19l10.51,-2.44l20.62,-4.78l0.26,-0.06l0,0.26c2,12 3.75,23 5.24,32l-0.22,-0.16l15.12,-2.32l0.15,0l0,0.14c0.76,4.63 1.36,8.3 1.77,10.82c0.2,1.24 0.35,2.19 0.45,2.87c0.05,0.31 0.08,0.55 0.11,0.74a0.94,0.94 0 0 1 0.09,0.28z"/>
   <path id="svg_24" fill="#263238" d="m457.67,155.68a1.23,1.23 0 0 1 -0.28,0.11l-0.83,0.25c-0.72,0.24 -1.81,0.48 -3.17,1a65.41,65.41 0 0 0 -11.12,5a77.75,77.75 0 0 0 -14.58,10.61a100.54,100.54 0 0 0 -14.49,16.67a149,149 0 0 0 -11.09,19.16c-3,6.11 -5.42,11.76 -7.38,16.53s-3.48,8.66 -4.54,11.34c-0.53,1.31 -0.94,2.35 -1.24,3.09c-0.13,0.32 -0.24,0.59 -0.33,0.79a1.53,1.53 0 0 1 -0.13,0.27a1.33,1.33 0 0 1 0.08,-0.29c0.07,-0.21 0.17,-0.48 0.29,-0.81q0.4,-1.12 1.14,-3.12c1,-2.71 2.48,-6.61 4.39,-11.41s4.3,-10.46 7.29,-16.61a146.94,146.94 0 0 1 11.1,-19.26a98.83,98.83 0 0 1 14.59,-16.73a76.19,76.19 0 0 1 14.72,-10.57a60.82,60.82 0 0 1 11.24,-4.82c1.37,-0.47 2.48,-0.68 3.21,-0.89l0.84,-0.2a1.82,1.82 0 0 1 0.29,-0.11z"/>
  </g>
  <g id="freepik--Notes--inject-615">
   <path id="svg_25" fill="#ebebeb" d="m140.22,67l0.14,2.69a2.31,2.31 0 0 1 3.91,1.58a2.31,2.31 0 0 1 -3.72,2l0.15,2.7a2.26,2.26 0 0 1 1.47,-0.64a2.34,2.34 0 0 1 0.25,4.68a2.32,2.32 0 0 1 -1.53,-0.48l0.14,2.7a2.31,2.31 0 0 1 1.47,-0.64a2.34,2.34 0 0 1 0.25,4.67a2.29,2.29 0 0 1 -1.53,-0.47l0.15,2.7a2.26,2.26 0 0 1 1.47,-0.64a2.34,2.34 0 0 1 0.25,4.67a2.26,2.26 0 0 1 -1.53,-0.48l0.14,2.71a2.34,2.34 0 1 1 0.19,3.55l0.15,2.71a2.26,2.26 0 0 1 1.47,-0.64a2.34,2.34 0 0 1 0.25,4.67a2.26,2.26 0 0 1 -1.53,-0.48l0.09,1.68l72.09,-1.73l-3.65,-42l-70.54,4.49z"/>
   <path id="svg_26" fill="#f5f5f5" d="m138.62,65.22l0.15,2.7a2.28,2.28 0 0 1 1.47,-0.64a2.34,2.34 0 1 1 -1.28,4.19l0.14,2.7a2.31,2.31 0 0 1 3.91,1.58a2.31,2.31 0 0 1 -3.72,2l0.15,2.7a2.28,2.28 0 0 1 1.47,-0.64a2.34,2.34 0 1 1 -1.28,4.2l0.14,2.7a2.31,2.31 0 0 1 1.47,-0.64a2.34,2.34 0 0 1 0.25,4.67a2.29,2.29 0 0 1 -1.53,-0.47l0.15,2.7a2.28,2.28 0 0 1 1.47,-0.64a2.34,2.34 0 0 1 0.25,4.67a2.28,2.28 0 0 1 -1.53,-0.48l0.14,2.71a2.34,2.34 0 1 1 0.19,3.55l0.09,1.68l72.08,-3.85l-2.1,-39.23l-72.08,3.84z"/>
   <path id="svg_27" fill="#e0e0e0" d="m211.11,69.12c0,0.15 -16.12,1.12 -36,2.19s-36,1.81 -36,1.67s16.12,-1.13 36,-2.19s36,-1.79 36,-1.67z"/>
   <path id="svg_28" fill="#e0e0e0" d="m211.45,75.4c0,0.14 -16.12,1.12 -36,2.19s-36.05,1.81 -36.05,1.66s16.11,-1.12 36,-2.18s36.04,-1.82 36.05,-1.67z"/>
   <path id="svg_29" fill="#e0e0e0" d="m211.79,81.67c0,0.15 -16.13,1.13 -36,2.19s-36,1.81 -36.05,1.67s16.12,-1.12 36,-2.19s36.04,-1.81 36.05,-1.67z"/>
   <path id="svg_30" fill="#e0e0e0" d="m212.12,88c0,0.14 -16.12,1.12 -36,2.19s-36.05,1.81 -36.05,1.67s16.12,-1.13 36,-2.19s36.04,-1.86 36.05,-1.67z"/>
   <path id="svg_31" fill="#e0e0e0" d="m212.46,94.23c0,0.14 -16.12,1.12 -36,2.18s-36.05,1.82 -36.06,1.67s16.12,-1.12 36,-2.19s36.05,-1.81 36.06,-1.66z"/>
   <rect transform="rotate(-3.06 -165.39 -120.46)" id="svg_32" fill="#FF725E" height="39.28" width="0.5" y="81.19" x="138.05"/>
   <path id="svg_33" fill="#e0e0e0" d="m157.27,103.56c-0.14,0 -0.73,-8.77 -1.31,-19.6s-0.93,-19.62 -0.79,-19.63s0.73,8.77 1.31,19.6s0.94,19.62 0.79,19.63z"/>
   <path id="svg_34" fill="#e0e0e0" d="m144.44,104.24c-0.14,0 -0.73,-8.76 -1.31,-19.59s-0.93,-19.65 -0.79,-19.65s0.73,8.76 1.31,19.6s0.94,19.64 0.79,19.64z"/>
   <path id="svg_35" fill="#e0e0e0" d="m164.3,103.18c-0.14,0 -0.73,-8.77 -1.31,-19.6s-0.93,-19.58 -0.79,-19.58s0.73,8.77 1.31,19.61s0.93,19.56 0.79,19.57z"/>
   <path id="svg_36" fill="#e0e0e0" d="m171.33,102.81c-0.15,0 -0.73,-8.77 -1.31,-19.6s-0.93,-19.62 -0.79,-19.63s0.73,8.76 1.31,19.6s0.93,19.62 0.79,19.63z"/>
   <path id="svg_37" fill="#e0e0e0" d="m178.35,102.43c-0.14,0 -0.72,-8.77 -1.3,-19.6s-0.94,-19.62 -0.79,-19.63s0.73,8.77 1.31,19.6s0.93,19.62 0.78,19.63z"/>
   <path id="svg_38" fill="#e0e0e0" d="m185.38,102.05c-0.14,0 -0.73,-8.76 -1.31,-19.6s-0.93,-19.62 -0.79,-19.62s0.73,8.76 1.31,19.6s0.94,19.62 0.79,19.62z"/>
   <path id="svg_39" fill="#e0e0e0" d="m192.41,101.68c-0.14,0 -0.73,-8.77 -1.31,-19.6s-0.93,-19.62 -0.79,-19.63s0.73,8.77 1.31,19.6s0.93,19.62 0.79,19.63z"/>
   <path id="svg_40" fill="#e0e0e0" d="m199.44,101.3c-0.15,0 -0.73,-8.77 -1.31,-19.6s-0.94,-19.62 -0.79,-19.63s0.73,8.77 1.31,19.61s0.93,19.61 0.79,19.62z"/>
   <path id="svg_41" fill="#e0e0e0" d="m206.46,100.93c-0.14,0 -0.73,-8.77 -1.31,-19.6s-0.93,-19.62 -0.79,-19.63s0.73,8.76 1.31,19.6s0.94,19.62 0.79,19.63z"/>
   <path id="svg_42" fill="#263238" d="m205.59,77.17a1.68,1.68 0 0 1 -0.51,0.08l-1.48,0.13l-5.41,0.36c-4.58,0.29 -10.91,0.64 -17.89,1s-13.33,0.61 -17.91,0.75s-7.43,0.16 -7.42,0l25.3,-1.27l17.9,-0.83l5.42,-0.21l1.48,0a1.61,1.61 0 0 1 0.52,-0.01z"/>
   <path id="svg_43" fill="#263238" d="m207.05,84.34c0,0.14 -11.63,0.79 -26,1.45s-26,1.08 -26,0.93s11.62,-0.79 26,-1.45s25.95,-1.08 26,-0.93z"/>
   <path id="svg_44" fill="#263238" d="m207.82,90.61c0,0.15 -11.62,0.8 -26,1.46s-26,1.07 -26,0.93s11.62,-0.8 26,-1.45s25.99,-1.08 26,-0.94z"/>
   <path id="svg_45" fill="#e0e0e0" d="m146.69,69.33a6.3,6.3 0 0 0 2.31,4a4.12,4.12 0 1 0 1.51,-7.43"/>
   <path id="svg_46" fill="#455a64" d="m146.52,69.32a3.28,3.28 0 1 0 3.1,-3.45a3.28,3.28 0 0 0 -3.1,3.45z"/>
   <path id="svg_47" fill="#455a64" d="m144.63,68.11a2,2 0 0 0 3.93,-0.21a2,2 0 1 0 -3.93,0.21z"/>
   <path id="svg_48" fill="#263238" d="m146.47,69.93c0,-0.08 0.31,-0.06 0.71,-0.21a1.9,1.9 0 0 0 1.12,-1.08a2,2 0 0 0 -0.15,-1.57c-0.2,-0.39 -0.43,-0.57 -0.39,-0.64s0.36,0 0.69,0.43a2.08,2.08 0 0 1 0.34,1.95a2,2 0 0 1 -1.52,1.27c-0.53,0.08 -0.82,-0.08 -0.8,-0.15z"/>
   <path id="svg_49" fill="#263238" d="m148.12,66.8c0.07,-0.13 0.56,0 1.11,-0.12s0.93,-0.47 1,-0.38s-0.15,0.7 -0.93,0.89s-1.3,-0.29 -1.18,-0.39z"/>
   <path id="svg_50" fill="#263238" d="m148.62,71.78c-0.14,0 -0.28,-0.61 -0.8,-1.09s-1.13,-0.59 -1.13,-0.73s0.79,-0.3 1.49,0.35s0.58,1.5 0.44,1.47z"/>
   <path id="svg_51" fill="#e0e0e0" d="m202.09,67a6.33,6.33 0 0 0 2.31,4a4.12,4.12 0 1 0 1.51,-7.43"/>
   <path id="svg_52" fill="#FF725E" d="m208.43,66.13a3.17,3.17 0 1 1 -3.34,-3a3.17,3.17 0 0 1 3.34,3z"/>
   <path id="svg_53" fill="#FF725E" d="m210.11,64.77a1.9,1.9 0 1 1 -2,-1.8a1.89,1.89 0 0 1 2,1.8z"/>
   <path id="svg_54" fill="#263238" d="m208.54,66.71s-0.24,0.25 -0.75,0.23a1.9,1.9 0 0 1 -1.6,-1.06a2,2 0 0 1 0.12,-1.91c0.28,-0.43 0.6,-0.54 0.63,-0.49s-0.15,0.27 -0.3,0.66a1.93,1.93 0 0 0 0,1.51a1.81,1.81 0 0 0 1.18,0.93c0.42,0.1 0.7,0.05 0.72,0.13z"/>
   <path id="svg_55" fill="#263238" d="m206.63,63.87c0.11,0.1 -0.36,0.6 -1.14,0.51s-1.11,-0.69 -1,-0.77s0.51,0.2 1.05,0.26s1.01,-0.12 1.09,0z"/>
   <path id="svg_56" fill="#263238" d="m206.66,68.71c-0.14,0 -0.33,-0.75 0.27,-1.46s1.42,-0.63 1.4,-0.49s-0.57,0.31 -1,0.83s-0.52,1.11 -0.67,1.12z"/>
   <polygon id="svg_57" fill="#e0e0e0" points="85.72000122070312,160.3800048828125 144.6400146484375,167.8900146484375 143.85000610351562,146.32000732421875 85.72000122070312,160.3800048828125 "/>
   <rect transform="rotate(4.77 -128.89 -158.34)" id="svg_58" fill="#455a64" height="18.84" width="56.76" y="123.02" x="111.48"/>
   <path id="svg_59" fill="#263238" d="m135.86,152.39c0,0.14 -9.5,-0.53 -21.19,-1.51s-21.15,-1.88 -21.14,-2s9.5,0.53 21.19,1.5s21.15,1.87 21.14,2.01z"/>
   <path id="svg_60" fill="#263238" d="m135.75,157.29c0,0.14 -9.5,-0.53 -21.19,-1.51s-21.15,-1.88 -21.14,-2s9.49,0.53 21.19,1.5s21.15,1.87 21.14,2.01z"/>
   <polygon id="svg_61" fill="#ebebeb" points="104.010009765625,140.75 125.92999267578125,142.57000732421875 124.77999877929688,143.54998779296875 126.27999877929688,144.8599853515625 124.489990234375,145.67999267578125 126.08999633789062,147.10000610351562 103.1199951171875,145.17999267578125 104.54998779296875,143.97000122070312 103.83999633789062,142.67001342773438 105.07000732421875,142.04000854492188 104.010009765625,140.75 "/>
   <path id="svg_62" fill="#e0e0e0" d="m52.31,106.77a2.55,2.55 0 1 1 -4.38,0l-3,0a2.58,2.58 0 0 1 0.36,1.29a2.55,2.55 0 1 1 -4.74,-1.29l-2.95,0a2.48,2.48 0 0 1 0.36,1.29a2.55,2.55 0 1 1 -4.74,-1.29l-3,0a2.48,2.48 0 0 1 0.36,1.29a2.55,2.55 0 1 1 -5.09,0a2.48,2.48 0 0 1 0.36,-1.29l-3,0a2.48,2.48 0 0 1 0.36,1.29a2.55,2.55 0 1 1 -5.09,0a2.48,2.48 0 0 1 0.36,-1.29l-3,0a2.55,2.55 0 1 1 -4.38,0l-1.85,0l0,52.62l46,2.53l-2.2,-55.15l-0.74,0z"/>
   <g id="svg_63" clip-path="url(#freepik--clip-path--inject-615)">
    <path id="svg_64" fill="#f5f5f5" d="m51.64,105.33a2.55,2.55 0 1 1 -4.38,0l-2.95,0a2.58,2.58 0 0 1 0.36,1.29a2.55,2.55 0 1 1 -4.74,-1.29l-3,0a2.48,2.48 0 0 1 0.36,1.29a2.55,2.55 0 1 1 -4.74,-1.29l-2.95,0a2.48,2.48 0 0 1 0.36,1.29a2.55,2.55 0 1 1 -5.09,0a2.48,2.48 0 0 1 0.36,-1.29l-2.95,0a2.55,2.55 0 1 1 -4.74,1.29a2.48,2.48 0 0 1 0.36,-1.29l-2.9,0a2.55,2.55 0 1 1 -4.38,0l-1.85,0l0,52.67l43.84,0l0,-52.67l-0.97,0z"/>
    <path id="svg_65" fill="#e0e0e0" d="m6.1,160.38c-0.15,0 -0.39,-12.75 -0.55,-28.48s-0.18,-28.49 0,-28.49s0.39,12.75 0.55,28.48s0.14,28.49 0,28.49z"/>
    <path id="svg_66" fill="#e0e0e0" d="m13.14,160.31c-0.15,0 -0.4,-12.75 -0.56,-28.48s-0.17,-28.49 0,-28.49s0.39,12.75 0.55,28.48s0.15,28.49 0.01,28.49z"/>
    <path id="svg_67" fill="#e0e0e0" d="m16.63,160.31c-0.14,0 -0.39,-12.75 -0.55,-28.48s-0.18,-28.49 0,-28.49s0.39,12.75 0.55,28.48s0.14,28.49 0,28.49z"/>
    <path id="svg_68" fill="#e0e0e0" d="m23.74,160.31c-0.14,0 -0.39,-12.75 -0.55,-28.48s-0.17,-28.49 0,-28.49s0.39,12.75 0.55,28.48s0.15,28.49 0,28.49z"/>
    <path id="svg_69" fill="#e0e0e0" d="m30.85,160.31c-0.14,0 -0.39,-12.75 -0.55,-28.48s-0.17,-28.49 0,-28.49s0.39,12.75 0.55,28.48s0.15,28.49 0,28.49z"/>
    <path id="svg_70" fill="#e0e0e0" d="m38,160.31c-0.14,0 -0.39,-12.75 -0.55,-28.48s-0.17,-28.49 0,-28.49s0.39,12.75 0.55,28.48s0.11,28.49 0,28.49z"/>
    <path id="svg_71" fill="#e0e0e0" d="m44.71,160.31c-0.14,0 -0.39,-12.75 -0.55,-28.48s-0.17,-28.49 0,-28.49s0.39,12.75 0.55,28.48s0.15,28.49 0,28.49z"/>
    <path id="svg_72" fill="#e0e0e0" d="m51.46,160.31c-0.14,0 -0.39,-12.75 -0.55,-28.48s-0.18,-28.49 0,-28.49s0.39,12.75 0.55,28.48s0.14,28.49 0,28.49z"/>
    <path id="svg_73" fill="#e0e0e0" d="m20.17,160.24c-0.14,0 -0.39,-12.76 -0.55,-28.49s-0.17,-28.48 0,-28.48s0.39,12.74 0.55,28.48s0.15,28.48 0,28.49z"/>
    <path id="svg_74" fill="#e0e0e0" d="m27.21,160.16c-0.14,0 -0.39,-12.75 -0.55,-28.48s-0.18,-28.48 0,-28.49s0.39,12.75 0.55,28.49s0.14,28.48 0,28.48z"/>
    <path id="svg_75" fill="#e0e0e0" d="m34.25,160.09c-0.15,0 -0.4,-12.75 -0.56,-28.48s-0.17,-28.49 0,-28.49s0.39,12.75 0.55,28.49s0.15,28.48 0.01,28.48z"/>
    <path id="svg_76" fill="#e0e0e0" d="m41.28,160c-0.14,0 -0.39,-12.75 -0.55,-28.48s-0.17,-28.49 0,-28.49s0.39,12.75 0.55,28.48s0.15,28.49 0,28.49z"/>
    <path id="svg_77" fill="#e0e0e0" d="m48,160.38c-0.15,0 -0.39,-12.75 -0.55,-28.48s-0.18,-28.49 0,-28.49s0.39,12.75 0.55,28.48s0.17,28.49 0,28.49z"/>
    <path id="svg_78" fill="#e0e0e0" d="m55.36,159.88c-0.15,0 -0.39,-12.76 -0.56,-28.49s-0.17,-28.48 0,-28.48s0.39,12.74 0.56,28.48s0.14,28.48 0,28.49z"/>
    <path id="svg_79" fill="#e0e0e0" d="m62.91,153.2c0,0.14 -12.76,0.39 -28.48,0.54s-28.49,0.17 -28.49,0s12.75,-0.39 28.48,-0.55s28.48,-0.13 28.49,0.01z"/>
    <path id="svg_80" fill="#e0e0e0" d="m63.2,156.8c0,0.14 -12.75,0.39 -28.48,0.54s-28.49,0.17 -28.49,0s12.75,-0.39 28.49,-0.55s28.48,-0.14 28.48,0.01z"/>
    <path id="svg_81" fill="#e0e0e0" d="m62.84,146.16c0,0.15 -12.76,0.39 -28.48,0.55s-28.49,0.17 -28.49,0s12.75,-0.39 28.48,-0.54s28.48,-0.17 28.49,-0.01z"/>
    <path id="svg_82" fill="#e0e0e0" d="m62.77,139.13c0,0.14 -12.76,0.38 -28.49,0.54s-28.48,0.17 -28.48,0s12.75,-0.38 28.48,-0.54s28.48,-0.13 28.49,0z"/>
    <path id="svg_83" fill="#e0e0e0" d="m62.7,132.09c0,0.14 -12.76,0.39 -28.49,0.54s-28.48,0.17 -28.48,0s12.74,-0.39 28.48,-0.55s28.48,-0.14 28.49,0.01z"/>
    <path id="svg_84" fill="#e0e0e0" d="m62.63,125.05c0,0.15 -12.76,0.39 -28.49,0.55s-28.48,0.16 -28.48,0s12.74,-0.39 28.48,-0.54s28.48,-0.15 28.49,-0.01z"/>
    <path id="svg_85" fill="#e0e0e0" d="m62.55,118c0,0.15 -12.75,0.39 -28.48,0.55s-28.48,0.17 -28.48,0s12.74,-0.38 28.48,-0.54s28.48,-0.14 28.48,-0.01z"/>
    <path id="svg_86" fill="#e0e0e0" d="m62.48,111c0,0.14 -12.75,0.39 -28.48,0.54s-28.48,0.17 -28.49,0s12.75,-0.39 28.49,-0.55s28.48,-0.16 28.48,0.01z"/>
    <path id="svg_87" fill="#e0e0e0" d="m62.48,108.16c0,0.14 -12.75,0.39 -28.48,0.54s-28.48,0.17 -28.49,0s12.75,-0.39 28.49,-0.55s28.48,-0.15 28.48,0.01z"/>
    <path id="svg_88" fill="#e0e0e0" d="m62.48,114.57c0,0.15 -12.75,0.39 -28.48,0.55s-28.48,0.17 -28.49,0s12.75,-0.39 28.49,-0.54s28.48,-0.15 28.48,-0.01z"/>
    <path id="svg_89" fill="#e0e0e0" d="m62.48,121.55c0,0.15 -12.75,0.39 -28.48,0.55s-28.48,0.17 -28.49,0s12.75,-0.38 28.49,-0.54s28.48,-0.15 28.48,-0.01z"/>
    <path id="svg_90" fill="#e0e0e0" d="m62.48,128.53c0,0.15 -12.75,0.39 -28.48,0.55s-28.48,0.17 -28.49,0s12.75,-0.38 28.49,-0.54s28.48,-0.15 28.48,-0.01z"/>
    <path id="svg_91" fill="#e0e0e0" d="m62.48,135.52c0,0.14 -12.75,0.38 -28.48,0.54s-28.48,0.17 -28.49,0s12.75,-0.38 28.49,-0.54s28.48,-0.15 28.48,0z"/>
    <path id="svg_92" fill="#e0e0e0" d="m62.48,142.5c0,0.14 -12.75,0.38 -28.48,0.54s-28.48,0.17 -28.49,0s12.75,-0.39 28.49,-0.55s28.48,-0.14 28.48,0.01z"/>
    <path id="svg_93" fill="#e0e0e0" d="m62.48,149.48c0,0.14 -12.75,0.38 -28.48,0.54s-28.48,0.17 -28.49,0s12.75,-0.39 28.49,-0.55s28.48,-0.14 28.48,0.01z"/>
    <path id="svg_94" fill="none" d="m51.64,105.33a2.55,2.55 0 1 1 -4.38,0l-2.95,0a2.58,2.58 0 0 1 0.36,1.29a2.55,2.55 0 1 1 -4.74,-1.29l-3,0a2.48,2.48 0 0 1 0.36,1.29a2.55,2.55 0 1 1 -4.74,-1.29l-2.95,0a2.48,2.48 0 0 1 0.36,1.29a2.55,2.55 0 1 1 -5.09,0a2.48,2.48 0 0 1 0.36,-1.29l-2.95,0a2.55,2.55 0 1 1 -4.74,1.29a2.48,2.48 0 0 1 0.36,-1.29l-2.9,0a2.55,2.55 0 1 1 -4.38,0l-1.85,0l0,52.67l43.84,0l0,-52.67l-0.97,0z"/>
   </g>
   <path id="svg_95" fill="#e0e0e0" d="m27.68,113a6.3,6.3 0 0 0 2.31,4a4.12,4.12 0 1 0 1.51,-7.43"/>
   <path id="svg_96" fill="#FF725E" d="m27.6,112.94a3.28,3.28 0 1 0 3.1,-3.45a3.28,3.28 0 0 0 -3.1,3.45z"/>
   <path id="svg_97" fill="#FF725E" d="m25.72,111.73a2,2 0 1 0 1.86,-2.07a2,2 0 0 0 -1.86,2.07z"/>
   <path id="svg_98" fill="#263238" d="m27.55,113.55c0,-0.08 0.31,-0.05 0.71,-0.2a1.92,1.92 0 0 0 1.12,-1.09a2,2 0 0 0 -0.15,-1.57c-0.2,-0.38 -0.43,-0.57 -0.39,-0.63s0.36,0 0.69,0.42a2.08,2.08 0 0 1 0.34,2a2,2 0 0 1 -1.52,1.27c-0.52,0.03 -0.82,-0.15 -0.8,-0.2z"/>
   <path id="svg_99" fill="#263238" d="m29.2,110.42c0.07,-0.13 0.56,0 1.11,-0.11s0.93,-0.47 1.05,-0.39s-0.15,0.71 -0.93,0.89s-1.32,-0.28 -1.23,-0.39z"/>
   <path id="svg_100" fill="#263238" d="m29.7,115.4c-0.14,0 -0.28,-0.61 -0.79,-1.09s-1.14,-0.59 -1.14,-0.73s0.79,-0.29 1.49,0.35s0.59,1.5 0.44,1.47z"/>
   <path id="svg_101" fill="#263238" d="m47.7,124.13c0,0.14 -7,0.26 -15.62,0.26s-15.63,-0.12 -15.63,-0.26s7,-0.26 15.63,-0.26s15.62,0.13 15.62,0.26z"/>
   <path id="svg_102" fill="#263238" d="m47.7,127.38c0,0.14 -7,0.26 -15.62,0.26s-15.63,-0.12 -15.63,-0.26s7,-0.26 15.63,-0.26s15.62,0.11 15.62,0.26z"/>
   <path id="svg_103" fill="#263238" d="m47.7,130.63c0,0.14 -7,0.26 -15.62,0.26s-15.63,-0.12 -15.63,-0.26s7,-0.26 15.63,-0.26s15.62,0.11 15.62,0.26z"/>
   <path id="svg_104" fill="#263238" d="m47.7,133.87c0,0.15 -7,0.26 -15.62,0.26s-15.63,-0.11 -15.63,-0.26s7,-0.26 15.63,-0.26s15.62,0.12 15.62,0.26z"/>
   <path id="svg_105" fill="#263238" d="m47.7,137.12c0,0.15 -7,0.26 -15.62,0.26s-15.63,-0.11 -15.63,-0.26s7,-0.26 15.63,-0.26s15.62,0.14 15.62,0.26z"/>
   <path id="svg_106" fill="#263238" d="m47.7,140.37c0,0.14 -7,0.26 -15.62,0.26s-15.63,-0.12 -15.63,-0.26s7,-0.26 15.63,-0.26s15.62,0.12 15.62,0.26z"/>
   <path id="svg_107" fill="#263238" d="m47.7,143.62c0,0.14 -7,0.26 -15.62,0.26s-15.63,-0.12 -15.63,-0.26s7,-0.26 15.63,-0.26s15.62,0.11 15.62,0.26z"/>
  </g>
  <g id="freepik--Character--inject-615">
   <path id="svg_108" fill="#ffbe9d" d="m90.12,310.21c-0.33,0.07 -1.74,1.5 0.27,3.77s14.13,8.48 16.36,4.77s-3.15,-6.29 -3.15,-6.29l-13.48,-2.25z"/>
   <path id="svg_109" fill="#ffbe9d" d="m103.43,306.21s12.5,-1.38 17.6,-0.73c5.53,0.71 11.4,-2.08 14.88,-5.9a20,20 0 0 0 4.39,-8.84l8,-5.56s0.86,-18.91 -11.75,-15.86l-14.73,0.52s-29,4.8 -33.48,8.41c0,0 -5.46,5.31 -7.05,7.36c-0.6,0.78 -1.11,8.57 4.43,11.23c0,0 -3.27,4.17 -0.39,6.53l1.35,1s-1.87,4.17 -0.11,5.36s15.67,5.41 19.62,2.66s-0.63,-5.92 -2.72,-6.2"/>
   <path id="svg_110" fill="#eb996e" d="m87.85,296.1a12.58,12.58 0 0 1 1.63,0.18c1.05,0.13 2.57,0.32 4.46,0.46c0.94,0.06 2,0.12 3.08,0.14s2.29,0 3.56,0.09a7.32,7.32 0 0 1 3.83,1.21a4.24,4.24 0 0 1 1.87,3.85a3.27,3.27 0 0 1 -1.12,2a5.62,5.62 0 0 1 -1.89,1.05a17.07,17.07 0 0 1 -3.91,0.73a35.26,35.26 0 0 1 -6.69,-0.13c-1.89,-0.2 -3.4,-0.45 -4.44,-0.63a9,9 0 0 1 -1.62,-0.34a11.44,11.44 0 0 1 1.64,0.14c1.06,0.12 2.58,0.31 4.46,0.46a37.93,37.93 0 0 0 6.6,0a17.13,17.13 0 0 0 3.79,-0.73a5.37,5.37 0 0 0 1.72,-0.95a2.8,2.8 0 0 0 0.94,-1.67a3.75,3.75 0 0 0 -1.65,-3.37a7.08,7.08 0 0 0 -3.57,-1.15c-1.22,-0.11 -2.42,-0.07 -3.53,-0.13s-2.16,-0.11 -3.11,-0.21c-1.89,-0.18 -3.4,-0.42 -4.45,-0.62a8,8 0 0 1 -1.6,-0.38z"/>
   <path id="svg_111" fill="#eb996e" d="m86.83,287.07a10.53,10.53 0 0 1 1.63,0.18c1,0.14 2.56,0.34 4.43,0.5s4.11,0.29 6.6,0.29a8.84,8.84 0 0 1 3.95,0.59a3.15,3.15 0 0 1 1.5,1.61a4.07,4.07 0 0 1 0.21,2.24a5.38,5.38 0 0 1 -2.53,3.47a8.68,8.68 0 0 1 -3.8,1.23a37.72,37.72 0 0 1 -6.65,-0.31l-4.44,-0.45a9.48,9.48 0 0 1 -1.63,-0.24a10.75,10.75 0 0 1 1.64,0l4.46,0.29a41.51,41.51 0 0 0 6.57,0.19a8.26,8.26 0 0 0 3.58,-1.19a4.85,4.85 0 0 0 2.28,-3.12a3,3 0 0 0 -1.43,-3.31a8.38,8.38 0 0 0 -3.71,-0.56c-2.51,0 -4.75,-0.19 -6.63,-0.4s-3.39,-0.47 -4.43,-0.67a9.29,9.29 0 0 1 -1.6,-0.34z"/>
   <path id="svg_112" fill="#eb996e" d="m93.28,288.17a16.38,16.38 0 0 1 -1.13,-2.31a14.25,14.25 0 0 1 -1.2,-2.27c0.1,-0.1 1,0.72 1.66,2a4.31,4.31 0 0 1 0.67,2.58z"/>
   <path id="svg_113" fill="#ffbe9d" d="m131.52,270.08l-11.82,-1.57s-33.4,-6.81 -33.73,-5.93s-2,1.19 -0.74,4.77s20.51,6.75 21.37,7.89s1.48,7.77 9,10.82s12.26,2 12.26,2"/>
   <path id="svg_114" fill="#eb996e" d="m127.9,288.08l-0.25,0.07l-0.77,0.11a18,18 0 0 1 -3,0a26.12,26.12 0 0 1 -4.63,-0.82a25.51,25.51 0 0 1 -5.81,-2.26a13.5,13.5 0 0 1 -5.21,-5.44a30.49,30.49 0 0 1 -1.6,-3.89a3.61,3.61 0 0 0 -0.22,-0.44a1.06,1.06 0 0 0 -0.35,-0.22a10.18,10.18 0 0 0 -1,-0.35c-0.7,-0.22 -1.42,-0.41 -2.16,-0.6c-2.94,-0.77 -6.05,-1.51 -9.23,-2.44c-1.59,-0.47 -3.2,-1 -4.8,-1.63a16,16 0 0 1 -2.35,-1.16a5.68,5.68 0 0 1 -1.08,-0.85a2.41,2.41 0 0 1 -0.41,-0.61c-0.11,-0.23 -0.14,-0.44 -0.22,-0.65a4.86,4.86 0 0 1 -0.16,-2.73a3.21,3.21 0 0 1 0.72,-1.18a2.24,2.24 0 0 0 0.33,-0.46s0,0 0.08,-0.13a0.35,0.35 0 0 1 0.19,-0.12a1.12,1.12 0 0 1 0.22,0l0.35,0c1.74,0.11 3.39,0.4 5,0.66c3.27,0.54 6.41,1.12 9.4,1.69c6,1.13 11.34,2.21 15.85,3.14c1.12,0.22 2.2,0.48 3.21,0.65l2.9,0.4l4.63,0.66l2.93,0.44l0.76,0.13l0.26,0.06a0.79,0.79 0 0 1 -0.27,0l-0.76,-0.07l-2.95,-0.35l-4.65,-0.57l-2.91,-0.37c-1,-0.16 -2.09,-0.4 -3.22,-0.61l-15.87,-3c-3,-0.55 -6.13,-1.13 -9.39,-1.66c-1.63,-0.25 -3.31,-0.54 -5,-0.65l-0.3,0l-0.1,0s0,0 0,0s0,-0.08 -0.05,-0.12l0,0c0.39,0.14 0.1,0 0.19,0.09l0,0a2.05,2.05 0 0 1 -0.41,0.59a2.77,2.77 0 0 0 -0.62,1a4.4,4.4 0 0 0 0.17,2.42a2.25,2.25 0 0 0 0.52,1.06a5.26,5.26 0 0 0 1,0.76a16.5,16.5 0 0 0 2.27,1.12c1.57,0.64 3.16,1.15 4.75,1.62c3.16,0.94 6.26,1.68 9.2,2.46c0.74,0.2 1.47,0.4 2.18,0.62a8.39,8.39 0 0 1 1.06,0.38a1.25,1.25 0 0 1 0.54,0.38a2.41,2.41 0 0 1 0.27,0.53a30.17,30.17 0 0 0 1.57,3.86a13.06,13.06 0 0 0 5,5.32a25.58,25.58 0 0 0 5.7,2.3a26.29,26.29 0 0 0 4.57,0.89a20.21,20.21 0 0 0 2.94,0.1c0.34,0 0.6,0 0.77,0l0.22,-0.13z"/>
   <path id="svg_115" fill="#eb996e" d="m99.79,305.62a3.85,3.85 0 0 1 1.23,0.06a11.81,11.81 0 0 1 3.22,0.95a10.6,10.6 0 0 1 2,1.2a3.56,3.56 0 0 1 1.48,2.32a2.87,2.87 0 0 1 -1.48,2.64a5.55,5.55 0 0 1 -3.18,0.66a59.63,59.63 0 0 1 -10.91,-1.61c-1.37,-0.35 -2.46,-0.71 -3.2,-1a5.66,5.66 0 0 1 -1.13,-0.49a5.73,5.73 0 0 1 1.19,0.29c0.76,0.22 1.85,0.52 3.22,0.82a70.77,70.77 0 0 0 10.85,1.45a5.12,5.12 0 0 0 2.89,-0.57a2.39,2.39 0 0 0 1.27,-2.17a3.13,3.13 0 0 0 -1.27,-2a10,10 0 0 0 -1.91,-1.2a17.46,17.46 0 0 0 -4.27,-1.35z"/>
   <path id="svg_116" fill="#FF725E" d="m186.74,237.35s14.81,-24.38 18.14,-40.47s20.53,-41.62 26.12,-48.28s27.75,-14.42 27.75,-14.42l8.18,-4.42l63.39,-5.57s42.17,4.44 54.94,16.09s22.74,38.29 22.74,51.6s12.89,128.64 12.89,128.64l-156.21,-0.2l3.5,-56.86s-18.87,-12.76 -23.86,-23.86s-2.22,-5.55 -2.22,-5.55s-17.71,37.65 -23.81,42.09s-77.05,26.21 -77.05,26.21l-9.71,-37.23l55.21,-27.77z"/>
   <path id="svg_117" fill="#FF725E" d="m371.17,144.93c-1.71,0.53 -22.87,55.18 -24.36,60.15s0,36.29 0,36.29l7,12.93s-2,9.44 -0.5,13.92l-31.32,6s-7.95,-5.47 -15.41,0l-37,3.13s10.85,0.12 7.62,16.76c-3.16,16.3 -5.57,19.88 -5.57,19.88l129.85,-3s14.43,-0.72 12.23,-28.46s-8.39,-104.26 -8.39,-104.26s-9.46,-41 -34.15,-33.34z"/>
   <path id="svg_118" fill="#263238" d="m346.52,237a2.88,2.88 0 0 1 -0.31,-0.67l-0.79,-2c-0.34,-0.85 -0.75,-1.9 -1.15,-3.15s-0.93,-2.64 -1.35,-4.23s-1,-3.32 -1.39,-5.21s-0.86,-3.91 -1.26,-6a110.52,110.52 0 0 1 -1.53,-14.09a113.38,113.38 0 0 1 0.43,-14.17c0.26,-2.16 0.47,-4.22 0.82,-6.13c0.16,-1 0.29,-1.88 0.47,-2.77s0.36,-1.72 0.53,-2.53c0.32,-1.61 0.73,-3 1.06,-4.32s0.64,-2.34 0.93,-3.22s0.49,-1.5 0.65,-2a7.27,7.27 0 0 1 0.26,-0.7a3,3 0 0 1 -0.16,0.73c-0.14,0.51 -0.33,1.19 -0.56,2s-0.56,2 -0.84,3.24s-0.69,2.7 -1,4.32c-0.16,0.81 -0.32,1.65 -0.49,2.53s-0.29,1.8 -0.44,2.75c-0.33,1.91 -0.53,4 -0.77,6.12a106.24,106.24 0 0 0 1.09,28.12c0.39,2.14 0.75,4.17 1.21,6s0.89,3.62 1.32,5.21s0.9,3 1.28,4.24s0.75,2.31 1.06,3.17l0.7,2a6,6 0 0 1 0.23,0.76z"/>
   <path id="svg_119" fill="#263238" d="m391.7,296.27s-0.13,-0.12 -0.34,-0.38l-0.86,-1.15c-0.37,-0.51 -0.83,-1.12 -1.39,-1.8s-1.17,-1.49 -1.92,-2.32s-1.54,-1.76 -2.46,-2.69s-1.92,-1.92 -3,-2.93a74.19,74.19 0 0 0 -7.48,-6a75,75 0 0 0 -8.24,-4.88c-1.33,-0.64 -2.58,-1.27 -3.8,-1.76s-2.34,-1 -3.38,-1.35s-2,-0.69 -2.85,-1s-1.57,-0.5 -2.17,-0.66l-1.38,-0.41a1.81,1.81 0 0 1 -0.48,-0.18a2.22,2.22 0 0 1 0.5,0.08l1.41,0.31c0.61,0.14 1.35,0.32 2.21,0.58s1.83,0.52 2.88,0.92s2.22,0.77 3.43,1.29s2.5,1.1 3.84,1.73a69.18,69.18 0 0 1 8.33,4.88a71.26,71.26 0 0 1 7.5,6.06c1.07,1 2.09,2 3,3s1.71,1.89 2.43,2.75s1.32,1.68 1.87,2.38s1,1.34 1.32,1.86s0.58,0.88 0.79,1.21a2.06,2.06 0 0 1 0.24,0.46z"/>
   <path id="svg_120" fill="#263238" d="m402.63,289c-0.08,0.07 -1.23,-1.24 -3.39,-3a34.36,34.36 0 0 0 -4,-2.8a38.09,38.09 0 0 0 -5.39,-2.61a37.65,37.65 0 0 0 -5.76,-1.62a34.71,34.71 0 0 0 -4.86,-0.57c-2.79,-0.11 -4.52,0.1 -4.53,0a5.38,5.38 0 0 1 1.21,-0.2a12.36,12.36 0 0 1 1.43,-0.13c0.56,0 1.19,-0.07 1.9,0a31.83,31.83 0 0 1 4.94,0.47a34.63,34.63 0 0 1 5.85,1.61a34.26,34.26 0 0 1 5.46,2.68a31.57,31.57 0 0 1 4,2.92c0.55,0.45 1,0.91 1.39,1.3a11.24,11.24 0 0 1 1,1a5.6,5.6 0 0 1 0.75,0.95z"/>
   <path id="svg_121" fill="#263238" d="m390.62,270.71c-0.06,0.09 -1.59,-1.13 -4.39,-2.51a22.74,22.74 0 0 0 -2.34,-1c-0.84,-0.36 -1.78,-0.63 -2.76,-0.94a31.66,31.66 0 0 0 -13.27,-0.91c-1,0.17 -2,0.31 -2.86,0.55a23.71,23.71 0 0 0 -2.46,0.7c-3,1 -4.64,2 -4.69,1.88a6.53,6.53 0 0 1 1.17,-0.71a11.78,11.78 0 0 1 1.43,-0.72a20.53,20.53 0 0 1 2,-0.8a21.31,21.31 0 0 1 2.47,-0.76a27.81,27.81 0 0 1 2.9,-0.62a30.48,30.48 0 0 1 13.47,0.93a24.42,24.42 0 0 1 2.79,1a20.73,20.73 0 0 1 2.35,1.09a19.62,19.62 0 0 1 1.84,1.07a10.62,10.62 0 0 1 1.32,0.9a5.79,5.79 0 0 1 1.03,0.85z"/>
   <path id="svg_122" fill="#263238" d="m314.68,311.69a46.75,46.75 0 0 0 0.92,-5.56a35.92,35.92 0 0 0 -0.05,-6.11a48.76,48.76 0 0 0 -1.3,-7.37a51.67,51.67 0 0 0 -2.49,-7a38.66,38.66 0 0 0 -3,-5.34a51,51 0 0 0 -3.53,-4.41a9.57,9.57 0 0 1 1.15,1a12.77,12.77 0 0 1 1.22,1.32l0.72,0.85c0.25,0.32 0.48,0.66 0.74,1a34.64,34.64 0 0 1 3.1,5.35a43.24,43.24 0 0 1 3.84,14.58a33.82,33.82 0 0 1 -0.06,6.18c-0.05,0.44 -0.1,0.85 -0.14,1.25l-0.22,1.1a11.43,11.43 0 0 1 -0.42,1.74a9.53,9.53 0 0 1 -0.48,1.42z"/>
   <path id="svg_123" fill="#263238" d="m292.91,274.16a1,1 0 0 1 -0.06,-0.29c0,-0.22 -0.08,-0.5 -0.14,-0.85c-0.11,-0.79 -0.27,-1.89 -0.47,-3.29c-0.41,-2.86 -0.94,-7 -1.56,-12.14c-1.23,-10.25 -2.7,-24.45 -3.85,-40.17s-1.75,-30 -2,-40.31c-0.14,-5.16 -0.21,-9.34 -0.23,-12.23c0,-1.41 0,-2.53 0,-3.32l0,-0.87a0.15,0.15 0 1 1 0.06,0c0,0.23 0,0.51 0,0.87c0,0.79 0.06,1.9 0.11,3.32c0.09,2.92 0.22,7.09 0.38,12.22c0.37,10.32 1,24.57 2.17,40.29s2.56,29.9 3.7,40.16c0.58,5.1 1.06,9.24 1.39,12.15c0.16,1.41 0.28,2.51 0.37,3.31c0,0.35 0.07,0.63 0.09,0.86a1.59,1.59 0 0 1 0.04,0.29z"/>
   <path id="svg_124" fill="#263238" d="m241.9,234.77a11.41,11.41 0 0 1 -0.68,-1.53c-0.4,-1 -1,-2.43 -1.75,-4.2c-1.5,-3.53 -3.74,-8.34 -6.42,-13.56s-5.1,-9.85 -6.91,-13.33c-0.87,-1.72 -1.57,-3.11 -2,-4.08a10.92,10.92 0 0 1 -0.67,-1.54a9.27,9.27 0 0 1 0.85,1.44l2.17,4c1.82,3.38 4.38,8 7.06,13.27s4.87,10.07 6.29,13.65c0.71,1.79 1.26,3.25 1.6,4.27a10.61,10.61 0 0 1 0.46,1.61z"/>
   <path id="svg_125" fill="#263238" d="m233.92,216.29a3.06,3.06 0 0 1 -0.91,-0.17c-0.57,-0.14 -1.39,-0.38 -2.4,-0.71a59.23,59.23 0 0 1 -14.78,-7.32c-0.87,-0.6 -1.56,-1.11 -2,-1.48a3.56,3.56 0 0 1 -0.68,-0.61a32.61,32.61 0 0 1 2.91,1.78c1.78,1.12 4.28,2.59 7.16,4s5.56,2.52 7.53,3.26a33.85,33.85 0 0 1 3.17,1.25z"/>
   <path id="svg_126" fill="#263238" d="m220.51,250.44a5.39,5.39 0 0 1 -1.08,-0.65c-0.66,-0.45 -1.64,-1.09 -2.87,-1.83a59.14,59.14 0 0 0 -20.91,-7.83c-1.42,-0.25 -2.57,-0.41 -3.37,-0.51a5.5,5.5 0 0 1 -1.24,-0.21a5.54,5.54 0 0 1 1.26,0c0.8,0 2,0.14 3.41,0.34a52.55,52.55 0 0 1 11,2.8a53.17,53.17 0 0 1 10.1,5.08c1.21,0.8 2.16,1.48 2.79,2a6.85,6.85 0 0 1 0.91,0.81z"/>
   <path id="svg_127" fill="#263238" d="m328.63,124.28a8.06,8.06 0 0 1 -0.06,0.81c-0.07,0.58 -0.16,1.35 -0.27,2.32c-0.26,2 -0.62,4.92 -1.23,8.5a107.72,107.72 0 0 1 -2.8,12.44a58,58 0 0 1 -6.27,14.28a43.78,43.78 0 0 1 -5.21,6.68l-0.2,0.22l-0.19,-0.25a26.45,26.45 0 0 0 -9.49,-7.87a25.22,25.22 0 0 0 -5,-1.84a22.13,22.13 0 0 0 -4.55,-0.61a18.77,18.77 0 0 0 -6.48,0.91c-1.45,0.51 -2.22,0.89 -2.24,0.84a3.6,3.6 0 0 1 0.55,-0.29a13.55,13.55 0 0 1 1.63,-0.72a18.16,18.16 0 0 1 6.55,-1.07a22.09,22.09 0 0 1 4.64,0.56a25.49,25.49 0 0 1 5.1,1.82a26.65,26.65 0 0 1 9.7,8l-0.39,0a44.48,44.48 0 0 0 5.14,-6.6a58.91,58.91 0 0 0 6.27,-14.14a117.36,117.36 0 0 0 2.9,-12.36c0.66,-3.56 1.07,-6.47 1.39,-8.47c0.15,-1 0.28,-1.73 0.37,-2.3a3.56,3.56 0 0 1 0.14,-0.86z"/>
   <polygon id="svg_128" fill="#FF725E" points="329.4800109863281,124.91000366210938 319.8500061035156,112.13999938964844 309.3800048828125,112.47000122070312 275.3599853515625,130.44000244140625 329.4800109863281,124.91000366210938 "/>
   <path id="svg_129" fill="#263238" d="m284.62,160.71a2.3,2.3 0 0 1 -0.55,0a12.18,12.18 0 0 1 -1.57,-0.26a19.49,19.49 0 0 1 -5.37,-2.3a11.78,11.78 0 0 0 -3.65,-1.51a10.75,10.75 0 0 0 -4.52,0a10.57,10.57 0 0 0 -7.55,6.57l-0.54,1.46l0,-1.56c0,-0.39 0,-0.8 0,-1.22c0.12,-7.88 0.13,-15 0.45,-20.19c0.15,-2.58 0.35,-4.67 0.57,-6.1c0.09,-0.72 0.2,-1.27 0.28,-1.64a3.44,3.44 0 0 1 0.14,-0.56c0.05,0 -0.09,0.79 -0.22,2.23s-0.3,3.51 -0.4,6.09c-0.23,5.16 -0.17,12.29 -0.3,20.18c0,0.42 0,0.84 0,1.23l-0.5,-0.1a11,11 0 0 1 7.94,-6.85a11.22,11.22 0 0 1 8.44,1.67a21.13,21.13 0 0 0 5.24,2.42c1.35,0.34 2.12,0.39 2.11,0.44z"/>
   <path id="svg_130" fill="#ffbe9d" d="m319.85,50.3l0,76.7a18.6,18.6 0 0 1 -4.37,12l0,0a56.45,56.45 0 0 1 -15.4,12.75l-15.46,8.71l-12.8,-11.46a18.63,18.63 0 0 1 -6.19,-13.15c-0.22,-5.58 -0.22,-11.21 -0.22,-11.21s-21.67,-1.56 -23.71,-22.93c-1,-10.06 -1.26,-30.67 -1.31,-49.67a41.58,41.58 0 0 1 38.15,-41.53l0.61,-0.05a39.74,39.74 0 0 1 40.7,39.84z"/>
   <path id="svg_131" fill="#eb996e" d="m265.35,124.32s13.61,0 27.24,-10.24c0,0 -5.32,15.94 -26.83,15.78l-0.41,-5.54z"/>
   <path id="svg_132" fill="#263238" d="m247.59,66.39a3.07,3.07 0 0 0 3.2,2.84a2.93,2.93 0 0 0 2.92,-3a3.06,3.06 0 0 0 -3.19,-2.84a2.93,2.93 0 0 0 -2.93,3z"/>
   <path id="svg_133" fill="#263238" d="m245.85,60.65c0.41,0.36 2.58,-1.54 5.87,-1.8s5.84,1.18 6.16,0.75c0.16,-0.2 -0.28,-0.88 -1.4,-1.56a8.37,8.37 0 0 0 -5,-1.09a8,8 0 0 0 -4.63,1.93c-0.92,0.86 -1.2,1.6 -1,1.77z"/>
   <path id="svg_134" fill="#263238" d="m278.87,65.06a3.07,3.07 0 0 0 3.2,2.84a2.94,2.94 0 0 0 2.93,-3a3.07,3.07 0 0 0 -3.2,-2.84a2.94,2.94 0 0 0 -2.93,3z"/>
   <path id="svg_135" fill="#263238" d="m278.22,58.59c0.41,0.36 2.59,-1.54 5.87,-1.8s5.84,1.18 6.16,0.74c0.16,-0.19 -0.28,-0.88 -1.4,-1.55a8.44,8.44 0 0 0 -5,-1.1a8.06,8.06 0 0 0 -4.63,1.93c-0.92,0.86 -1.22,1.61 -1,1.78z"/>
   <path id="svg_136" fill="#263238" d="m268.3,84c0,-0.19 -2.07,-0.38 -5.42,-0.53c-0.84,0 -1.65,-0.11 -1.84,-0.67a4.32,4.32 0 0 1 0.35,-2.54c0.63,-2.1 1.28,-4.29 2,-6.6c2.69,-9.39 4.57,-17.08 4.19,-17.18s-2.87,7.42 -5.56,16.8c-0.65,2.32 -1.27,4.52 -1.85,6.63a4.83,4.83 0 0 0 -0.16,3.33a2.1,2.1 0 0 0 1.48,1.12a5.65,5.65 0 0 0 1.44,0.08c3.31,-0.14 5.38,-0.3 5.37,-0.44z"/>
   <path id="svg_137" fill="#263238" d="m278.17,85.43c-0.54,0 -0.25,3.58 -3.1,6.37s-6.67,2.71 -6.66,3.21c0,0.22 0.91,0.62 2.52,0.53a8.89,8.89 0 0 0 5.57,-2.48a7.72,7.72 0 0 0 2.37,-5.32c0.01,-1.5 -0.46,-2.35 -0.7,-2.31z"/>
   <path id="svg_138" fill="#263238" d="m276.3,45.77c0.4,0.87 3.65,0.17 7.54,0.32s7.11,0.94 7.55,0.09c0.2,-0.4 -0.41,-1.19 -1.74,-2a13.14,13.14 0 0 0 -11.5,-0.31c-1.37,0.73 -2.02,1.49 -1.85,1.9z"/>
   <path id="svg_139" fill="#263238" d="m246.27,51c0.64,0.7 2.84,-0.26 5.56,-0.52s5.07,0.08 5.54,-0.74c0.2,-0.4 -0.22,-1.12 -1.29,-1.74a7.76,7.76 0 0 0 -4.63,-0.85a7.64,7.64 0 0 0 -4.31,1.87c-0.9,0.87 -1.14,1.67 -0.87,1.98z"/>
   <path id="svg_140" fill="#263238" d="m294.68,28.76l0.12,0.08a16.93,16.93 0 0 1 7.2,10.37l0.09,0.43c1.34,6 1.71,12.25 3.11,18.27s1.14,10.62 7.17,12a8,8 0 0 0 8.39,-3.41a5.14,5.14 0 0 0 0.53,-2.86c-0.07,-14.82 2.91,-20.58 1.6,-36a13,13 0 0 0 -6.26,-10.12c-3.42,-2.05 -7.56,-4.12 -11,-2.13s-7.53,9.09 -10.08,12.17"/>
   <path id="svg_141" fill="#ffbe9d" d="m313.43,60.57c0.36,-0.18 14.34,-5.56 15.09,9.11s-14.14,12.38 -14.18,12s-0.91,-21.11 -0.91,-21.11z"/>
   <path id="svg_142" fill="#eb996e" d="m318.54,75.86c0.06,-0.05 0.26,0.17 0.7,0.34a2.54,2.54 0 0 0 1.91,-0.06c1.52,-0.64 2.7,-3.17 2.64,-5.82a8.41,8.41 0 0 0 -0.9,-3.62a2.94,2.94 0 0 0 -2,-1.86a1.29,1.29 0 0 0 -1.47,0.78c-0.18,0.42 -0.07,0.7 -0.15,0.73s-0.32,-0.23 -0.24,-0.84a1.68,1.68 0 0 1 0.53,-0.95a2,2 0 0 1 1.4,-0.44a3.6,3.6 0 0 1 2.78,2.14a8.63,8.63 0 0 1 1.09,4c0.06,3 -1.31,5.8 -3.4,6.52a2.73,2.73 0 0 1 -2.36,-0.27c-0.49,-0.3 -0.58,-0.62 -0.53,-0.65z"/>
   <path id="svg_143" fill="#263238" d="m306.27,17.6c3.12,-6.15 -7.44,-13.74 -14.85,-15.42s-16.63,2.63 -23.61,5.61c-4.41,1.88 -8.75,4.35 -13.54,4.54c-3.21,0.14 -6.36,-0.77 -9.47,-1.59s-6.33,-1.56 -9.51,-1.07s-6.33,2.45 -7.29,5.52s1.1,7 4.31,7.16c-4.23,-1.89 -9.85,1.51 -10.12,6.14s4.88,8.68 9.31,7.33c-2.21,-1.41 -5.19,1.46 -4.71,4s3,4.28 5.45,5.13c6.33,2.17 13.37,0.73 19.51,-1.92s11.71,-6.44 17.78,-9.24s16.22,-7.76 22.68,-6.07c4.76,1.25 8.44,6.56 11,5.11a9,9 0 0 0 4.08,-7a25.7,25.7 0 0 0 -1,-8.3"/>
   <path id="svg_144" fill="#455a64" d="m230.51,22.09c0.12,-0.08 0.84,1 2.56,2.6a20.21,20.21 0 0 0 8.56,4.55a18.59,18.59 0 0 0 13.9,-1.71c4.79,-2.64 8.68,-7.46 13.23,-12.06s10.05,-8.26 15.79,-9.26s11.18,0.64 14.38,3.68a12.85,12.85 0 0 1 4.11,9.18a10.18,10.18 0 0 1 -0.41,2.75c-0.22,0.59 -0.36,0.89 -0.41,0.87a22.82,22.82 0 0 0 0.25,-3.6a12.63,12.63 0 0 0 -4.22,-8.44c-3,-2.7 -8.14,-4.15 -13.46,-3.13s-10.57,4.44 -15,9s-8.47,9.45 -13.6,12.21a20,20 0 0 1 -23.51,-3.61a14.32,14.32 0 0 1 -1.71,-2.15c-0.35,-0.56 -0.5,-0.85 -0.46,-0.88z"/>
   <path id="svg_145" fill="#455a64" d="m317.11,59.63c-0.05,0.05 -0.67,-0.35 -1.32,-1.47a9.84,9.84 0 0 1 -1.16,-5.24c-0.07,-4.74 3.68,-10.14 3.67,-16.69a14.76,14.76 0 0 0 -2.34,-8.6a11.28,11.28 0 0 0 -5.83,-4.25a9.54,9.54 0 0 0 -4.94,-0.26c-1.16,0.29 -1.76,0.61 -1.83,0.5s0.48,-0.56 1.67,-1a9.24,9.24 0 0 1 5.38,-0.19a11.89,11.89 0 0 1 6.64,4.47a15.57,15.57 0 0 1 2.7,9.38a26.72,26.72 0 0 1 -2.06,9.45a27.91,27.91 0 0 0 -2,7.29c-0.46,4.31 1.62,6.52 1.42,6.61z"/>
   <rect transform="rotate(42.82 115.11 -402.01)" id="svg_146" fill="#263238" rx="2.14" height="17.43" width="7.53" y="-200.03001" x="583.86999"/>
   <path id="svg_147" fill="#263238" d="m408.06,195.17s0,0.2 0.06,0.59s0.07,1 0.13,1.72c0.11,1.53 0.26,3.78 0.47,6.7c0.4,5.88 1,14.47 1.71,25.36s1.57,24.08 2.57,39.15q0.36,5.65 0.76,11.65c0.15,2 0.23,4 0.32,6.1a29.36,29.36 0 0 1 0,3.11a30.22,30.22 0 0 1 -0.17,3.15l-0.39,3.18c-0.23,1.05 -0.46,2.11 -0.68,3.17s-0.66,2.08 -1,3.13s-0.84,2.05 -1.38,3c-2.1,3.89 -5.37,7.53 -9.91,9l-0.06,0l-97.83,0l-31,0l-0.34,0l0.09,-0.33c0.95,-3.38 1.89,-6.72 2.82,-10.05q0.71,-2.49 1.39,-5a34.53,34.53 0 0 0 1.16,-4.93a21.43,21.43 0 0 0 -0.86,-9.82a12,12 0 0 0 -2.34,-4.22a6.88,6.88 0 0 0 -4,-2.35l-2.05,-0.32l2,-0.17l36.95,-3.1l-0.11,0a12.62,12.62 0 0 1 8,-2.45a16,16 0 0 1 7.71,2.46l-0.17,0l31.33,-5.9l-0.14,0.24a13.13,13.13 0 0 1 -0.54,-3.69a30.1,30.1 0 0 1 0.1,-3.57a55.29,55.29 0 0 1 0.95,-6.76l0,0.12c-2.51,-4.69 -4.81,-9 -6.94,-12.94l0,-0.06c-0.49,-11.53 -0.67,-20.62 -0.58,-26.82c0,-3.1 0.15,-5.48 0.31,-7.08a12.1,12.1 0 0 1 0.27,-1.8c0.09,-0.4 0.14,-0.6 0.14,-0.6s0,0.21 -0.1,0.61a13.3,13.3 0 0 0 -0.23,1.8c-0.14,1.6 -0.23,4 -0.24,7.07c0,6.2 0.18,15.29 0.71,26.81l0,-0.06c2.13,3.95 4.45,8.23 7,12.91l0,0l0,0.06a56.51,56.51 0 0 0 -0.95,6.76a29.73,29.73 0 0 0 -0.09,3.54a12.88,12.88 0 0 0 0.53,3.58l0.06,0.2l-0.2,0l-31.32,6l-0.08,0l-0.08,-0.05a15.45,15.45 0 0 0 -7.48,-2.36a12.08,12.08 0 0 0 -7.67,2.37l-0.06,0l-0.06,0l-36.94,3.14l0,-0.49a7.33,7.33 0 0 1 4.32,2.5a12.61,12.61 0 0 1 2.44,4.4a21.89,21.89 0 0 1 0.89,10.05a34.24,34.24 0 0 1 -1.17,5q-0.69,2.48 -1.39,5q-1.4,5 -2.81,10l-0.25,-0.33l31,0l97.83,0.07l0,0a15,15 0 0 0 5.67,-3.5a21.12,21.12 0 0 0 3.95,-5.29c0.53,-1 0.91,-2 1.36,-3s0.68,-2.06 1,-3.09s0.45,-2.09 0.68,-3.13s0.26,-2.11 0.39,-3.15a29.82,29.82 0 0 0 0.18,-3.12a29,29 0 0 0 0,-3.09c-0.09,-2.05 -0.16,-4.07 -0.31,-6.07q-0.37,-6 -0.74,-11.66c-1,-15.07 -1.79,-28.27 -2.48,-39.17s-1.21,-19.48 -1.58,-25.36c-0.17,-2.92 -0.31,-5.18 -0.4,-6.71c0,-0.75 -0.07,-1.32 -0.09,-1.72s-0.04,-0.39 -0.04,-0.39z"/>
   <path id="svg_148" fill="#263238" d="m379.74,140.68a19.14,19.14 0 0 1 -1.78,1.11a41.65,41.65 0 0 0 -4.63,3.32a54.32,54.32 0 0 0 -12,14.34a118.46,118.46 0 0 0 -8,17l-2.08,5.32l-0.58,1.45a2.11,2.11 0 0 1 -0.23,0.49a2,2 0 0 1 0.13,-0.53c0.13,-0.39 0.3,-0.88 0.49,-1.48c0.44,-1.28 1.08,-3.12 1.93,-5.39a107.18,107.18 0 0 1 7.89,-17.15a52.08,52.08 0 0 1 12.2,-14.36a35.46,35.46 0 0 1 4.76,-3.2c0.58,-0.35 1.07,-0.56 1.38,-0.72a2.49,2.49 0 0 1 0.52,-0.2z"/>
   <g id="svg_149" opacity="0.3">
    <path id="svg_150" d="m340.6,178.87a66.38,66.38 0 0 0 -5.6,29.91c0.38,10.16 1.6,20.35 0.6,30.48s-4.51,20.46 -12.06,27.27a9.81,9.81 0 0 0 -2.44,2.71a2.75,2.75 0 0 0 0.47,3.35a4,4 0 0 0 3.14,0.33c7.23,-1.26 14.55,-2.16 21.79,-3.41c1.55,-0.27 6.76,-1.29 6.76,-1.29a28.28,28.28 0 0 1 -0.44,-6c0.23,-1.81 0.94,-8 0.94,-8a10.64,10.64 0 0 0 -1.39,-2.58a59.15,59.15 0 0 1 -6,-15.39c-2.47,-5.05 -3.58,-10.13 -4.73,-14.85c-3.17,-13.11 -3.08,-26 -1.06,-42.61"/>
   </g>
   <g id="svg_151" opacity="0.3">
    <path id="svg_152" d="m261.33,163.94c0.59,1.5 1.19,3 1.78,4.51a1.82,1.82 0 0 0 0.86,1.13c0.89,0.34 1.6,-0.75 2,-1.61a11.55,11.55 0 0 1 8.87,-6.23c3,-0.35 6.16,0.53 9.15,-0.09a40.54,40.54 0 0 0 -8.26,-4.11a13.7,13.7 0 0 0 -9.07,-0.09a8.37,8.37 0 0 0 -5.47,6.83"/>
   </g>
   <g id="svg_153" opacity="0.3">
    <path id="svg_154" d="m286.05,160.15a48.72,48.72 0 0 1 10.59,1a16.52,16.52 0 0 1 9.07,5.22c2.42,2.95 3.32,6.82 4.3,10.5c0.19,0.71 0.53,1.55 1.25,1.63a1.78,1.78 0 0 0 1.2,-0.47c6,-4.4 9.94,-11.13 12.1,-18.23s2.66,-14.58 2.78,-22c-2.86,5.11 -4.1,10.93 -6,16.47s-4.67,11.12 -9.57,14.32a4.78,4.78 0 0 0 -1.12,-3.51a10.48,10.48 0 0 0 -2.91,-2.38a27.8,27.8 0 0 0 -22.26,-2.73"/>
   </g>
   <path id="svg_155" fill="#ffbe9d" d="m270.51,277.94l-12.25,0s-27.63,-10 -33.31,-9c-5.12,0.86 -23.85,13.3 -27.52,15.77a2.31,2.31 0 0 0 -0.89,1.13l0,0a4,4 0 0 0 2.24,5.1l0.38,0.16l-0.16,0.56a6.63,6.63 0 0 0 -0.29,2.24a2.7,2.7 0 0 0 5,1.16l-0.7,1.26a3,3 0 0 0 -0.39,1.68l0.06,1.13a3.08,3.08 0 0 0 2.12,2.76l0,0a3.07,3.07 0 0 0 3.2,-0.89c2.38,-2.61 7.51,-7.84 11,-8.42a81.13,81.13 0 0 1 11.34,-0.57a3.85,3.85 0 0 1 3.57,2.45l0,0c-2.06,0.15 -16.42,7.64 -21.5,10.32a5.41,5.41 0 0 0 -2.95,4.09c-0.19,1.59 0.61,3.25 3.76,2.52c6.75,-1.58 18.9,-7.16 18.9,-7.16s6.26,-1.79 10.32,1.07c5.71,4 8.33,5.51 13.23,3.88a41.54,41.54 0 0 0 8.52,-4l9.66,-1s9.15,-22.74 -3.34,-26.24z"/>
   <path id="svg_156" fill="#eb996e" d="m234,282.6c0,0.11 -2,-0.51 -5.19,-0.72a26.78,26.78 0 0 0 -22.33,9.53a51.66,51.66 0 0 0 -3.07,4.25a6.1,6.1 0 0 1 0.61,-1.28a23.23,23.23 0 0 1 2.17,-3.2a25.94,25.94 0 0 1 22.65,-9.66a24,24 0 0 1 3.81,0.64a6.5,6.5 0 0 1 1.35,0.44z"/>
   <path id="svg_157" fill="#eb996e" d="m231.1,275.89a21,21 0 0 0 -18,2.62a50.36,50.36 0 0 0 -10.1,8.57l-2.78,2.92a7.13,7.13 0 0 1 -1.06,1a9.63,9.63 0 0 1 0.91,-1.18c0.61,-0.74 1.51,-1.79 2.66,-3.06a46.54,46.54 0 0 1 10.13,-8.77a23,23 0 0 1 12.85,-3.48a15.44,15.44 0 0 1 4,0.74a9,9 0 0 1 1,0.39l0.39,0.25z"/>
  </g>
  <g id="freepik--Device--inject-615">
   <path id="svg_158" fill="#263238" d="m97.74,320.81l-33.18,-83.29a10.89,10.89 0 0 1 10.08,-15l103.36,0a10.89,10.89 0 0 1 10.31,7.39l28.5,84l33.29,0.16c2.7,0 4.89,4 4.89,6.67l0,0l-36.64,-0.42l-120.61,0.49z"/>
   <path id="svg_159" fill="#FF725E" d="m98.55,241.75a11.56,11.56 0 0 0 -6.68,1.79a8.7,8.7 0 0 0 -1.82,1.51c-1.77,2 -4.93,5.86 -3.67,11.9s5.15,6.87 7,7.07s14.52,-3.41 14.52,-3.41s4.6,-3.91 3,-9.05c-1.47,-4.41 -5.55,-9.56 -12.35,-9.81z"/>
   <path id="svg_160" fill="#f5f5f5" d="m92.49,262.22s0.46,3.23 2.08,4s4.64,0.67 7,0.09s5.76,-1.9 6.16,-3.69a7.53,7.53 0 0 0 -0.2,-4.21a10.55,10.55 0 0 0 -8.52,-0.79a11.26,11.26 0 0 0 -6.52,4.6z"/>
   <g id="svg_161" opacity="0.4">
    <path id="svg_162" fill="#fff" d="m102.78,246.8a6.08,6.08 0 1 1 -7.38,-4.42a6.09,6.09 0 0 1 7.38,4.42z"/>
   </g>
   <g id="svg_163" opacity="0.4">
    <path id="svg_164" fill="#fff" d="m87.43,260a7.8,7.8 0 0 0 1.73,-5.16a7.6,7.6 0 0 0 -2.26,-4.84a14.92,14.92 0 0 0 -0.66,6.15a11.11,11.11 0 0 0 1.19,3.85z"/>
   </g>
   <g id="svg_165" opacity="0.4">
    <path id="svg_166" fill="#fff" d="m111.2,254.05a7.73,7.73 0 0 1 -3.95,-3.73a6.87,6.87 0 0 1 -0.39,-5.09a16.89,16.89 0 0 1 3.45,4.85c1.18,2.79 0.89,3.97 0.89,3.97z"/>
   </g>
   <path id="svg_167" fill="#f5f5f5" d="m145.52,275.09a6.72,6.72 0 1 1 -6.72,-6.71a6.72,6.72 0 0 1 6.72,6.71z"/>
  </g>
 </g>
</svg>