<svg id="visual" viewBox="0 0 1200 700" width="1200" height="700" xmlns="http://www.w3.org/2000/svg" xmlns:xlink="http://www.w3.org/1999/xlink" version="1.1"><path d="M0 114L28.5 110.2C57 106.3 114 98.7 171.2 106C228.3 113.3 285.7 135.7 342.8 136.7C400 137.7 457 117.3 514.2 119.2C571.3 121 628.7 145 685.8 148.3C743 151.7 800 134.3 857.2 126.3C914.3 118.3 971.7 119.7 1028.8 127.7C1086 135.7 1143 150.3 1171.5 157.7L1200 165L1200 0L1171.5 0C1143 0 1086 0 1028.8 0C971.7 0 914.3 0 857.2 0C800 0 743 0 685.8 0C628.7 0 571.3 0 514.2 0C457 0 400 0 342.8 0C285.7 0 228.3 0 171.2 0C114 0 57 0 28.5 0L0 0Z" fill="#c6c7ca"></path><path d="M0 75L28.5 73.2C57 71.3 114 67.7 171.2 68.3C228.3 69 285.7 74 342.8 78.2C400 82.3 457 85.7 514.2 83.2C571.3 80.7 628.7 72.3 685.8 72.3C743 72.3 800 80.7 857.2 81.2C914.3 81.7 971.7 74.3 1028.8 72.5C1086 70.7 1143 74.3 1171.5 76.2L1200 78L1200 0L1171.5 0C1143 0 1086 0 1028.8 0C971.7 0 914.3 0 857.2 0C800 0 743 0 685.8 0C628.7 0 571.3 0 514.2 0C457 0 400 0 342.8 0C285.7 0 228.3 0 171.2 0C114 0 57 0 28.5 0L0 0Z" fill="#72757b"></path><path d="M0 26L28.5 29.3C57 32.7 114 39.3 171.2 46.7C228.3 54 285.7 62 342.8 61.2C400 60.3 457 50.7 514.2 47C571.3 43.3 628.7 45.7 685.8 44.3C743 43 800 38 857.2 34.8C914.3 31.7 971.7 30.3 1028.8 35C1086 39.7 1143 50.3 1171.5 55.7L1200 61L1200 0L1171.5 0C1143 0 1086 0 1028.8 0C971.7 0 914.3 0 857.2 0C800 0 743 0 685.8 0C628.7 0 571.3 0 514.2 0C457 0 400 0 342.8 0C285.7 0 228.3 0 171.2 0C114 0 57 0 28.5 0L0 0Z" fill="#282c34"></path></svg>