<svg id="visual" viewBox="0 0 900 600" width="900" height="600" xmlns="http://www.w3.org/2000/svg" xmlns:xlink="http://www.w3.org/1999/xlink" version="1.1"><path d="M0 514L13.7 513.5C27.3 513 54.7 512 82 517.3C109.3 522.7 136.7 534.3 163.8 532.7C191 531 218 516 245.2 520.2C272.3 524.3 299.7 547.7 327 548.8C354.3 550 381.7 529 409 516.3C436.3 503.7 463.7 499.3 491 509.7C518.3 520 545.7 545 573 551.5C600.3 558 627.7 546 654.8 536.5C682 527 709 520 736.2 523.8C763.3 527.7 790.7 542.3 818 546.3C845.3 550.3 872.7 543.7 886.3 540.3L900 537L900 601L886.3 601C872.7 601 845.3 601 818 601C790.7 601 763.3 601 736.2 601C709 601 682 601 654.8 601C627.7 601 600.3 601 573 601C545.7 601 518.3 601 491 601C463.7 601 436.3 601 409 601C381.7 601 354.3 601 327 601C299.7 601 272.3 601 245.2 601C218 601 191 601 163.8 601C136.7 601 109.3 601 82 601C54.7 601 27.3 601 13.7 601L0 601Z" fill="#fafafa" stroke-linecap="round" stroke-linejoin="miter"></path></svg>