<svg width="1200" height="170" xmlns="http://www.w3.org/2000/svg" version="1.1">

 <g>
  <title>Layer 1</title>
  <path id="svg_1" fill="#c6c7ca" d="m0,114l28.5,-3.8c28.5,-3.9 85.5,-11.5 142.7,-4.2c57.1,7.3 114.5,29.7 171.6,30.7c57.2,1 114.2,-19.4 171.4,-17.5c57.1,1.8 114.5,25.8 171.6,29.1c57.2,3.4 114.2,-14 171.4,-22c57.1,-8 114.5,-6.6 171.6,1.4c57.2,8 114.2,22.6 142.7,30l28.5,7.3l0,-165l-28.5,0c-28.5,0 -85.5,0 -142.7,0c-57.1,0 -114.5,0 -171.6,0c-57.2,0 -114.2,0 -171.4,0c-57.1,0 -114.5,0 -171.6,0c-57.2,0 -114.2,0 -171.4,0c-57.1,0 -114.5,0 -171.6,0c-57.2,0 -114.2,0 -142.7,0l-28.5,0l0,114z"/>
  <path id="svg_2" fill="#72757b" d="m0,75l28.5,-1.8c28.5,-1.9 85.5,-5.5 142.7,-4.9c57.1,0.7 114.5,5.7 171.6,9.9c57.2,4.1 114.2,7.5 171.4,5c57.1,-2.5 114.5,-10.9 171.6,-10.9c57.2,0 114.2,8.4 171.4,8.9c57.1,0.5 114.5,-6.9 171.6,-8.7c57.2,-1.8 114.2,1.8 142.7,3.7l28.5,1.8l0,-78l-28.5,0c-28.5,0 -85.5,0 -142.7,0c-57.1,0 -114.5,0 -171.6,0c-57.2,0 -114.2,0 -171.4,0c-57.1,0 -114.5,0 -171.6,0c-57.2,0 -114.2,0 -171.4,0c-57.1,0 -114.5,0 -171.6,0c-57.2,0 -114.2,0 -142.7,0l-28.5,0l0,75z"/>
  <path id="svg_3" fill="#282c34" d="m0,26l28.5,3.3c28.5,3.4 85.5,10 142.7,17.4c57.1,7.3 114.5,15.3 171.6,14.5c57.2,-0.9 114.2,-10.5 171.4,-14.2c57.1,-3.7 114.5,-1.3 171.6,-2.7c57.2,-1.3 114.2,-6.3 171.4,-9.5c57.1,-3.1 114.5,-4.5 171.6,0.2c57.2,4.7 114.2,15.3 142.7,20.7l28.5,5.3l0,-61l-28.5,0c-28.5,0 -85.5,0 -142.7,0c-57.1,0 -114.5,0 -171.6,0c-57.2,0 -114.2,0 -171.4,0c-57.1,0 -114.5,0 -171.6,0c-57.2,0 -114.2,0 -171.4,0c-57.1,0 -114.5,0 -171.6,0c-57.2,0 -114.2,0 -142.7,0l-28.5,0l0,26z"/>
 </g>
</svg>