<svg width="900" height="170" xmlns="http://www.w3.org/2000/svg" version="1.1">

 <g>
  <title>Layer 1</title>
  <path id="svg_1" fill="#e3e3e3" d="m0,22.0909l25,-1.5c25,-1.5 75,-4.5 125,-4.8c50,-0.4 100,2 150,9.8c50,7.8 100,21.2 150,23c50,1.8 100,-7.8 150,-19.7c50,-11.8 100,-25.8 150,-22.3c50,3.5 100,24.5 125,35l25,10.5l0,128l-25,0c-25,0 -75,0 -125,0c-50,0 -100,0 -150,0c-50,0 -100,0 -150,0c-50,0 -100,0 -150,0c-50,0 -100,0 -150,0c-50,0 -100,0 -125,0l-25,0l0,-158z"/>
  <path id="svg_2" fill="#a5acb2" d="m0,50.1818l25,6.7c25,6.6 75,20 125,21.5c50,1.5 100,-8.9 150,-11.2c50,-2.3 100,3.3 150,7c50,3.7 100,5.3 150,-3.8c50,-9.2 100,-29.2 150,-38.7c50,-9.5 100,-8.5 125,-8l25,0.5l0,155l-25,0c-25,0 -75,0 -125,0c-50,0 -100,0 -150,0c-50,0 -100,0 -150,0c-50,0 -100,0 -150,0c-50,0 -100,0 -150,0c-50,0 -100,0 -125,0l-25,0l0,-129z"/>
  <path id="svg_3" fill="#6a7783" d="m0,83.1818l25,6.5c25,6.5 75,19.5 125,25.5c50,6 100,5 150,-4.3c50,-9.4 100,-27 150,-32.2c50,-5.2 100,2.2 150,8.5c50,6.3 100,11.7 150,10c50,-1.7 100,-10.3 125,-14.7l25,-4.3l0,101l-25,0c-25,0 -75,0 -125,0c-50,0 -100,0 -150,0c-50,0 -100,0 -150,0c-50,0 -100,0 -150,0c-50,0 -100,0 -150,0c-50,0 -100,0 -125,0l-25,0l0,-96z"/>
  <path id="svg_4" fill="#334756" d="m0,134.1818l25,0.8c25,0.9 75,2.5 125,1.5c50,-1 100,-4.6 150,-2.6c50,2 100,9.6 150,10.8c50,1.2 100,-4.2 150,-9.5c50,-5.3 100,-10.7 150,-12.5c50,-1.8 100,-0.2 125,0.7l25,0.8l0,55l-25,0c-25,0 -75,0 -125,0c-50,0 -100,0 -150,0c-50,0 -100,0 -150,0c-50,0 -100,0 -150,0c-50,0 -100,0 -150,0c-50,0 -100,0 -125,0l-25,0l0,-45z"/>
 </g>
</svg>