<?xml version="1.0" encoding="UTF-8"?><svg xmlns="http://www.w3.org/2000/svg" xmlns:xlink="http://www.w3.org/1999/xlink" contentScriptType="text/ecmascript" width="375" zoomAndPan="magnify" contentStyleType="text/css" viewBox="0 0 375 374.999991" height="374.999991" preserveAspectRatio="xMidYMid meet" version="1.0"><defs><clipPath id="clip-0"><path d="M 76.484375 148 L 173 148 L 173 242 L 76.484375 242 Z M 76.484375 148 " clip-rule="nonzero"/></clipPath><clipPath id="clip-1"><path d="M 202 148 L 298.480469 148 L 298.480469 242 L 202 242 Z M 202 148 " clip-rule="nonzero"/></clipPath><clipPath id="clip-2"><path d="M 135 218 L 241 218 L 241 273.8125 L 135 273.8125 Z M 135 218 " clip-rule="nonzero"/></clipPath></defs><path fill="rgb(22.349548%, 20.779419%, 21.179199%)" d="M 187.5 20.222656 C 105.722656 20.222656 39.84375 86.101562 39.84375 167.878906 C 39.84375 249.660156 105.722656 315.535156 187.5 315.535156 C 268.523438 315.535156 335.15625 249.660156 335.15625 167.878906 C 335.15625 86.101562 268.523438 20.222656 187.5 20.222656 Z M 187.5 292.820312 C 118.59375 292.820312 62.558594 236.785156 62.558594 167.878906 C 62.558594 98.972656 118.59375 42.941406 187.5 42.941406 C 256.40625 42.941406 312.441406 98.972656 312.441406 167.878906 C 312.441406 236.785156 256.40625 292.820312 187.5 292.820312 Z M 187.5 292.820312 " fill-opacity="1" fill-rule="nonzero"/><path fill="rgb(21.958923%, 71.369934%, 100%)" d="M 187.5 42.941406 C 118.59375 42.941406 62.558594 98.972656 62.558594 167.878906 C 62.558594 236.785156 118.59375 292.820312 187.5 292.820312 C 256.40625 292.820312 312.441406 236.785156 312.441406 167.878906 C 312.441406 98.972656 256.40625 42.941406 187.5 42.941406 Z M 187.5 42.941406 " fill-opacity="1" fill-rule="nonzero"/><g clip-path="url(#clip-0)"><path fill="rgb(100%, 100%, 100%)" d="M 168.683594 184.109375 C 169.75 182.742188 169.835938 180.652344 168.683594 179.542969 C 167.316406 178.4375 165.273438 178.390625 164.121094 179.542969 L 141.703125 201.191406 C 140.984375 201.882812 139.835938 201.875 139.125 201.171875 L 138.78125 200.824219 C 138.074219 200.113281 138.058594 198.96875 138.757812 198.246094 L 171.242188 164.492188 C 172.730469 162.949219 172.730469 160.992188 171.242188 159.496094 C 169.707031 157.960938 167.359375 157.960938 165.828125 159.496094 L 132.242188 191.640625 C 131.535156 192.316406 130.421875 192.324219 129.707031 191.652344 L 129.390625 191.359375 C 128.648438 190.652344 128.621094 189.472656 129.335938 188.738281 L 161.816406 155.101562 C 163.351562 153.570312 163.351562 151.605469 161.859375 150.113281 C 160.328125 148.582031 157.9375 148.582031 156.4375 150.113281 L 122.78125 182.042969 C 122.105469 182.683594 121.054688 182.71875 120.34375 182.128906 C 119.523438 181.445312 119.449219 180.214844 120.183594 179.4375 L 141.773438 156.808594 C 142.539062 156.210938 142.875 155.484375 142.925781 154.636719 C 143.003906 153.613281 142.582031 152.589844 141.808594 151.820312 C 140.363281 150.375 137.851562 150.375 136.398438 151.820312 L 108.117188 178.816406 L 102.234375 184.402344 L 102.035156 184.136719 L 110.847656 166.109375 C 111.78125 164.1875 111.445312 162.101562 109.953125 160.90625 C 109.140625 160.09375 108.160156 159.796875 107.183594 159.882812 C 106.117188 160.003906 105.171875 160.523438 104.617188 161.375 L 90.039062 181.097656 C 89.617188 181.675781 89.335938 182.34375 89.226562 183.050781 L 85.714844 205.445312 L 76.894531 214.5625 L 103.71875 241.421875 L 108.03125 238.015625 C 108.203125 237.886719 124.582031 228.636719 131.191406 222.449219 L 146.851562 206.671875 L 168.683594 184.109375 " fill-opacity="1" fill-rule="nonzero"/></g><g clip-path="url(#clip-1)"><path fill="rgb(100%, 100%, 100%)" d="M 289.25 205.445312 L 285.738281 183.050781 C 285.628906 182.34375 285.347656 181.675781 284.925781 181.097656 L 270.347656 161.375 C 269.792969 160.523438 268.847656 160.003906 267.78125 159.882812 C 266.804688 159.796875 265.824219 160.09375 265.011719 160.90625 C 263.519531 162.101562 263.175781 164.1875 264.117188 166.109375 L 272.929688 184.136719 L 272.730469 184.402344 L 266.847656 178.816406 L 238.566406 151.820312 C 237.121094 150.375 234.601562 150.375 233.15625 151.820312 C 232.382812 152.589844 231.960938 153.613281 232.046875 154.636719 C 232.082031 155.484375 232.425781 156.210938 233.199219 156.808594 L 254.78125 179.4375 C 255.515625 180.214844 255.441406 181.445312 254.621094 182.128906 C 253.910156 182.71875 252.859375 182.683594 252.183594 182.042969 L 218.527344 150.113281 C 217.027344 148.582031 214.636719 148.582031 213.105469 150.113281 C 211.613281 151.605469 211.613281 153.570312 213.148438 155.101562 L 245.636719 188.738281 C 246.34375 189.472656 246.320312 190.652344 245.574219 191.359375 L 245.257812 191.652344 C 244.542969 192.324219 243.429688 192.316406 242.722656 191.640625 L 209.136719 159.496094 C 207.605469 157.960938 205.257812 157.960938 203.722656 159.496094 C 202.234375 160.992188 202.234375 162.949219 203.722656 164.492188 L 236.207031 198.246094 C 236.90625 198.96875 236.890625 200.113281 236.183594 200.824219 L 235.839844 201.171875 C 235.128906 201.875 233.980469 201.882812 233.261719 201.191406 L 210.84375 179.542969 C 209.691406 178.390625 207.648438 178.4375 206.28125 179.542969 C 205.128906 180.652344 205.214844 182.742188 206.28125 184.109375 L 228.121094 206.671875 L 243.773438 222.449219 C 250.382812 228.636719 266.761719 237.886719 266.933594 238.015625 L 271.246094 241.421875 L 298.070312 214.5625 L 289.25 205.445312 " fill-opacity="1" fill-rule="nonzero"/></g><g clip-path="url(#clip-2)"><path fill="rgb(100%, 100%, 100%)" d="M 237.445312 228.730469 L 228.90625 220.125 C 228.539062 220.523438 228.15625 220.925781 227.777344 221.320312 C 214.4375 235.273438 201.636719 246.683594 188.714844 256.144531 C 182.25 251.421875 175.828125 246.195312 169.339844 240.421875 C 162.859375 234.632812 156.324219 228.296875 149.652344 221.320312 C 148.867188 220.5 148.089844 219.679688 147.316406 218.851562 L 137.289062 228.960938 C 136.84375 229.375 136.367188 229.808594 135.847656 230.234375 C 136.539062 230.988281 137.253906 231.738281 137.972656 232.488281 C 151.285156 246.417969 165.625 259.503906 181.3125 270.734375 C 183.445312 272.707031 186.09375 273.789062 188.714844 273.859375 C 191.335938 273.789062 193.984375 272.707031 196.113281 270.734375 C 211.808594 259.503906 226.140625 246.417969 239.460938 232.488281 C 239.8125 232.121094 240.167969 231.753906 240.496094 231.386719 C 239.460938 230.542969 238.503906 229.742188 237.675781 228.960938 L 237.445312 228.730469 " fill-opacity="1" fill-rule="nonzero"/></g><path fill="rgb(100%, 100%, 100%)" d="M 97.347656 156.21875 C 97.988281 155.28125 98.765625 154.457031 99.636719 153.742188 C 98.175781 149.472656 97.3125 145.097656 97.3125 140.65625 C 97.3125 130.113281 101.410156 120.214844 108.867188 112.757812 C 116.324219 105.308594 126.230469 101.203125 136.765625 101.203125 C 147.3125 101.203125 157.210938 105.308594 164.660156 112.757812 L 188.714844 136.808594 L 212.765625 112.757812 C 220.222656 105.308594 230.128906 101.203125 240.664062 101.203125 C 251.195312 101.203125 261.101562 105.308594 268.558594 112.757812 C 276.003906 120.207031 280.121094 130.113281 280.121094 140.65625 C 280.121094 145.746094 278.984375 150.734375 277.132812 155.570312 C 277.308594 155.78125 277.464844 155.996094 277.625 156.21875 L 288.09375 170.378906 C 292.957031 161.179688 296.277344 151.28125 296.277344 140.65625 C 296.277344 126.429688 290.84375 112.195312 279.984375 101.332031 C 258.273438 79.613281 223.054688 79.613281 201.339844 101.332031 L 188.714844 113.953125 L 176.085938 101.332031 C 154.375 79.613281 119.15625 79.613281 97.441406 101.332031 C 86.59375 112.195312 81.148438 126.429688 81.148438 140.65625 C 81.148438 150.53125 84.015625 159.761719 88.328125 168.40625 L 97.347656 156.21875 " fill-opacity="1" fill-rule="nonzero"/></svg>