<?xml version="1.0" encoding="UTF-8"?><svg xmlns="http://www.w3.org/2000/svg" xmlns:xlink="http://www.w3.org/1999/xlink" width="450" zoomAndPan="magnify" viewBox="0 0 450 299.999988" height="299.999988" preserveAspectRatio="xMidYMid meet" version="1.0"><defs><clipPath id="clip-0"><path d="M 174 27.652344 L 324 27.652344 L 324 272.152344 L 174 272.152344 Z M 174 27.652344 " clip-rule="nonzero"/></clipPath></defs><g clip-path="url(#clip-0)"><path fill="rgb(100%, 100%, 100%)" d="M 201.203125 55.125 L 296.355469 55.125 L 296.355469 245.292969 L 201.203125 245.292969 C 201.203125 229.164062 201.203125 204.542969 201.203125 204.542969 C 201.203125 197.007812 195.097656 190.960938 187.613281 190.960938 C 180.125 190.960938 174.019531 197.007812 174.019531 204.542969 L 174.019531 245.292969 C 174.019531 260.257812 186.179688 272.460938 201.203125 272.460938 C 224.726562 272.460938 272.832031 272.460938 296.355469 272.460938 C 311.382812 272.460938 323.542969 260.257812 323.542969 245.292969 L 323.542969 55.125 C 323.542969 40.109375 311.382812 27.960938 296.355469 27.960938 C 272.832031 27.960938 224.726562 27.960938 201.203125 27.960938 C 186.179688 27.960938 174.019531 40.109375 174.019531 55.125 L 174.019531 95.875 C 174.019531 103.359375 180.125 109.460938 187.613281 109.460938 C 195.097656 109.460938 201.203125 103.359375 201.203125 95.875 L 201.203125 55.125 " fill-opacity="1" fill-rule="evenodd"/></g><path fill="rgb(100%, 100%, 100%)" d="M 157.613281 113.4375 L 130.425781 140.605469 C 125.117188 145.859375 125.117188 154.453125 130.425781 159.8125 L 157.613281 186.980469 C 162.921875 192.234375 171.523438 192.234375 176.832031 186.980469 C 182.140625 181.675781 182.140625 173.027344 176.832031 167.773438 L 159.257812 150.210938 L 176.832031 132.648438 C 182.140625 127.339844 182.140625 118.691406 176.832031 113.4375 C 171.523438 108.132812 162.921875 108.132812 157.613281 113.4375 " fill-opacity="1" fill-rule="evenodd"/><path fill="rgb(100%, 100%, 100%)" d="M 146.832031 163.792969 L 241.984375 163.792969 C 249.46875 163.792969 255.578125 157.691406 255.578125 150.210938 C 255.578125 142.675781 249.46875 136.625 241.984375 136.625 L 146.832031 136.625 C 139.347656 136.625 133.238281 142.675781 133.238281 150.210938 C 133.238281 157.691406 139.347656 163.792969 146.832031 163.792969 " fill-opacity="1" fill-rule="evenodd"/></svg>