<?xml version="1.0" encoding="UTF-8"?><svg xmlns="http://www.w3.org/2000/svg" xmlns:xlink="http://www.w3.org/1999/xlink" width="450" zoomAndPan="magnify" viewBox="0 0 450 299.999988" height="299.999988" preserveAspectRatio="xMidYMid meet" version="1.0"><defs><clipPath id="clip-0"><path d="M 118 90 L 225 90 L 225 269.847656 L 118 269.847656 Z M 118 90 " clip-rule="nonzero"/></clipPath><clipPath id="clip-1"><path d="M 213 89 L 332 89 L 332 269.847656 L 213 269.847656 Z M 213 89 " clip-rule="nonzero"/></clipPath></defs><g clip-path="url(#clip-0)"><path fill="rgb(100%, 100%, 100%)" d="M 219.285156 270.027344 C 218.605469 270.027344 217.914062 269.902344 217.261719 269.636719 L 121.503906 230.332031 C 119.503906 229.527344 118.207031 227.570312 118.207031 225.4375 L 118.207031 133.386719 L 128.847656 133.386719 L 128.847656 221.867188 L 213.964844 256.796875 L 213.964844 137.347656 L 119.570312 99.90625 L 123.496094 90.027344 L 221.242188 128.800781 C 223.265625 129.605469 224.59375 131.5625 224.59375 133.738281 L 224.59375 264.71875 C 224.59375 266.480469 223.710938 268.136719 222.230469 269.136719 C 221.359375 269.71875 220.328125 270.027344 219.285156 270.027344 Z M 219.285156 270.027344 " fill-opacity="1" fill-rule="nonzero"/></g><g clip-path="url(#clip-1)"><path fill="rgb(100%, 100%, 100%)" d="M 219.285156 270.027344 C 218.210938 270.027344 217.144531 269.71875 216.242188 269.074219 C 214.816406 268.085938 213.964844 266.460938 213.964844 264.71875 L 213.964844 133.75 C 213.964844 131.507812 215.371094 129.511719 217.488281 128.746094 L 326.992188 89.453125 L 330.585938 99.425781 L 224.605469 137.453125 L 224.605469 257.074219 L 320.363281 221.71875 L 320.363281 133.386719 L 331.003906 133.386719 L 331.003906 225.425781 C 331.003906 227.644531 329.609375 229.632812 327.511719 230.40625 L 221.113281 269.6875 C 220.53125 269.921875 219.914062 270.027344 219.285156 270.027344 Z M 219.285156 270.027344 " fill-opacity="1" fill-rule="nonzero"/></g><path fill="rgb(100%, 100%, 100%)" d="M 328.777344 99.753906 C 328.152344 99.753906 327.511719 99.648438 326.886719 99.40625 L 225.136719 60.824219 L 123.410156 99.40625 C 120.664062 100.476562 117.589844 99.085938 116.546875 96.324219 C 115.503906 93.574219 116.886719 90.515625 119.632812 89.476562 L 223.265625 50.183594 C 224.476562 49.71875 225.828125 49.71875 227.042969 50.183594 L 330.652344 89.476562 C 333.40625 90.515625 334.789062 93.585938 333.746094 96.324219 C 332.960938 98.449219 330.9375 99.753906 328.777344 99.753906 Z M 328.777344 99.753906 " fill-opacity="1" fill-rule="nonzero"/><path fill="rgb(100%, 100%, 100%)" d="M 201.921875 170.949219 C 201.28125 170.949219 200.632812 170.820312 200.003906 170.597656 L 101.121094 132.621094 C 99.683594 132.070312 98.554688 130.933594 98.023438 129.480469 C 97.503906 128.046875 97.628906 126.433594 98.375 125.082031 L 116.886719 91.867188 C 118.3125 89.316406 121.539062 88.371094 124.121094 89.804688 C 126.6875 91.226562 127.613281 94.46875 126.1875 97.027344 L 110.652344 124.902344 L 199.472656 159 L 214.613281 131.199219 C 216.019531 128.621094 219.265625 127.675781 221.828125 129.066406 C 224.414062 130.46875 225.371094 133.71875 223.964844 136.265625 L 206.601562 168.15625 C 205.632812 169.917969 203.816406 170.949219 201.921875 170.949219 Z M 201.921875 170.949219 " fill-opacity="1" fill-rule="nonzero"/><path fill="rgb(100%, 100%, 100%)" d="M 242.980469 173.019531 C 241.277344 173.019531 239.640625 172.210938 238.617188 170.734375 L 214.921875 136.773438 C 213.242188 134.363281 213.835938 131.0625 216.253906 129.382812 C 218.667969 127.695312 221.976562 128.28125 223.65625 130.710938 L 244.96875 161.265625 L 339.675781 124.902344 L 324.140625 97.027344 C 322.714844 94.457031 323.640625 91.226562 326.195312 89.804688 C 328.789062 88.371094 332.011719 89.316406 333.4375 91.867188 L 351.953125 125.082031 C 352.699219 126.421875 352.847656 128.035156 352.304688 129.480469 C 351.78125 130.925781 350.65625 132.070312 349.207031 132.621094 L 244.882812 172.667969 C 244.265625 172.925781 243.617188 173.019531 242.980469 173.019531 Z M 242.980469 173.019531 " fill-opacity="1" fill-rule="nonzero"/></svg>