<?xml version="1.0" encoding="UTF-8"?><svg xmlns="http://www.w3.org/2000/svg" xmlns:xlink="http://www.w3.org/1999/xlink" width="450" zoomAndPan="magnify" viewBox="0 0 450 299.999988" height="299.999988" preserveAspectRatio="xMidYMid meet" version="1.0"><defs><clipPath id="clip-0"><path d="M 106.523438 31.523438 L 343.523438 31.523438 L 343.523438 268.523438 L 106.523438 268.523438 Z M 106.523438 31.523438 " clip-rule="nonzero"/></clipPath></defs><g clip-path="url(#clip-0)"><path fill="rgb(100%, 100%, 100%)" d="M 225.023438 31.523438 C 159.679688 31.523438 106.523438 84.679688 106.523438 150.023438 C 106.523438 186.875 123.144531 220.902344 152.078125 243.347656 C 168.734375 256.453125 188.558594 264.796875 209.261719 267.4375 C 214.390625 268.167969 219.707031 268.523438 225.023438 268.523438 C 230.335938 268.523438 235.652344 268.167969 240.648438 267.457031 C 261.488281 264.796875 281.308594 256.46875 297.933594 243.382812 C 326.914062 220.902344 343.523438 186.859375 343.523438 150.023438 C 343.523438 84.679688 290.347656 31.523438 225.023438 31.523438 Z M 292.738281 225.488281 L 292.738281 214.011719 C 292.738281 197.421875 262.433594 183.878906 225.023438 183.878906 C 187.609375 183.878906 157.308594 197.421875 157.308594 214.011719 L 157.308594 225.488281 C 135.792969 206.34375 123.449219 179.273438 123.449219 150.023438 C 123.449219 94.003906 169.003906 48.449219 225.023438 48.449219 C 281.039062 48.449219 326.59375 94.003906 326.59375 150.023438 C 326.59375 179.257812 314.269531 206.292969 292.738281 225.488281 Z M 292.738281 225.488281 " fill-opacity="1" fill-rule="nonzero"/></g><path fill="rgb(100%, 100%, 100%)" d="M 267.34375 124.628906 C 267.34375 126.015625 267.277344 127.398438 267.140625 128.777344 C 267.003906 130.15625 266.800781 131.527344 266.53125 132.886719 C 266.261719 134.246094 265.921875 135.589844 265.519531 136.914062 C 265.117188 138.242188 264.652344 139.542969 264.121094 140.824219 C 263.589844 142.105469 263 143.355469 262.347656 144.578125 C 261.691406 145.800781 260.980469 146.988281 260.210938 148.140625 C 259.441406 149.292969 258.617188 150.40625 257.738281 151.476562 C 256.859375 152.550781 255.929688 153.574219 254.949219 154.554688 C 253.96875 155.535156 252.941406 156.464844 251.871094 157.34375 C 250.800781 158.222656 249.6875 159.046875 248.535156 159.816406 C 247.382812 160.589844 246.195312 161.300781 244.972656 161.953125 C 243.75 162.605469 242.5 163.199219 241.21875 163.730469 C 239.9375 164.257812 238.632812 164.726562 237.308594 165.128906 C 235.980469 165.53125 234.636719 165.867188 233.277344 166.136719 C 231.917969 166.40625 230.550781 166.609375 229.171875 166.746094 C 227.789062 166.882812 226.410156 166.949219 225.023438 166.949219 C 223.636719 166.949219 222.253906 166.882812 220.875 166.746094 C 219.496094 166.609375 218.125 166.40625 216.765625 166.136719 C 215.40625 165.867188 214.0625 165.53125 212.738281 165.128906 C 211.410156 164.726562 210.105469 164.257812 208.828125 163.730469 C 207.546875 163.199219 206.292969 162.605469 205.070312 161.953125 C 203.847656 161.300781 202.664062 160.589844 201.507812 159.816406 C 200.355469 159.046875 199.246094 158.222656 198.171875 157.34375 C 197.101562 156.464844 196.078125 155.535156 195.097656 154.554688 C 194.117188 153.574219 193.1875 152.550781 192.308594 151.476562 C 191.429688 150.40625 190.601562 149.292969 189.832031 148.140625 C 189.0625 146.988281 188.351562 145.800781 187.699219 144.578125 C 187.042969 143.355469 186.453125 142.105469 185.921875 140.824219 C 185.390625 139.542969 184.925781 138.242188 184.523438 136.914062 C 184.121094 135.589844 183.785156 134.246094 183.515625 132.886719 C 183.242188 131.527344 183.039062 130.15625 182.90625 128.777344 C 182.769531 127.398438 182.699219 126.015625 182.699219 124.628906 C 182.699219 123.242188 182.769531 121.859375 182.90625 120.480469 C 183.039062 119.101562 183.242188 117.730469 183.515625 116.371094 C 183.785156 115.011719 184.121094 113.671875 184.523438 112.34375 C 184.925781 111.019531 185.390625 109.714844 185.921875 108.433594 C 186.453125 107.152344 187.042969 105.902344 187.699219 104.679688 C 188.351562 103.457031 189.0625 102.269531 189.832031 101.117188 C 190.601562 99.964844 191.429688 98.851562 192.308594 97.78125 C 193.1875 96.710938 194.117188 95.683594 195.097656 94.703125 C 196.078125 93.722656 197.101562 92.792969 198.171875 91.914062 C 199.246094 91.035156 200.355469 90.210938 201.507812 89.441406 C 202.664062 88.671875 203.847656 87.957031 205.070312 87.304688 C 206.292969 86.652344 207.546875 86.058594 208.828125 85.53125 C 210.105469 85 211.410156 84.53125 212.738281 84.128906 C 214.0625 83.726562 215.40625 83.390625 216.765625 83.121094 C 218.125 82.851562 219.496094 82.648438 220.875 82.511719 C 222.253906 82.375 223.636719 82.308594 225.023438 82.308594 C 226.410156 82.308594 227.789062 82.375 229.171875 82.511719 C 230.550781 82.648438 231.917969 82.851562 233.277344 83.121094 C 234.636719 83.390625 235.980469 83.726562 237.308594 84.128906 C 238.632812 84.53125 239.9375 85 241.21875 85.53125 C 242.5 86.058594 243.75 86.652344 244.972656 87.304688 C 246.195312 87.957031 247.382812 88.671875 248.535156 89.441406 C 249.6875 90.210938 250.800781 91.035156 251.871094 91.914062 C 252.941406 92.792969 253.96875 93.722656 254.949219 94.703125 C 255.929688 95.683594 256.859375 96.710938 257.738281 97.78125 C 258.617188 98.851562 259.441406 99.964844 260.210938 101.117188 C 260.980469 102.269531 261.691406 103.457031 262.347656 104.679688 C 263 105.902344 263.589844 107.152344 264.121094 108.433594 C 264.652344 109.714844 265.117188 111.019531 265.519531 112.34375 C 265.921875 113.671875 266.261719 115.011719 266.53125 116.371094 C 266.800781 117.730469 267.003906 119.101562 267.140625 120.480469 C 267.277344 121.859375 267.34375 123.242188 267.34375 124.628906 Z M 267.34375 124.628906 " fill-opacity="1" fill-rule="nonzero"/></svg>