<?xml version="1.0" encoding="UTF-8"?><svg xmlns="http://www.w3.org/2000/svg" xmlns:xlink="http://www.w3.org/1999/xlink" width="450" zoomAndPan="magnify" viewBox="0 0 450 299.999988" height="299.999988" preserveAspectRatio="xMidYMid meet" version="1.0"><defs><clipPath id="clip-0"><path d="M 109 28 L 342.898438 28 L 342.898438 272 L 109 272 Z M 109 28 " clip-rule="nonzero"/></clipPath></defs><g clip-path="url(#clip-0)"><path fill="rgb(100%, 100%, 100%)" d="M 207.335938 28.132812 C 201.492188 28.132812 196.496094 32.257812 195.375 37.984375 L 191.296875 58.875 C 181.285156 62.65625 172.023438 67.9375 163.890625 74.601562 L 143.824219 67.703125 C 138.296875 65.800781 132.214844 68.082031 129.285156 73.128906 L 110.886719 104.964844 C 107.972656 110.019531 109.035156 116.4375 113.4375 120.265625 L 129.523438 134.230469 C 128.6875 139.363281 128.144531 144.589844 128.144531 149.960938 C 128.144531 155.328125 128.6875 160.554688 129.523438 165.6875 L 113.4375 179.65625 C 109.035156 183.480469 107.972656 189.898438 110.886719 194.957031 L 129.285156 226.792969 C 132.203125 231.847656 138.296875 234.128906 143.824219 232.242188 L 163.890625 225.339844 C 172.019531 232 181.289062 237.265625 191.296875 241.046875 L 195.375 261.9375 C 196.496094 267.664062 201.492188 271.789062 207.335938 271.789062 L 244.183594 271.789062 C 250.027344 271.789062 255.023438 267.664062 256.144531 261.9375 L 260.222656 241.046875 C 270.234375 237.265625 279.496094 231.980469 287.628906 225.316406 L 307.695312 232.21875 C 313.222656 234.117188 319.304688 231.847656 322.230469 226.792969 L 340.628906 194.933594 C 343.546875 189.875 342.484375 183.480469 338.082031 179.65625 L 321.992188 165.6875 C 322.832031 160.554688 323.375 155.328125 323.375 149.960938 C 323.375 144.589844 322.832031 139.363281 321.992188 134.230469 L 338.082031 120.265625 C 342.484375 116.4375 343.546875 110.019531 340.628906 104.964844 L 322.230469 73.128906 C 319.316406 68.070312 313.222656 65.789062 307.695312 67.679688 L 287.628906 74.578125 C 279.5 67.917969 270.230469 62.652344 260.222656 58.875 L 256.144531 37.984375 C 255.023438 32.257812 250.027344 28.132812 244.183594 28.132812 Z M 225.757812 101.230469 C 252.714844 101.230469 274.566406 123.046875 274.566406 149.960938 C 274.566406 176.871094 252.714844 198.691406 225.757812 198.691406 C 198.804688 198.691406 176.953125 176.871094 176.953125 149.960938 C 176.953125 123.046875 198.804688 101.230469 225.757812 101.230469 Z M 225.757812 101.230469 " fill-opacity="1" fill-rule="nonzero"/></g></svg>